<?xml version="1.0" standalone="no"?>
<!DOCTYPE svg PUBLIC "-//W3C//DTD SVG 1.1//EN" "http://www.w3.org/Graphics/SVG/1.1/DTD/svg11.dtd" >
<svg>
<metadata>
Created by FontForge 20120731 at Tue Aug 27 14:46:17 2019
 By www
Copyright 2011 (c) Canada Type. All rights reserved.
</metadata>
<defs>
<font id="OrpheusPro-Bold" horiz-adv-x="481" >
  <font-face 
    font-family="Orpheus Pro"
    font-weight="700"
    font-stretch="normal"
    units-per-em="1000"
    panose-1="2 0 0 0 0 0 0 0 0 0"
    ascent="775"
    descent="-225"
    x-height="476"
    cap-height="729"
    bbox="-336 -252 1685 985"
    underline-thickness="50"
    underline-position="-50"
    unicode-range="U+000D-FB04"
  />
<missing-glyph horiz-adv-x="600" 
d="M500 0h-400v725h400v-725zM436 63v599h-272v-599h272z" />
    <glyph glyph-name="ff" unicode="ff" horiz-adv-x="600" 
d="M243 13v-15q-44 2 -105 2t-105 -2v15q25 5 34 20t9 71v299h-59v13l59 59q0 96 7 145.5t30 85.5q18 28 49 44.5t64 16.5q70 0 96 -70l-78 -61q-22 38 -39 56t-38 18q-35 0 -35 -52q0 -26 17 -49.5t34 -52t17 -65.5v-16h94v-72h-94v-299q0 -56 9 -71t34 -20zM543 13v-15
q-44 2 -105 2t-105 -2v15q25 5 34 20t9 71v299h-59v13l59 59q0 96 7 145.5t30 85.5q18 28 49 44.5t64 16.5q70 0 96 -70l-78 -61q-22 38 -39 56t-38 18q-35 0 -35 -52q0 -26 17 -49.5t34 -52t17 -65.5v-16h94v-72h-94v-299q0 -56 9 -71t34 -20z" />
    <glyph glyph-name="fi" unicode="fi" horiz-adv-x="558" 
d="M243 13v-15q-44 2 -105 2t-105 -2v15q25 5 34 20t9 71v299h-59v13l59 59q0 96 7 145.5t30 85.5q18 28 49 44.5t64 16.5q70 0 96 -70l-78 -61q-22 38 -39 56t-38 18q-35 0 -35 -52q0 -26 17 -49.5t34 -52t17 -65.5v-16h94v-72h-94v-299q0 -56 9 -71t34 -20zM537 13v-15
q-44 2 -105 2t-105 -2v15q25 5 34 20t9 71v240q0 50 -5 67t-26 23v15q88 0 155 31v-376q0 -56 9 -71t34 -20zM497 579q0 -26 -18.5 -43.5t-46.5 -17.5q-26 0 -43.5 18t-17.5 43q0 28 17.5 46.5t43.5 18.5q28 0 46.5 -18t18.5 -47z" />
    <glyph glyph-name="fl" unicode="fl" horiz-adv-x="562" 
d="M243 13v-15q-44 2 -105 2t-105 -2v15q25 5 34 20t9 71v299h-59v13l59 59q0 96 7 145.5t30 85.5q18 28 49 44.5t64 16.5q70 0 96 -70l-78 -61q-22 38 -39 56t-38 18q-35 0 -35 -52q0 -26 17 -49.5t34 -52t17 -65.5v-16h94v-72h-94v-299q0 -56 9 -71t34 -20zM536 13v-15
q-44 2 -105 2t-105 -2v15q25 5 34 20t9 71v522q0 50 -5 67t-26 23v15q88 0 155 31v-658q0 -56 9 -71t34 -20z" />
    <glyph glyph-name="ffi" unicode="ffi" horiz-adv-x="858" 
d="M243 13v-15q-44 2 -105 2t-105 -2v15q25 5 34 20t9 71v299h-59v13l59 59q0 96 7 145.5t30 85.5q18 28 49 44.5t64 16.5q70 0 96 -70l-78 -61q-22 38 -39 56t-38 18q-35 0 -35 -52q0 -26 17 -49.5t34 -52t17 -65.5v-16h94v-72h-94v-299q0 -56 9 -71t34 -20zM543 13v-15
q-44 2 -105 2t-105 -2v15q25 5 34 20t9 71v299h-59v13l59 59q0 96 7 145.5t30 85.5q18 28 49 44.5t64 16.5q70 0 96 -70l-78 -61q-22 38 -39 56t-38 18q-35 0 -35 -52q0 -26 17 -49.5t34 -52t17 -65.5v-16h94v-72h-94v-299q0 -56 9 -71t34 -20zM837 13v-15q-44 2 -105 2
t-105 -2v15q25 5 34 20t9 71v240q0 50 -5 67t-26 23v15q88 0 155 31v-376q0 -56 9 -71t34 -20zM797 579q0 -26 -18.5 -43.5t-46.5 -17.5q-26 0 -43.5 18t-17.5 43q0 28 17.5 46.5t43.5 18.5q28 0 46.5 -18t18.5 -47z" />
    <glyph glyph-name="ffl" unicode="ffl" horiz-adv-x="862" 
d="M243 13v-15q-44 2 -105 2t-105 -2v15q25 5 34 20t9 71v299h-59v13l59 59q0 96 7 145.5t30 85.5q18 28 49 44.5t64 16.5q70 0 96 -70l-78 -61q-22 38 -39 56t-38 18q-35 0 -35 -52q0 -26 17 -49.5t34 -52t17 -65.5v-16h94v-72h-94v-299q0 -56 9 -71t34 -20zM543 13v-15
q-44 2 -105 2t-105 -2v15q25 5 34 20t9 71v299h-59v13l59 59q0 96 7 145.5t30 85.5q18 28 49 44.5t64 16.5q70 0 96 -70l-78 -61q-22 38 -39 56t-38 18q-35 0 -35 -52q0 -26 17 -49.5t34 -52t17 -65.5v-16h94v-72h-94v-299q0 -56 9 -71t34 -20zM836 13v-15q-44 2 -105 2
t-105 -2v15q25 5 34 20t9 71v522q0 50 -5 67t-26 23v15q88 0 155 31v-658q0 -56 9 -71t34 -20z" />
    <glyph glyph-name="fb" unicode="fb" horiz-adv-x="853" 
d="M243 13v-15q-44 2 -105 2t-105 -2v15q25 5 34 20t9 71v299h-59v13l59 59q0 96 7 145.5t30 85.5q18 28 49 44.5t64 16.5q70 0 96 -70l-78 -61q-22 38 -39 56t-38 18q-35 0 -35 -52q0 -26 17 -49.5t34 -52t17 -65.5v-16h94v-72h-94v-299q0 -56 9 -71t34 -20zM348 17l-7 9
q15 15 17.5 35.5t2.5 105.5v459q0 50 -5 67t-26 23v15q88 0 155 31v-314q51 32 113 32q99 0 164.5 -65t65.5 -173q0 -101 -72 -174.5t-181 -73.5q-43 0 -94.5 17t-80.5 17q-26 0 -52 -11zM485 419v-268q0 -74 19 -102t71 -28q64 0 89.5 57t25.5 164q0 205 -125 205
q-41 0 -80 -28z" />
    <glyph glyph-name="fh" unicode="fh" horiz-adv-x="854" 
d="M243 13v-15q-44 2 -105 2t-105 -2v15q25 5 34 20t9 71v299h-59v13l59 59q0 96 7 145.5t30 85.5q18 28 49 44.5t64 16.5q70 0 96 -70l-78 -61q-22 38 -39 56t-38 18q-35 0 -35 -52q0 -26 17 -49.5t34 -52t17 -65.5v-16h94v-72h-94v-299q0 -56 9 -71t34 -20zM838 13v-15
q-44 2 -105 2t-105 -2v15q25 5 34 20t9 71v213q0 63 -22.5 91.5t-67.5 28.5q-50 0 -93 -45v-288q0 -56 9 -71t34 -20v-15q-44 2 -105 2t-105 -2v15q25 5 34 20t9 71v522q0 50 -5 67t-26 23v15q88 0 155 31v-339q68 57 149 57q30 0 54.5 -6t49.5 -21.5t39.5 -50t14.5 -85.5
v-213q0 -56 9 -71t34 -20z" />
    <glyph glyph-name="fj" unicode="fj" horiz-adv-x="545" 
d="M243 13v-15q-44 2 -105 2t-105 -2v15q25 5 34 20t9 71v299h-59v13l59 59q0 96 7 145.5t30 85.5q18 28 49 44.5t64 16.5q70 0 96 -70l-78 -61q-22 38 -39 56t-38 18q-35 0 -35 -52q0 -26 17 -49.5t34 -52t17 -65.5v-16h94v-72h-94v-299q0 -56 9 -71t34 -20zM324 -225
l-8 13q33 26 39.5 65.5t6.5 169.5v321q0 50 -5 67t-26 23v15q88 0 155 31v-517q0 -60 -46 -110t-116 -78zM489 579q0 -26 -18.5 -43.5t-46.5 -17.5q-26 0 -43.5 18t-17.5 43q0 28 17.5 46.5t43.5 18.5q28 0 46.5 -18t18.5 -47z" />
    <glyph glyph-name="fk" unicode="fk" horiz-adv-x="793" 
d="M243 13v-15q-44 2 -105 2t-105 -2v15q25 5 34 20t9 71v299h-59v13l59 59q0 96 7 145.5t30 85.5q18 28 49 44.5t64 16.5q70 0 96 -70l-78 -61q-22 38 -39 56t-38 18q-35 0 -35 -52q0 -26 17 -49.5t34 -52t17 -65.5v-16h94v-72h-94v-299q0 -56 9 -71t34 -20zM811 13v-15
q-52 2 -91 2q-45 0 -99 -2v15q19 3 19 13q0 8 -29 53l-123 183v-158q0 -56 9 -71t34 -20v-15q-44 2 -105 2t-105 -2v15q25 5 34 20t9 71v522q0 50 -5 67t-26 23v15q88 0 155 31v-485q131 120 131 150q0 29 -33 35v15q46 -2 94 -2q41 0 89 2v-16q-41 -12 -81.5 -41
t-100.5 -89l87 -135q71 -111 95 -143t42 -40z" />
    <glyph glyph-name="ft" unicode="ft" horiz-adv-x="616" 
d="M243 13v-15q-44 2 -105 2t-105 -2v15q25 5 34 20t9 71v299h-59v13l59 59q0 96 7 145.5t30 85.5q18 28 49 44.5t64 16.5q70 0 96 -70l-78 -61q-22 38 -39 56t-38 18q-35 0 -35 -52q0 -26 17 -49.5t34 -52t17 -65.5v-16h94v-72h-94v-299q0 -56 9 -71t34 -20zM605 96l12 -9
q-27 -93 -114 -93q-65 0 -102.5 34.5t-37.5 104.5v276h-49v15q118 69 155 212l25 -5q-7 -56 -7 -156h30q23 0 34.5 1t26.5 6t25 16l10 -12q-28 -42 -46 -77h-80v-255q0 -56 14 -80.5t46 -24.5q34 0 58 47z" />
    <glyph glyph-name="Th" unicode="Th" horiz-adv-x="1021" 
d="M530 104v514q0 58 -7 71q-43 -8 -137 -8h-41v-527q0 -86 8 -110.5t42 -30.5v-15q-44 2 -117 2t-117 -2v15q34 6 42 30.5t8 110.5v527h-11q-55 0 -88 -5.5t-50 -21.5t-23 -32t-12 -48h-16q2 48 2 107q0 10 -0.5 28.5t-0.5 26.5q44 -19 268 -19q242 0 374 45v-339
q68 57 149 57q30 0 54.5 -6t49.5 -21.5t39.5 -50t14.5 -85.5v-213q0 -56 9 -71t34 -20v-15q-44 2 -105 2t-105 -2v15q25 5 34 20t9 71v213q0 63 -22.5 91.5t-67.5 28.5q-50 0 -93 -45v-288q0 -56 9 -71t34 -20v-15q-44 2 -105 2t-105 -2v15q25 5 34 20t9 71z" />
    <glyph glyph-name=".notdef" horiz-adv-x="600" 
d="M500 0h-400v725h400v-725zM436 63v599h-272v-599h272z" />
    <glyph glyph-name=".null" horiz-adv-x="0" 
 />
    <glyph glyph-name=".null" horiz-adv-x="0" 
 />
    <glyph glyph-name="nonmarkingreturn" horiz-adv-x="333" 
 />
    <glyph glyph-name="CR" unicode="&#xd;" horiz-adv-x="0" 
 />
    <glyph glyph-name="space" unicode=" " horiz-adv-x="250" 
 />
    <glyph glyph-name="exclam" unicode="!" horiz-adv-x="240" 
d="M132 163h-27q0 31 -28 225.5t-28 256.5q0 34 17 57t54 23q38 0 55 -23t17 -57q0 -62 -30 -256.5t-30 -225.5zM165 40q0 -18 -14 -31t-35 -13q-17 0 -30.5 13.5t-13.5 30.5q0 21 13 35t31 14q21 0 35 -14t14 -35z" />
    <glyph glyph-name="quotedbl" unicode="&#x22;" horiz-adv-x="269" 
d="M102 554h-58q-1 8 -5 82t-8 126h84q-4 -52 -8 -126t-5 -82zM225 554h-58q-1 8 -5 82t-8 126h84q-4 -52 -8 -126t-5 -82z" />
    <glyph glyph-name="numbersign" unicode="#" horiz-adv-x="1166" 
d="M1087 125h-310v30h310v-30zM1130 408q0 -82 -59 -134.5t-137 -52.5t-136.5 52.5t-58.5 134.5q0 84 58.5 137t136.5 53q79 0 137.5 -53t58.5 -137zM934 242q51 0 70 40t19 126q0 89 -19 129t-70 40t-69.5 -40t-18.5 -129q0 -86 18.5 -126t69.5 -40zM667 -22h-13
q-292 324 -503 528v-203q0 -163 15.5 -220.5t59.5 -69.5v-15q-44 2 -93 2q-37 0 -79 -2v15q38 11 46.5 62.5t8.5 228.5q0 341 -4 438h17q248 -276 497 -528v210q0 166 -15 222t-60 68v15q44 -2 93 -2q37 0 79 2v-15q-39 -11 -47 -61t-8 -230v-241q0 -121 6 -204z" />
    <glyph glyph-name="dollar" unicode="$" horiz-adv-x="521" 
d="M277 -51h-30v41h-2q-36 0 -82.5 9t-65.5 9q-25 0 -42 -5q2 36 2 49q0 19 -2 54.5t-2 43.5q0 50 10 74h15q10 -87 49.5 -144.5t117.5 -57.5h2v283q-5 3 -27 15t-28.5 15.5t-26 15.5t-26.5 18t-22.5 19t-21.5 22.5t-16.5 24t-14.5 28.5t-7.5 32t-3.5 37q0 84 54.5 143
t139.5 66v39h30v-38q30 -1 63.5 -8.5t50.5 -7.5q39 0 62 11q-3 -44 -3 -108q0 -49 1 -93h-16q-21 90 -59.5 131t-98.5 43v-261q7 -4 30 -15.5t32.5 -17t29.5 -17t29.5 -20t24.5 -22t22.5 -26.5t16 -30t12 -37t3.5 -42q0 -93 -51 -157t-149 -73v-43zM277 287v-262
q46 9 70.5 42.5t24.5 82.5q0 46 -24.5 77.5t-70.5 59.5zM247 466v242q-42 -6 -67 -35.5t-25 -74.5q0 -79 92 -132z" />
    <glyph glyph-name="percent" unicode="%" horiz-adv-x="889" 
d="M427 570q0 -82 -58.5 -134.5t-138.5 -52.5q-79 0 -137.5 52.5t-58.5 134.5q0 85 58.5 138.5t137.5 53.5q80 0 138.5 -53.5t58.5 -138.5zM230 401q109 0 109 169q0 174 -109 174q-108 0 -108 -174q0 -169 108 -169zM232 0h-58l491 767h58zM855 177q0 -82 -58.5 -134.5
t-138.5 -52.5q-79 0 -137.5 52.5t-58.5 134.5q0 85 58.5 138.5t137.5 53.5q80 0 138.5 -53.5t58.5 -138.5zM658 8q109 0 109 169q0 174 -109 174q-108 0 -108 -174q0 -169 108 -169z" />
    <glyph glyph-name="ampersand" unicode="&#x26;" horiz-adv-x="664" 
d="M679 28v-13q-34 -17 -93 -17q-86 0 -166 57q-70 -65 -172 -65q-98 0 -163.5 48t-65.5 133q0 109 144 190q-65 103 -65 187q0 81 49.5 124t117.5 43q60 0 100.5 -32.5t40.5 -95.5q0 -107 -127 -187q12 -20 19 -30q68 -109 162 -205q18 46 18 103q0 36 -13.5 68t-42.5 41v3
q12 -2 16 -2q21 0 37 17.5t18 39.5l1 2q25 -17 40.5 -52.5t15.5 -68.5q0 -80 -67 -174q113 -108 196 -114zM398 73q-56 47 -147 167q-55 73 -70 94q-52 -55 -52 -141q0 -64 41.5 -108t117.5 -44q66 0 110 32zM263 426q60 59 60 156q0 55 -15.5 78t-45.5 23q-27 0 -45 -21.5
t-18 -61.5q0 -37 12.5 -73.5t51.5 -100.5z" />
    <glyph glyph-name="quotesingle" unicode="'" horiz-adv-x="146" 
d="M102 554h-58q-1 8 -5 82t-8 126h84q-4 -52 -8 -126t-5 -82z" />
    <glyph glyph-name="parenleft" unicode="(" horiz-adv-x="252" 
d="M219 -117h-16q-82 89 -127.5 207t-45.5 239q0 115 46.5 235.5t125.5 202.5h16q-84 -197 -84 -434q0 -239 85 -450z" />
    <glyph glyph-name="parenright" unicode=")" horiz-adv-x="252" 
d="M49 -117h-16q85 211 85 450q0 237 -84 434h16q79 -82 125.5 -202.5t46.5 -235.5q0 -121 -45.5 -239t-127.5 -207z" />
    <glyph glyph-name="asterisk" unicode="*" horiz-adv-x="347" 
d="M274 464l-58 -34l-39 81l-5 -1l-41 -79l-55 34l63 70l-2 8l-89 21l33 65l70 -48l5 5l-15 78h70l-17 -78l7 -5l72 46l25 -66l-85 -17l-2 -8z" />
    <glyph glyph-name="plus" unicode="+" horiz-adv-x="475" 
d="M267 101h-60q1 36 1 172q-136 0 -171 -1v60q72 -2 171 -2q0 136 -1 172h60q-2 -72 -2 -172q99 0 173 2v-60q-37 1 -173 1q0 -100 2 -172z" />
    <glyph glyph-name="comma" unicode="," horiz-adv-x="189" 
d="M74 -98l-7 5q35 27 35 77q0 9 -2 17q-6 -5 -18 -5q-18 0 -29 12.5t-11 31.5q0 21 13.5 35.5t36.5 14.5q22 0 38.5 -14.5t16.5 -43.5q0 -83 -73 -130z" />
    <glyph glyph-name="hyphen" unicode="-" horiz-adv-x="329" 
d="M279 331v-60q-33 1 -115 1q-81 0 -114 -1v60q66 -2 114 -2q49 0 115 2z" />
    <glyph glyph-name="period" unicode="." horiz-adv-x="178" 
d="M136 41q0 -18 -14 -31.5t-35 -13.5q-18 0 -31.5 13.5t-13.5 31.5q0 21 13.5 35t31.5 14q21 0 35 -14t14 -35z" />
    <glyph glyph-name="slash" unicode="/" horiz-adv-x="453" 
d="M89 -46h-61l337 813h61z" />
    <glyph glyph-name="zero" unicode="0" horiz-adv-x="636" 
d="M318 -10q-68 0 -122 32.5t-86 87t-48.5 118.5t-16.5 133t16.5 133t48.5 118.5t86 87t122 32.5t122 -32.5t86 -87t48.5 -118.5t16.5 -133t-16.5 -133t-48.5 -118.5t-86 -87t-122 -32.5zM318 22q64 0 95 76t31 263t-31 263t-95 76t-95 -76t-31 -263t31 -263t95 -76z" />
    <glyph glyph-name="one" unicode="1" horiz-adv-x="347" 
d="M297 13v-15q-44 2 -117 2t-117 -2v15q34 6 42 30.5t8 110.5v446l-79 -55l-9 21q173 115 207 176h15v-588q0 -86 8 -110.5t42 -30.5z" />
    <glyph glyph-name="two" unicode="2" horiz-adv-x="579" 
d="M524 170h15q0 -23 -13.5 -79.5t-14.5 -96.5q-126 6 -335 6q-31 0 -99 -0.5t-69 -0.5v15q48 25 92.5 54.5t96 76.5t89 99t62.5 122t25 144q0 101 -35 143.5t-103 42.5q-65 0 -107 -36t-42 -99q0 -31 19.5 -58t56.5 -41q-26 -11 -60 -42q-64 56 -64 141q0 75 56.5 128
t156.5 53q109 0 187 -59.5t78 -172.5q0 -32 -7 -63t-23.5 -61t-31.5 -54.5t-44 -54t-47 -47.5t-54.5 -47.5t-53 -42t-54.5 -41.5q55 -1 125.5 -3.5t80.5 -2.5q59 0 83 14t34 63z" />
    <glyph glyph-name="three" unicode="3" horiz-adv-x="547" 
d="M116 197l4 -3q-7 -20 -7 -40q0 -61 33.5 -96.5t86.5 -35.5q56 0 89.5 40.5t33.5 123.5q0 166 -150 166v17q72 0 111 50.5t39 126.5q0 75 -34 112.5t-89 37.5q-57 0 -95 -33.5t-38 -89.5q0 -57 51 -90q-42 -17 -61 -35q-38 45 -38 107q0 83 60.5 135t156.5 52
q95 0 157.5 -54t62.5 -142q0 -110 -119 -156q49 -20 79 -54t40 -65t10 -65q0 -92 -72 -154t-184 -62q-84 0 -138.5 43.5t-69.5 105.5q20 8 49.5 32t31.5 26z" />
    <glyph glyph-name="four" unicode="4" horiz-adv-x="580" 
d="M508 13v-15q-44 2 -117 2t-117 -2v15q34 6 42 30.5t8 110.5v30h-315l-5 24l439 534h15v-469q49 0 63.5 5t23.5 29h5q0 -19 -15 -66t-17 -62q-14 5 -60 5v-30q0 -86 8 -110.5t42 -30.5zM324 273v272l-219 -272h219z" />
    <glyph glyph-name="five" unicode="5" horiz-adv-x="569" 
d="M104 206l3 -2q-2 -18 -2 -35q0 -65 41 -106t102 -41q70 0 108.5 55.5t38.5 130.5q0 70 -41 118.5t-121 48.5q-91 0 -140 -56h-15q9 64 16 199.5t7 215.5q135 -9 317 -9q39 0 54.5 3t23.5 14h6q-22 -66 -36 -117l-322 9q-1 -84 -6 -162q65 24 128 24q128 0 200 -73
t72 -179q0 -103 -76 -178.5t-214 -75.5q-79 0 -140.5 40t-85.5 109q10 5 19.5 11t19.5 15l15 13.5t16 15.5z" />
    <glyph glyph-name="six" unicode="6" horiz-adv-x="586" 
d="M478 733v-19q-243 -11 -282 -314q57 85 156 85q98 0 152.5 -68.5t54.5 -162.5q0 -111 -65.5 -187.5t-185.5 -76.5q-112 0 -189 85.5t-77 230.5q0 116 52 212.5t152.5 155.5t231.5 59zM191 349q-2 -21 -2 -64q0 -47 5 -88t17 -83t37.5 -67t62.5 -25q53 0 79 55.5t26 149.5
q0 212 -109 212q-70 0 -116 -90z" />
    <glyph glyph-name="seven" unicode="7" horiz-adv-x="515" 
d="M421 606h-244q-82 0 -108 -17.5t-30 -70.5h-15q0 24 3.5 82.5t3.5 86.5q0 43 -2 55h5q20 -15 127 -15h365v-15q-93 -170 -203 -411.5t-127 -331.5q-19 3 -93 3q93 155 318 634z" />
    <glyph glyph-name="eight" unicode="8" horiz-adv-x="545" 
d="M351 391q70 -46 108 -90.5t38 -107.5q0 -99 -66 -151t-158 -52q-97 0 -161 43.5t-64 119.5q0 108 147 189q-66 46 -102.5 89t-36.5 101q0 82 62.5 141t158.5 59q94 0 151 -45.5t57 -111.5q0 -95 -134 -184zM227 321q-88 -60 -88 -168q0 -58 34.5 -94.5t103.5 -36.5
q57 0 86 32t29 82q0 28 -12.5 53t-35.5 46.5t-49 40t-58 39.5q-7 4 -10 6zM321 410q38 27 60.5 72.5t22.5 92.5q0 57 -31.5 91t-95.5 34q-52 0 -85.5 -25.5t-33.5 -75.5q0 -31 12 -57.5t40.5 -51.5t48.5 -39t62 -41z" />
    <glyph glyph-name="nine" unicode="9" horiz-adv-x="587" 
d="M109 -10v19q80 4 138 39.5t90 97t46.5 133.5t14.5 159q0 47 -5 88t-17 83t-37.5 67t-62.5 25q-53 0 -79 -55.5t-26 -149.5q0 -212 109 -212q43 0 79 33l10 -11q-51 -68 -134 -68q-98 0 -152.5 68.5t-54.5 162.5q0 111 65.5 187.5t185.5 76.5q112 0 189 -85.5t77 -230.5
q0 -116 -52 -212.5t-152.5 -155.5t-231.5 -59z" />
    <glyph glyph-name="colon" unicode=":" horiz-adv-x="194" 
d="M144 41q0 -18 -14 -31.5t-35 -13.5q-18 0 -31.5 13.5t-13.5 31.5q0 21 13.5 35t31.5 14q21 0 35 -14t14 -35zM144 352q0 -18 -14 -31.5t-35 -13.5q-18 0 -31.5 13.5t-13.5 31.5q0 21 13.5 35t31.5 14q21 0 35 -14t14 -35z" />
    <glyph glyph-name="semicolon" unicode=";" horiz-adv-x="205" 
d="M149 352q0 -18 -14 -31.5t-35 -13.5q-18 0 -31.5 13.5t-13.5 31.5q0 21 13.5 35t31.5 14q21 0 35 -14t14 -35zM82 -98l-7 5q35 27 35 77q0 9 -2 17q-6 -5 -18 -5q-18 0 -29 12.5t-11 31.5q0 21 13.5 35.5t36.5 14.5q22 0 38.5 -14.5t16.5 -43.5q0 -83 -73 -130z" />
    <glyph glyph-name="less" unicode="&#x3c;" horiz-adv-x="447" 
d="M385 80l-353 209v26l353 209v-52l-277 -170l277 -170v-52z" />
    <glyph glyph-name="equal" unicode="=" horiz-adv-x="524" 
d="M462 396v-60q-39 1 -201 1t-200 -1v60q76 -2 200 -2q123 0 201 2zM462 266v-60q-39 1 -201 1t-200 -1v60q76 -2 200 -2q123 0 201 2z" />
    <glyph glyph-name="greater" unicode="&#x3e;" horiz-adv-x="447" 
d="M415 289l-353 -209v52l277 170l-277 170v52l353 -209v-26z" />
    <glyph glyph-name="question" unicode="?" horiz-adv-x="500" 
d="M247 153h-27q0 50 13 91.5t32 70.5t38 57t32 65t13 80q0 72 -36 107.5t-97 35.5q-65 0 -98.5 -33t-33.5 -78q0 -39 27.5 -67t75.5 -28q22 0 42 4q-26 -31 -30 -71q-81 15 -122 61t-41 108q0 74 53 125t143 51q98 0 165 -51t67 -139q0 -45 -16 -82.5t-40 -62.5t-52 -52.5
t-52 -51.5t-40 -60.5t-16 -79.5zM280 40q0 -18 -14 -31t-35 -13q-17 0 -30.5 13.5t-13.5 30.5q0 21 13 35t31 14q21 0 35 -14t14 -35z" />
    <glyph glyph-name="at" unicode="@" horiz-adv-x="861" 
d="M459 -94v-16q-188 8 -304 109.5t-116 269.5q0 170 118 278t300 108q89 0 159 -28t112 -75t63.5 -104.5t21.5 -120.5q0 -76 -28 -148.5t-80.5 -120.5t-115.5 -48q-30 0 -49.5 14.5t-28.5 53.5q-63 -48 -136 -48q-61 0 -103.5 30.5t-42.5 83.5q0 60 52.5 95t127.5 35
q56 0 95 -19v99q0 67 -17.5 93t-50.5 26q-37 0 -52.5 -30t-15.5 -97h-121q8 58 39.5 94t70 48t86.5 12q86 0 135.5 -43t49.5 -129v-187q0 -52 26 -52q29 0 59.5 65t30.5 154q0 133 -76 208t-213 75q-149 0 -242 -88t-93 -241q0 -147 88.5 -245t250.5 -111zM504 128v101
q-30 14 -67 14q-77 0 -77 -82q0 -45 20 -66t52 -21q39 0 73 29q-1 8 -1 25z" />
    <glyph glyph-name="A" unicode="A" horiz-adv-x="618" 
d="M611 13v-15q-42 2 -109 2q-89 0 -133 -2v15q42 8 42 42q0 24 -18 80l-32 96q-37 1 -110 1t-100 -1l-12 -31q-33 -85 -33 -130q0 -49 37 -57v-15q-44 2 -102 2q-37 0 -79 -2v15q42 14 71 57.5t71 153.5l202 518h33l197 -610q32 -98 75 -119zM347 274l-83 255l-97 -255
q21 -1 84 -1q64 0 96 1z" />
    <glyph glyph-name="B" unicode="B" horiz-adv-x="616" 
d="M43 -2v15q34 6 42 30.5t8 110.5v419q0 86 -8 110.5t-42 30.5v15q44 -2 117 -2q52 0 110.5 1t81.5 1q88 0 133.5 -44.5t45.5 -113.5q0 -62 -37 -106.5t-112 -63.5q205 -27 205 -191q0 -41 -11 -75.5t-37 -67t-77.5 -51.5t-123.5 -19q-18 0 -77 1.5t-101 1.5q-73 0 -117 -2
zM262 378h-35v-342q23 -9 71 -9q61 0 102.5 45t41.5 138q0 87 -45 127.5t-135 40.5zM227 410h32q67 0 97 37t30 124q0 128 -112 128q-23 0 -47 -9v-280z" />
    <glyph glyph-name="C" unicode="C" horiz-adv-x="694" 
d="M640 220l15 -5q-8 -74 -8 -179q-112 -46 -230 -46q-171 0 -279 111t-108 260q0 71 24.5 136t72 118t125 85t174.5 32q36 0 78 -4t85.5 -10.5t57.5 -7.5q-3 -45 -3 -111q0 -39 2 -93h-15q-56 194 -205 194q-104 0 -176.5 -92t-72.5 -247q0 -160 69 -249.5t171 -89.5
q73 0 134.5 59.5t88.5 138.5z" />
    <glyph glyph-name="D" unicode="D" horiz-adv-x="768" 
d="M227 690v-654q23 -9 89 -9q135 0 202 83t67 253q0 67 -10.5 120t-27 88t-42 60t-48.5 37.5t-54.5 20t-52.5 9t-49 1.5q-50 0 -74 -9zM43 -2v15q34 6 42 30.5t8 110.5v419q0 86 -8 110.5t-42 30.5v15q44 -2 117 -2q25 0 73.5 1t75.5 1q104 0 184 -26.5t124.5 -65.5
t72.5 -91t37 -95.5t9 -87.5q0 -157 -104 -261.5t-294 -104.5q-20 0 -82 1.5t-96 1.5q-73 0 -117 -2z" />
    <glyph glyph-name="E" unicode="E" horiz-adv-x="564" 
d="M504 199h15q-3 -144 -3 -201q-75 2 -356 2q-73 0 -117 -2v15q34 6 42 30.5t8 110.5v419q0 86 -8 110.5t-42 30.5v15q44 -2 117 -2q285 0 360 2q-2 -50 -2 -111q0 -51 1 -72h-15q-15 43 -32.5 71t-32.5 43t-41.5 22t-44.5 8t-58 1q-44 0 -68 -4v-294h59q57 0 88 16t45 70
h15q-4 -60 -4 -93q0 -53 4 -101h-15q-10 47 -42 60.5t-91 13.5h-59v-319q24 -4 68 -4q41 0 65 4t53 19t51 49.5t40 90.5z" />
    <glyph glyph-name="F" unicode="F" horiz-adv-x="517" 
d="M277 13v-15q-44 2 -117 2t-117 -2v15q34 6 42 30.5t8 110.5v419q0 86 -8 110.5t-42 30.5v15q44 -2 117 -2q267 0 342 2q-2 -50 -2 -86q0 -68 1 -89h-15q-18 49 -34.5 76.5t-41 41t-47 16.5t-68.5 3q-44 0 -68 -4v-293h56q23 0 37 1t32 5.5t29 13t20.5 25t14.5 40.5h15
q-4 -60 -4 -93q0 -49 4 -97h-15q-13 47 -41.5 59t-91.5 12h-56v-206q0 -86 8 -110.5t42 -30.5z" />
    <glyph glyph-name="G" unicode="G" horiz-adv-x="785" 
d="M725 66l-3 -4q-6 4 -21 4q-20 0 -47 -12t-52.5 -26t-72.5 -26t-102 -12q-180 0 -288 109.5t-108 264.5q0 71 25 135.5t73 117t128 84t180 31.5q64 0 149 -17t120 -17q-3 -42 -3 -104q0 -40 2 -94h-15q-70 200 -248 200q-121 0 -192.5 -90.5t-71.5 -253.5t70.5 -248.5
t186.5 -85.5q99 0 151 57v119q0 86 -8 110.5t-42 30.5v15q44 -2 117 -2t117 2v-15q-33 -6 -41.5 -32.5t-8.5 -114.5q0 -105 5 -126z" />
    <glyph glyph-name="H" unicode="H" horiz-adv-x="755" 
d="M712 13v-15q-44 2 -117 2t-117 -2v15q34 6 42 30.5t8 110.5v215q-53 1 -157 1q-97 0 -144 -1v-215q0 -86 8 -110.5t42 -30.5v-15q-44 2 -117 2t-117 -2v15q34 6 42 30.5t8 110.5v419q0 86 -8 110.5t-42 30.5v15q44 -2 117 -2t117 2v-15q-34 -6 -42 -30.5t-8 -110.5v-161
h301v161q0 86 -8 110.5t-42 30.5v15q44 -2 117 -2t117 2v-15q-34 -6 -42 -30.5t-8 -110.5v-419q0 -86 8 -110.5t42 -30.5z" />
    <glyph glyph-name="I" unicode="I" horiz-adv-x="320" 
d="M277 13v-15q-44 2 -117 2t-117 -2v15q34 6 42 30.5t8 110.5v419q0 86 -8 110.5t-42 30.5v15q44 -2 117 -2t117 2v-15q-34 -6 -42 -30.5t-8 -110.5v-419q0 -86 8 -110.5t42 -30.5z" />
    <glyph glyph-name="J" unicode="J" horiz-adv-x="314" 
d="M48 -199l-6 14q34 23 41 54t7 143v561q0 86 -8 110.5t-42 30.5v15q44 -2 117 -2t117 2v-15q-34 -6 -42 -30.5t-8 -110.5v-554q0 -83 -38.5 -132.5t-137.5 -85.5z" />
    <glyph glyph-name="K" unicode="K" horiz-adv-x="609" 
d="M642 13v-15q-42 2 -126 2q-80 0 -124 -2v15q19 6 19 24q0 26 -45 99l-139 225v-207q0 -86 8 -110.5t42 -30.5v-15q-44 2 -117 2t-117 -2v15q34 6 42 30.5t8 110.5v419q0 86 -8 110.5t-42 30.5v15q44 -2 117 -2t117 2v-15q-34 -6 -42 -30.5t-8 -110.5v-195
q193 252 193 297q0 27 -39 37v15q44 -2 117 -2q65 0 107 2v-15q-65 -13 -128 -73t-154 -191l195 -298q35 -54 63 -85.5t61 -51.5z" />
    <glyph glyph-name="L" unicode="L" horiz-adv-x="522" 
d="M496 181h15q-4 -136 -4 -183q-75 2 -347 2q-73 0 -117 -2v15q34 6 42 30.5t8 110.5v419q0 86 -8 110.5t-42 30.5v15q44 -2 117 -2t117 2v-15q-34 -6 -42 -30.5t-8 -110.5v-533q43 -4 116 -4q31 0 50 3.5t41 17t37 44t25 80.5z" />
    <glyph glyph-name="M" unicode="M" horiz-adv-x="889" 
d="M873 13v-15q-42 2 -104 2q-59 0 -103 -2v15q32 8 32 47q0 21 -12 88l-58 326l-208 -482h-17l-223 490l-51 -297q-8 -48 -8 -79q0 -79 55 -93v-15q-44 2 -99 2q-24 0 -66 -2v15q30 10 45 48t31 127l96 554h25l252 -550l240 550h25l93 -589q5 -33 8.5 -50.5t10 -39.5
t15.5 -34t21 -16z" />
    <glyph glyph-name="N" unicode="N" horiz-adv-x="736" 
d="M650 -22h-13q-292 324 -503 528v-203q0 -163 15.5 -220.5t59.5 -69.5v-15q-44 2 -93 2q-37 0 -79 -2v15q38 11 46.5 62.5t8.5 228.5q0 341 -4 438h17q248 -276 497 -528v210q0 166 -15 222t-60 68v15q44 -2 93 -2q37 0 79 2v-15q-39 -11 -47 -61t-8 -230v-241
q0 -121 6 -204z" />
    <glyph glyph-name="O" unicode="O" horiz-adv-x="802" 
d="M771 359q0 -160 -110.5 -264.5t-259.5 -104.5t-259.5 104.5t-110.5 264.5q0 108 52.5 194.5t136.5 132.5t181 46t181 -46t136.5 -132.5t52.5 -194.5zM401 22q115 0 169 82t54 255q0 175 -54 258t-169 83t-169 -83t-54 -258q0 -173 54 -255t169 -82z" />
    <glyph glyph-name="P" unicode="P" horiz-adv-x="562" 
d="M277 13v-15q-44 2 -117 2t-117 -2v15q34 6 42 30.5t8 110.5v419q0 86 -8 110.5t-42 30.5v15q44 -2 117 -2q31 0 74 1t54 1q127 0 197 -58t70 -146q0 -79 -60 -134t-156 -55q-67 0 -104 23l8 13q25 -13 60 -13q107 0 107 166q0 174 -136 174q-29 0 -47 -9v-536
q0 -86 8 -110.5t42 -30.5z" />
    <glyph glyph-name="Q" unicode="Q" horiz-adv-x="802" 
d="M759 -57v-5q-43 -29 -98 -29q-34 0 -66.5 15t-51 30t-52.5 47q-46 -11 -90 -11q-149 0 -259.5 104.5t-110.5 264.5q0 108 52.5 194.5t136.5 132.5t181 46t181 -46t136.5 -132.5t52.5 -194.5q0 -102 -47 -183.5t-127 -130.5q1 -1 10.5 -11t14 -14.5l14.5 -14.5t17.5 -15.5
t18.5 -14t20.5 -13t20.5 -9.5t23 -7.5t23 -2.5zM401 22q115 0 169 82t54 255q0 175 -54 258t-169 83t-169 -83t-54 -258q0 -173 54 -255t169 -82z" />
    <glyph glyph-name="R" unicode="R" horiz-adv-x="608" 
d="M608 13v-8q-9 -9 -61 -9q-69 0 -111 35q-13 11 -25 25.5t-29 43.5t-29.5 51.5t-42 77.5t-50.5 94h-33v-169q0 -86 8 -110.5t42 -30.5v-15q-44 2 -117 2t-117 -2v15q34 6 42 30.5t8 110.5v419q0 86 -8 110.5t-42 30.5v15q44 -2 118 -2q30 0 72.5 1t53.5 1q129 0 196.5 -54
t67.5 -146q0 -130 -156 -184q42 -91 111.5 -206t101.5 -126zM227 350h45q72 0 103 40t31 128q0 181 -130 181q-31 0 -49 -9v-340z" />
    <glyph glyph-name="S" unicode="S" horiz-adv-x="516" 
d="M449 536h-16q-22 93 -62 133.5t-104 40.5q-51 0 -82.5 -30.5t-31.5 -81.5q0 -37 18 -66t46 -48t62.5 -36.5t69 -37t62.5 -43t46 -60.5t18 -85q0 -100 -59.5 -166t-172.5 -66q-36 0 -82.5 9t-65.5 9q-25 0 -42 -5q2 36 2 49q0 19 -2 54.5t-2 43.5q0 50 10 74h15
q10 -87 49.5 -144.5t117.5 -57.5q61 0 94 35.5t33 92.5q0 50 -33 87t-80 62t-93.5 52t-79.5 72.5t-33 108.5q0 89 61 149.5t155 60.5q34 0 70.5 -8t51.5 -8q39 0 62 11q-3 -44 -3 -108q0 -49 1 -93z" />
    <glyph glyph-name="T" unicode="T" horiz-adv-x="556" 
d="M395 13v-15q-44 2 -117 2t-117 -2v15q34 6 42 30.5t8 110.5v527h-11q-55 0 -88 -5.5t-50 -21.5t-23 -32t-12 -48h-16q2 48 2 107q0 10 -0.5 28.5t-0.5 26.5q44 -19 268 -19q220 0 264 19q0 -8 -0.5 -26.5t-0.5 -28.5q0 -59 2 -107h-16q-6 32 -12 48t-23 32t-50 21.5
t-88 5.5h-11v-527q0 -86 8 -110.5t42 -30.5z" />
    <glyph glyph-name="U" unicode="U" horiz-adv-x="696" 
d="M568 289v185q0 103 -7.5 151.5t-21.5 64t-46 24.5v15q44 -2 93 -2q37 0 79 2v-15q-40 -12 -47.5 -47.5t-7.5 -193.5v-200q0 -133 -50.5 -208t-176.5 -75q-182 0 -249 85q-50 64 -50 197v301q0 86 -8 110.5t-42 30.5v15q44 -2 117 -2t117 2v-15q-34 -6 -42 -30.5
t-8 -110.5v-297q0 -144 32.5 -196t136.5 -52q98 0 139.5 61.5t41.5 199.5z" />
    <glyph glyph-name="V" unicode="V" horiz-adv-x="628" 
d="M334 -22h-29l-241 617q-39 99 -72 119v15q42 -2 106 -2q89 0 133 2v-15q-42 -8 -42 -42q0 -31 18 -80l156 -415l121 350q28 81 28 130t-37 57v15q44 -2 102 -2q37 0 79 2v-15q-30 -10 -47.5 -27t-37 -57.5t-50.5 -126.5z" />
    <glyph glyph-name="W" unicode="W" horiz-adv-x="962" 
d="M668 -22h-29l-156 407l-153 -407h-29l-236 617q-26 68 -40.5 92t-31.5 27v15q42 -2 106 -2q89 0 133 2v-15q-42 -8 -42 -42q0 -32 18 -80l152 -422l100 275l-57 150q-26 68 -40.5 92t-31.5 27v15q42 -2 106 -2q109 0 153 2v-15q-35 -6 -49.5 -17t-14.5 -31q0 -21 20 -74
l150 -417l123 351q28 81 28 131q0 49 -37 57v15q44 -2 102 -2q37 0 79 2v-15q-42 -14 -67.5 -53t-67.5 -158z" />
    <glyph glyph-name="X" unicode="X" horiz-adv-x="692" 
d="M718 13v-15q-42 2 -139 2q-134 0 -178 -2v15q62 6 62 32q0 18 -32 68l-117 184l-72 -107q-58 -84 -58 -133q0 -40 45 -44v-15q-44 2 -125 2q-90 0 -132 -2v15q44 6 68.5 17t62.5 51t95 122l92 132l-169 270q-29 45 -54.5 70t-40 30.5t-37.5 8.5v15q42 -2 139 -2
q134 0 178 2v-15q-62 -6 -62 -32q0 -17 32 -68l102 -162l58 85q58 84 58 133q0 40 -45 44v15q44 -2 125 -2q90 0 132 2v-15q-44 -6 -68.5 -17t-62.5 -51t-95 -122l-78 -111l184 -291q29 -46 54.5 -70.5t40 -30t37.5 -8.5z" />
    <glyph glyph-name="Y" unicode="Y" horiz-adv-x="621" 
d="M435 13v-15q-44 2 -117 2t-117 -2v15q34 6 42 30.5t8 110.5v87l-181 354q-34 67 -52.5 92.5t-35.5 26.5v15q42 -2 125 -2q80 0 124 2v-15q-24 -5 -35 -13t-11 -25q0 -25 28 -84l138 -292l120 255q34 72 34 106q0 44 -46 53v15q44 -2 102 -2q37 0 79 2v-15
q-27 -9 -50 -35.5t-38 -54t-45 -91.5l-122 -255v-124q0 -86 8 -110.5t42 -30.5z" />
    <glyph glyph-name="Z" unicode="Z" horiz-adv-x="666" 
d="M619 200h15q1 -9 1 -29q0 -18 -3 -68.5t-3 -73.5q0 -21 1 -32q-74 3 -361 3q-168 0 -262 -2v15l455 678h-77q-58 0 -87 -0.5t-67.5 -2.5t-55 -5.5t-38.5 -10.5t-30.5 -17t-19.5 -26t-15.5 -35.5t-8.5 -47.5h-15q-1 21 -1 72q0 23 2.5 65t2.5 46q49 -2 332 -2q217 0 250 2
v-15l-456 -679h72h73.5t62 1.5t55 3.5t45 6t39 10t29.5 15.5t25.5 21t17.5 27.5t14 35.5t8 44.5z" />
    <glyph glyph-name="bracketleft" unicode="[" horiz-adv-x="290" 
d="M261 -116h-190v883h189v-28h-69v-828h70v-27z" />
    <glyph glyph-name="backslash" unicode="\" horiz-adv-x="453" 
d="M88 767l337 -813h-61l-337 813h61z" />
    <glyph glyph-name="bracketright" unicode="]" horiz-adv-x="290" 
d="M219 -116h-190v27h70v828h-69v28h189v-883z" />
    <glyph glyph-name="asciicircum" unicode="^" horiz-adv-x="488" 
d="M438 370h-47l-147 218l-147 -218h-47l171 280h46z" />
    <glyph glyph-name="underscore" unicode="_" horiz-adv-x="491" 
d="M441 25v-50q-39 1 -196 1t-195 -1v50q76 -2 195 -2q118 0 196 2z" />
    <glyph glyph-name="grave" unicode="`" horiz-adv-x="286" 
d="M236 540l-21 -19l-165 121l52 53z" />
    <glyph glyph-name="a" unicode="a" 
d="M462 55l8 -13q-37 -52 -93 -52q-57 0 -74 48q-63 -48 -136 -48q-61 0 -103.5 30.5t-42.5 83.5q0 60 52.5 95t127.5 35q56 0 95 -19v119q0 67 -17.5 93t-50.5 26q-37 0 -52.5 -30t-15.5 -97h-121q8 58 39.5 94t70 48t86.5 12q86 0 135.5 -43t49.5 -129v-201q0 -33 5.5 -45
t18.5 -12q8 0 18 5zM296 88v101q-30 14 -67 14q-77 0 -77 -82q0 -45 20 -66t52 -21q39 0 73 29q-1 8 -1 25z" />
    <glyph glyph-name="b" unicode="b" horiz-adv-x="553" 
d="M48 17l-7 9q15 15 17.5 35.5t2.5 105.5v459q0 50 -5 67t-26 23v15q88 0 155 31v-314q51 32 113 32q99 0 164.5 -65t65.5 -173q0 -101 -72 -174.5t-181 -73.5q-43 0 -94.5 17t-80.5 17q-26 0 -52 -11zM185 419v-268q0 -74 19 -102t71 -28q64 0 89.5 57t25.5 164
q0 205 -125 205q-41 0 -80 -28z" />
    <glyph glyph-name="c" unicode="c" horiz-adv-x="473" 
d="M437 105l10 -11q-68 -104 -178 -104q-103 0 -173.5 67.5t-70.5 175.5q0 115 73.5 181t166.5 66q79 0 129 -33t62 -100h-121q-1 57 -16 81.5t-54 24.5q-56 0 -86 -51t-30 -141q0 -96 46.5 -151t119.5 -55q76 0 122 50z" />
    <glyph glyph-name="d" unicode="d" horiz-adv-x="550" 
d="M526 59l8 -13q-37 -52 -91 -52q-55 0 -74 43q-51 -43 -116 -43q-97 0 -162.5 66.5t-65.5 173.5q0 105 70.5 175.5t172.5 70.5q55 0 92 -26v172q0 50 -5 67t-26 23v15q88 0 155 31v-651q0 -33 5 -45t18 -12q9 0 19 5zM360 92v319q-20 38 -84 38q-59 0 -86 -49.5
t-27 -165.5q0 -99 31 -150.5t89 -51.5q49 0 79 29q-2 18 -2 31z" />
    <glyph glyph-name="e" unicode="e" horiz-adv-x="483" 
d="M448 116l9 -13q-73 -113 -189 -113q-100 0 -171.5 67t-71.5 177q0 111 71.5 178.5t164.5 67.5q84 0 142 -47.5t58 -151.5h-312v-12q0 -96 46.5 -155t119.5 -59q69 0 133 61zM152 313h186q0 140 -80 140q-42 0 -70 -40t-36 -100z" />
    <glyph glyph-name="f" unicode="f" horiz-adv-x="300" 
d="M243 13v-15q-44 2 -105 2t-105 -2v15q25 5 34 20t9 71v299h-59v13l59 59q0 96 7 145.5t30 85.5q18 28 49 44.5t64 16.5q70 0 96 -70l-78 -61q-22 38 -39 56t-38 18q-35 0 -35 -52q0 -26 17 -49.5t34 -52t17 -65.5v-16h94v-72h-94v-299q0 -56 9 -71t34 -20z" />
    <glyph glyph-name="g" unicode="g" horiz-adv-x="521" 
d="M537 443l-41 -82q-30 46 -62 46q-4 0 -12 -2q34 -44 34 -97q0 -77 -61.5 -120t-149.5 -43q-23 0 -34 1q-35 -11 -35 -54q0 -27 19.5 -42t76.5 -18q34 -2 56 -4.5t56 -10t54 -19.5t35.5 -35t15.5 -54q0 -58 -60 -96t-183 -38q-112 0 -179 32.5t-67 94.5q0 84 120 118
q-67 25 -67 72q0 30 24.5 48t61.5 24q-105 43 -105 144q0 77 62.5 124.5t148.5 47.5q89 0 151 -50q38 44 71 44q32 0 70 -31zM237 3h-11q-100 -3 -100 -95q0 -54 32.5 -81.5t87.5 -27.5q50 0 79 26.5t29 79.5q0 52 -33 75t-84 23zM245 169q42 0 58.5 33.5t16.5 105.5
q0 74 -17 111t-58 37t-58 -37t-17 -111q0 -72 16.5 -105.5t58.5 -33.5z" />
    <glyph glyph-name="h" unicode="h" horiz-adv-x="554" 
d="M538 13v-15q-44 2 -105 2t-105 -2v15q25 5 34 20t9 71v213q0 63 -22.5 91.5t-67.5 28.5q-50 0 -93 -45v-288q0 -56 9 -71t34 -20v-15q-44 2 -105 2t-105 -2v15q25 5 34 20t9 71v522q0 50 -5 67t-26 23v15q88 0 155 31v-339q68 57 149 57q30 0 54.5 -6t49.5 -21.5
t39.5 -50t14.5 -85.5v-213q0 -56 9 -71t34 -20z" />
    <glyph glyph-name="i" unicode="i" horiz-adv-x="258" 
d="M237 13v-15q-44 2 -105 2t-105 -2v15q25 5 34 20t9 71v240q0 50 -5 67t-26 23v15q88 0 155 31v-376q0 -56 9 -71t34 -20zM197 579q0 -26 -18.5 -43.5t-46.5 -17.5q-26 0 -43.5 18t-17.5 43q0 28 17.5 46.5t43.5 18.5q28 0 46.5 -18t18.5 -47z" />
    <glyph glyph-name="j" unicode="j" horiz-adv-x="245" 
d="M24 -225l-8 13q33 26 39.5 65.5t6.5 169.5v321q0 50 -5 67t-26 23v15q88 0 155 31v-517q0 -60 -46 -110t-116 -78zM189 579q0 -26 -18.5 -43.5t-46.5 -17.5q-26 0 -43.5 18t-17.5 43q0 28 17.5 46.5t43.5 18.5q28 0 46.5 -18t18.5 -47z" />
    <glyph glyph-name="k" unicode="k" horiz-adv-x="493" 
d="M511 13v-15q-52 2 -91 2q-45 0 -99 -2v15q19 3 19 13q0 8 -29 53l-123 183v-158q0 -56 9 -71t34 -20v-15q-44 2 -105 2t-105 -2v15q25 5 34 20t9 71v522q0 50 -5 67t-26 23v15q88 0 155 31v-485q131 120 131 150q0 29 -33 35v15q46 -2 94 -2q41 0 89 2v-16
q-41 -12 -81.5 -41t-100.5 -89l87 -135q71 -111 95 -143t42 -40z" />
    <glyph glyph-name="l" unicode="l" horiz-adv-x="262" 
d="M236 13v-15q-44 2 -105 2t-105 -2v15q25 5 34 20t9 71v522q0 50 -5 67t-26 23v15q88 0 155 31v-658q0 -56 9 -71t34 -20z" />
    <glyph glyph-name="m" unicode="m" horiz-adv-x="845" 
d="M829 13v-15q-44 2 -105 2t-105 -2v15q25 5 34 20t9 71v213q0 66 -18 93t-67 27q-51 0 -98 -41q12 -31 12 -79v-213q0 -56 9 -71t34 -20v-15q-44 2 -105 2t-105 -2v15q25 5 34 20t9 71v213q0 66 -17 93t-62 27q-51 0 -94 -45v-288q0 -56 9 -71t34 -20v-15q-44 2 -105 2
t-105 -2v15q25 5 34 20t9 71v240q0 50 -5 67t-26 23v15q88 0 155 31v-57q69 57 150 57q90 0 125 -62q76 62 165 62q152 0 152 -163v-213q0 -56 9 -71t34 -20z" />
    <glyph glyph-name="n" unicode="n" horiz-adv-x="559" 
d="M544 13v-15q-44 2 -105 2t-105 -2v15q25 5 34 20t9 71v213q0 63 -22.5 91.5t-67.5 28.5q-50 0 -93 -45v-288q0 -56 9 -71t34 -20v-15q-44 2 -105 2t-105 -2v15q25 5 34 20t9 71v240q0 50 -5 67t-26 23v15q88 0 155 31v-57q68 57 149 57q30 0 54.5 -6t49.5 -21.5t39.5 -50
t14.5 -85.5v-213q0 -56 9 -71t34 -20z" />
    <glyph glyph-name="o" unicode="o" horiz-adv-x="552" 
d="M528 234q0 -105 -76 -172.5t-176 -67.5t-176 67.5t-76 172.5q0 109 75.5 177.5t176.5 68.5t176.5 -68.5t75.5 -177.5zM276 21q66 0 90 51.5t24 161.5q0 115 -24 167t-90 52t-90 -52t-24 -167q0 -110 24 -161.5t90 -51.5z" />
    <glyph glyph-name="p" unicode="p" horiz-adv-x="555" 
d="M229 -212v-15q-44 2 -105 2t-105 -2v15q25 5 34 20t9 71v465q0 50 -5 67t-26 23v15q88 0 155 31v-44q53 44 117 44q99 0 162.5 -66t63.5 -174q0 -104 -68 -175t-173 -71q-60 0 -102 29v-144q0 -56 9 -71t34 -20zM186 405v-341q12 -16 37.5 -27.5t56.5 -11.5q57 0 84 52.5
t27 162.5q0 105 -26 156t-83 51t-96 -42z" />
    <glyph glyph-name="q" unicode="q" horiz-adv-x="559" 
d="M541 -212v-15q-44 2 -105 2t-105 -2v15q25 5 34 20t9 71v146q-52 -31 -113 -31q-100 0 -167.5 63.5t-67.5 174.5q0 112 70.5 180t187.5 68q30 0 80.5 -9t84.5 -9q41 0 62 9l7 -14q-15 -15 -17.5 -36t-2.5 -105v-437q0 -56 9 -71t34 -20zM374 54v248q0 83 -19.5 117
t-70.5 34q-120 0 -120 -221q0 -114 30.5 -159.5t88.5 -45.5q52 0 91 27z" />
    <glyph glyph-name="r" unicode="r" horiz-adv-x="422" 
d="M237 13v-15q-44 2 -105 2t-105 -2v15q25 5 34 20t9 71v240q0 50 -5 67t-26 23v15q88 0 155 31v-82q48 48 73.5 65t57.5 17q40 0 65.5 -33t25.5 -107h-121q0 58 -43 58q-30 0 -58 -32v-262q0 -56 9 -71t34 -20z" />
    <glyph glyph-name="s" unicode="s" horiz-adv-x="391" 
d="M334 345h-15q-30 108 -118 108q-30 0 -48 -16.5t-18 -46.5q0 -31 23 -51t56 -33t66.5 -29t56.5 -49t23 -83q0 -61 -47 -106t-131 -45q-25 0 -58 7.5t-48 7.5q-19 0 -34 -5q3 14 5 75.5t7 83.5h15q0 -61 31.5 -101.5t81.5 -40.5q33 0 52 19.5t19 54.5t-22 59t-54 38.5
t-64 30t-54 45t-22 73.5q0 62 43.5 100.5t119.5 38.5q28 0 65 -6t52 -6q12 0 18 1q-3 -15 -3 -38q0 -22 2 -86z" />
    <glyph glyph-name="t" unicode="t" horiz-adv-x="316" 
d="M305 96l12 -9q-27 -93 -114 -93q-65 0 -102.5 34.5t-37.5 104.5v276h-49v15q118 69 155 212l25 -5q-7 -56 -7 -156h30q23 0 34.5 1t26.5 6t25 16l10 -12q-28 -42 -46 -77h-80v-255q0 -56 14 -80.5t46 -24.5q34 0 58 47z" />
    <glyph glyph-name="u" unicode="u" horiz-adv-x="553" 
d="M546 76l8 -13q-44 -69 -105 -69q-70 0 -90 53q-50 -53 -136 -53q-25 0 -45 2.5t-44 12t-40 26t-27 48t-11 73.5v188q0 50 -5 67t-26 23v15q88 0 155 31v-333q0 -61 24 -85.5t68 -24.5q50 0 81 33q-1 7 -1 22v252q0 50 -5 67t-26 23v15q88 0 155 31v-369q0 -57 31 -57
q19 0 39 22z" />
    <glyph glyph-name="v" unicode="v" horiz-adv-x="443" 
d="M235 -16h-21l-153 367q-25 61 -39 85t-30 25v15q4 0 30.5 -0.5t47.5 -0.5q22 0 65 0.5t47 0.5v-15q-20 -7 -20 -31q0 -22 25 -81l79 -187q78 193 78 243t-41 56v15q3 0 28 -0.5t51 -0.5q19 0 41 0.5t27 0.5v-15q-15 -3 -29.5 -30.5t-43.5 -98.5z" />
    <glyph glyph-name="w" unicode="w" horiz-adv-x="655" 
d="M452 -16h-27l-104 295l-102 -295h-27l-130 367q-23 66 -34.5 84.5t-34.5 25.5v15q4 0 30.5 -0.5t47.5 -0.5q22 0 75 0.5t57 0.5v-15q-32 -8 -32 -40q0 -19 17 -72l57 -173l104 309h25l104 -309l56 166q16 46 16 75q0 37 -33 44v15q3 0 28 -0.5t51 -0.5q19 0 41 0.5
t27 0.5v-15q-49 -11 -102 -161z" />
    <glyph glyph-name="x" unicode="x" horiz-adv-x="490" 
d="M498 13v-15q-2 0 -38.5 1t-67.5 1t-72.5 -1t-44.5 -1v15q21 6 21 23q0 15 -22 50l-56 87l-60 -77q-25 -32 -25 -52t26 -30v-15q-3 0 -44 0.5t-67 0.5q-19 0 -37.5 -0.5t-23.5 -0.5v15q18 5 31.5 11t39.5 24t61.5 56.5t79.5 97.5l-120 189q-40 63 -78 70v15q2 0 38.5 -1
t67.5 -1t72.5 1t44.5 1v-15q-21 -6 -21 -23q0 -15 22 -50l55 -88l62 78q25 32 25 52q0 23 -36 30v15q5 0 33 -0.5t47 -0.5q15 0 44 0.5t34 0.5v-15q-36 -16 -73 -51t-116 -139l120 -188q40 -63 78 -70z" />
    <glyph glyph-name="y" unicode="y" horiz-adv-x="483" 
d="M291 -211v-15q-4 0 -38 0.5t-58 0.5q-23 0 -58 -0.5t-39 -0.5v15q39 10 69 45t63 122l-165 395q-23 55 -38 78t-35 32v15q4 0 32.5 -0.5t49.5 -0.5q22 0 80.5 0.5t62.5 0.5v-15q-33 -7 -33 -38q0 -23 22 -74l89 -211l29 82q43 121 43 172q0 53 -45 69v15q7 0 45 -0.5
t45 -0.5q38 0 57.5 0.5t20.5 0.5v-15q-45 -20 -86 -140l-125 -356q-31 -86 -31 -124q0 -45 43 -52z" />
    <glyph glyph-name="z" unicode="z" horiz-adv-x="452" 
d="M408 139h15q1 -9 1 -29q0 -9 -1 -39.5t-1 -41.5q0 -20 1 -31q-47 2 -195 2q-144 0 -209 -2v19q48 72 127.5 209t119.5 215h-69q-66 0 -95 -16.5t-54 -87.5h-15q4 59 4 140q100 -2 247 -2q78 0 138 2v-23q-87 -129 -251 -420h83q31 0 47.5 1t37 6.5t31.5 16.5t21.5 31
t16.5 50z" />
    <glyph glyph-name="braceleft" unicode="{" horiz-adv-x="304" 
d="M278 -106v-10q-109 4 -149 35t-40 104v179q0 70 -13.5 96.5t-63.5 28.5v10q50 2 63.5 28.5t13.5 96.5v164q0 73 40 104t149 35v-10q-41 -7 -55 -31t-14 -87v-195q0 -48 -20 -72.5t-71 -37.5q51 -13 71 -37.5t20 -72.5v-210q0 -63 14 -87t55 -31z" />
    <glyph glyph-name="bar" unicode="|" horiz-adv-x="198" 
d="M129 -225h-60q1 89 1 492q0 407 -1 495h60q-2 -176 -2 -495q0 -314 2 -492z" />
    <glyph glyph-name="braceright" unicode="}" horiz-adv-x="304" 
d="M26 -116v10q41 7 55 31t14 87v210q0 48 20 72.5t71 37.5q-51 13 -71 37.5t-20 72.5v195q0 63 -14 87t-55 31v10q109 -4 149 -35t40 -104v-164q0 -70 13.5 -96.5t63.5 -28.5v-10q-50 -2 -63.5 -28.5t-13.5 -96.5v-179q0 -73 -40 -104t-149 -35z" />
    <glyph glyph-name="asciitilde" unicode="~" horiz-adv-x="507" 
d="M468 648l20 -10q-3 -20 -11 -41.5t-22.5 -47t-40.5 -41.5t-59 -16q-34 0 -105.5 34.5t-109.5 34.5q-37 0 -58.5 -15t-34.5 -54l-20 10q10 57 46.5 98.5t87.5 41.5q38 0 112 -34.5t107 -34.5q65 0 88 75z" />
    <glyph glyph-name="nbspace" unicode="&#xa0;" horiz-adv-x="250" 
 />
    <glyph glyph-name="exclamdown" unicode="&#xa1;" horiz-adv-x="229" 
d="M102 350h27q0 -31 28 -225.5t28 -256.5q0 -34 -17 -57t-54 -23q-38 0 -55 23t-17 57q0 62 30 256.5t30 225.5zM118 424q-21 0 -35 14t-14 35q0 18 14 31t35 13q17 0 30.5 -13.5t13.5 -30.5q0 -21 -13 -35t-31 -14z" />
    <glyph glyph-name="cent" unicode="&#xa2;" horiz-adv-x="574" 
d="M326 0h-30v83q-111 8 -185.5 84.5t-74.5 195.5q0 126 78.5 201t181.5 82v79h30v-78q181 -6 207 -153h-139q-1 60 -16 88.5t-52 32.5v-453q17 -5 45 -5q87 0 140 58l12 -13q-77 -117 -197 -120v-82zM296 172v442q-56 -8 -86.5 -66t-30.5 -153q0 -84 31.5 -141.5
t85.5 -81.5z" />
    <glyph glyph-name="sterling" unicode="&#xa3;" horiz-adv-x="510" 
d="M454 151h15q-4 -136 -4 -153q-62 2 -307 2q-73 0 -117 -2v15q34 6 42 30.5t8 110.5v188h-51v42h51v104q0 141 50 209t139 68q77 0 123 -37t58 -106h-121q0 53 -23 85t-54 32q-23 0 -38.5 -13.5t-15.5 -37.5q0 -14 8 -76t8 -94v-134h157v-42h-157v-302q43 -4 76 -4
q29 0 44.5 1.5t35.5 7t31.5 18t22.5 34t19 54.5z" />
    <glyph glyph-name="currency" unicode="&#xa4;" horiz-adv-x="624" 
d="M542 95l-46 -39q-48 59 -69 82q-53 -25 -115 -25t-115 25q-21 -23 -69 -82l-46 39l66 74q-91 73 -91 199q0 121 86 194l-61 70l46 39q33 -43 63 -77q55 29 121 29t121 -29q30 34 63 77l46 -39l-61 -70q86 -73 86 -194q0 -126 -91 -199zM312 186q75 0 125.5 51t50.5 131
q0 79 -51 130.5t-125 51.5t-125 -51.5t-51 -130.5q0 -80 50.5 -131t125.5 -51z" />
    <glyph glyph-name="yen" unicode="&#xa5;" horiz-adv-x="735" 
d="M489 13v-15q-44 2 -117 2t-117 -2v15q34 6 42 30.5t8 110.5v6q-208 0 -234 -1v50q50 -2 234 -2v34l-38 73q-49 0 -121 -0.5t-75 -0.5v50q38 -2 172 -2l-119 234q-34 67 -52.5 92.5t-35.5 26.5v15q42 -2 125 -2q80 0 124 2v-15q-24 -5 -35 -13t-11 -25q0 -25 28 -84
l138 -292l120 255q34 72 34 106q0 44 -46 53v15q44 -2 102 -2q37 0 79 2v-15q-27 -9 -50 -35.5t-38 -54t-45 -91.5l-83 -172q148 0 192 2v-50q-24 1 -214 1l-17 -36v-71q179 0 231 2v-50q-27 1 -231 1v-6q0 -86 8 -110.5t42 -30.5z" />
    <glyph glyph-name="brokenbar" unicode="&#xa6;" horiz-adv-x="213" 
d="M142 -225h-70q1 79 1 433h67q0 -279 2 -433zM140 355h-67q0 334 -1 407h70q-2 -140 -2 -407z" />
    <glyph glyph-name="section" unicode="&#xa7;" horiz-adv-x="455" 
d="M58 158h11q6 -61 34 -102t83 -41q42 0 66 25t24 65q0 36 -23 62t-56 43.5t-66.5 36.5t-56.5 51t-23 76q0 46 24 83t65 54q-27 33 -27 82q0 63 43 105.5t109 42.5q24 0 49.5 -5.5t36.5 -5.5q20 0 43 11q-2 -62 -2 -80q0 -34 1 -65h-11q-16 66 -44 94.5t-73 28.5
q-36 0 -58.5 -21.5t-22.5 -57.5t23.5 -61t57 -41.5t66.5 -34.5t56.5 -50.5t23.5 -78.5q0 -106 -81 -146q19 -30 19 -72q0 -71 -41.5 -117t-121.5 -46q-26 0 -58 6.5t-46 6.5q-17 0 -30 -4q2 26 2 35q0 13 -1.5 38t-1.5 30q0 34 7 53zM160 490q-37 -21 -37 -69
q0 -33 20.5 -57.5t47.5 -37.5t62.5 -32.5t55.5 -39.5q28 25 28 70q0 41 -28 67.5t-78 53t-71 45.5z" />
    <glyph glyph-name="dieresis" unicode="&#xa8;" horiz-adv-x="322" 
d="M135 572q0 -17 -13 -29.5t-30 -12.5t-29.5 12.5t-12.5 29.5q0 16 12.5 29t29.5 13t30 -13t13 -29zM272 572q0 -17 -13 -29.5t-30 -12.5t-29.5 12.5t-12.5 29.5q0 16 12.5 29t29.5 13t30 -13t13 -29z" />
    <glyph glyph-name="copyright" unicode="&#xa9;" horiz-adv-x="896" 
d="M857 367q0 -172 -117.5 -285.5t-291.5 -113.5t-291.5 113.5t-117.5 285.5t117.5 286t291.5 114t291.5 -114t117.5 -286zM802 367q0 146 -102 250.5t-252 104.5t-252 -104.5t-102 -250.5t102 -250t252 -104t252 104t102 250zM615 271l11 -3q-6 -52 -6 -125
q-78 -32 -159 -32q-119 0 -194 77t-75 181q0 105 71.5 181.5t203.5 76.5q24 0 54 -3t59 -7t40 -5q-2 -42 -2 -77q0 -27 2 -65h-11q-39 135 -142 135q-72 0 -122.5 -64t-50.5 -172q0 -111 48 -173.5t119 -62.5q51 0 93 41.5t61 96.5z" />
    <glyph glyph-name="ordfeminine" unicode="&#xaa;" horiz-adv-x="434" 
d="M388 368l6 -10q-28 -40 -70 -40q-45 0 -58 37q-50 -37 -106 -37q-52 0 -82.5 27.5t-30.5 72.5q0 46 39 77.5t100 31.5q42 0 74 -15v72q0 52 -13.5 71.5t-39.5 19.5q-29 0 -40.5 -23t-11.5 -75h-94q8 63 50 91t96 28q149 0 149 -132v-155q0 -26 4 -35t13 -9q7 0 15 3z
M382 203h-320v50h320v-50zM260 394v98q-24 11 -52 11q-27 0 -43 -19.5t-16 -54.5t16 -56t40 -21q30 0 56 23q0 3 -0.5 9t-0.5 10z" />
    <glyph glyph-name="guillemotleft" unicode="&#xab;" horiz-adv-x="421" 
d="M209 89l-191 137v26l191 137v-37l-119 -113l119 -113v-37zM371 89l-191 137v26l191 137v-37l-119 -113l119 -113v-37z" />
    <glyph glyph-name="logicalnot" unicode="&#xac;" horiz-adv-x="525" 
d="M463 116h-58q1 36 1 156q-38 1 -154 1q-153 0 -191 -1v60q76 -2 191 -2q131 0 209 2q0 -140 2 -216z" />
    <glyph glyph-name="uni00AD" unicode="&#xad;" horiz-adv-x="329" 
d="M279 331v-60q-33 1 -115 1q-81 0 -114 -1v60q66 -2 114 -2q49 0 115 2z" />
    <glyph glyph-name="registered" unicode="&#xae;" horiz-adv-x="896" 
d="M857 367q0 -172 -117.5 -285.5t-291.5 -113.5t-291.5 113.5t-117.5 285.5t117.5 286t291.5 114t291.5 -114t117.5 -286zM802 367q0 146 -102 250.5t-252 104.5t-252 -104.5t-102 -250.5t102 -250t252 -104t252 104t102 250zM652 141v-14q-13 -3 -30 -3q-61 0 -87 24
q-9 8 -17 18.5t-19.5 29.5t-20 34t-28 51.5t-33.5 63.5h-22v-114q0 -59 5 -75t28 -20v-10q-6 0 -35.5 0.5t-43.5 0.5q-13 0 -42.5 -0.5t-35.5 -0.5v10q23 4 28 20t5 75v283q0 59 -5 75t-28 20v10q6 0 35.5 -0.5t42.5 -0.5q21 0 50 0.5t37 0.5q87 0 132 -36.5t45 -100.5
q0 -86 -105 -122q28 -61 75 -136.5t69 -82.5zM395 363h30q49 0 69.5 28t20.5 91q0 117 -89 117q-19 0 -31 -6v-230z" />
    <glyph glyph-name="macron" unicode="&#xaf;" horiz-adv-x="403" 
d="M353 610v-60q-46 1 -152 1t-151 -1v60q90 -2 151 -2q60 0 152 2z" />
    <glyph glyph-name="degree" unicode="&#xb0;" horiz-adv-x="318" 
d="M295 574q0 -54 -38 -92.5t-98 -38.5t-98 38.5t-38 92.5t38 92.5t98 38.5t98 -38.5t38 -92.5zM159 490q37 0 58 23.5t21 60.5t-21 60.5t-58 23.5t-58 -23.5t-21 -60.5t21 -60.5t58 -23.5z" />
    <glyph glyph-name="plusminus" unicode="&#xb1;" horiz-adv-x="521" 
d="M290 145h-60q1 36 1 172q-136 0 -171 -1v60q72 -2 171 -2q0 136 -1 172h60q-2 -72 -2 -172q99 0 173 2v-60q-37 1 -173 1q0 -100 2 -172zM461 116v-60q-39 1 -201 1t-200 -1v60q76 -2 200 -2q123 0 201 2z" />
    <glyph glyph-name="acute" unicode="&#xb4;" horiz-adv-x="286" 
d="M184 695l52 -53l-165 -121l-21 19z" />
    <glyph glyph-name="mu" unicode="&#xb5;" horiz-adv-x="618" 
d="M579 76l8 -13q-44 -69 -105 -69q-70 0 -90 53q-50 -53 -136 -53q-25 0 -48 6q0 -10 3 -65.5t3 -80.5q0 -39 -20 -59.5t-47 -20.5q-29 0 -48.5 20t-19.5 60q0 18 2.5 69t5 159t2.5 262q0 50 -5 67t-26 23v15q88 0 155 31v-333q0 -61 24 -85.5t68 -24.5q50 0 81 33
q-1 7 -1 22v252q0 50 -5 67t-26 23v15q88 0 155 31v-369q0 -57 31 -57q19 0 39 22z" />
    <glyph glyph-name="paragraph" unicode="&#xb6;" horiz-adv-x="818" 
d="M746 10v-11q-42 2 -93 2q-47 0 -91 -2v11q18 3 24 4.5t14 10t10 24.5t2 46v457q0 57 -10.5 76t-35.5 19q-26 0 -36.5 -19.5t-10.5 -75.5v-582q0 -39 6 -56.5t13.5 -21t30.5 -7.5v-11q-44 2 -117 2q-75 0 -117 -2v11q18 3 24 4.5t14 10t10 24.5t2 46v668q-33 10 -70 10
q-66 0 -103 -45.5t-37 -135.5q0 -74 27 -120t87 -46q36 0 61 14l6 -17q-34 -24 -94 -24q-110 0 -169.5 56.5t-59.5 139.5q0 92 68.5 151.5t214.5 59.5q1 0 112 -1t225 -1q51 0 93 2v-11q-21 -3 -30 -8.5t-14.5 -24.5t-5.5 -58v-484q0 -39 6 -56.5t13.5 -21t30.5 -7.5z" />
    <glyph glyph-name="periodcentered" unicode="&#xb7;" horiz-adv-x="188" 
d="M141 363q0 -18 -14 -31.5t-35 -13.5q-18 0 -31.5 13.5t-13.5 31.5q0 21 13.5 35t31.5 14q21 0 35 -14t14 -35z" />
    <glyph glyph-name="cedilla" unicode="&#xb8;" horiz-adv-x="276" 
d="M60 -135h6q15 -30 52 -30q48 0 48 42q0 43 -39 43q-26 0 -42 -19h-15l49 104h26l-21 -57q16 4 27 4q32 0 53.5 -17t21.5 -52q0 -38 -27 -58t-60 -20q-35 0 -56.5 15.5t-22.5 44.5z" />
    <glyph glyph-name="ordmasculine" unicode="&#xba;" horiz-adv-x="470" 
d="M392 203h-320v50h320v-50zM431 506q0 -82 -59 -134.5t-137 -52.5t-136.5 52.5t-58.5 134.5q0 84 58.5 137t136.5 53q79 0 137.5 -53t58.5 -137zM235 340q51 0 70 40t19 126q0 89 -19 129t-70 40t-69.5 -40t-18.5 -129q0 -86 18.5 -126t69.5 -40z" />
    <glyph glyph-name="guillemotright" unicode="&#xbb;" horiz-adv-x="421" 
d="M403 226l-191 -137v37l119 113l-119 113v37l191 -137v-26zM241 226l-191 -137v37l119 113l-119 113v37l191 -137v-26z" />
    <glyph glyph-name="questiondown" unicode="&#xbf;" horiz-adv-x="491" 
d="M251 358h27q0 -50 -13 -91.5t-32 -70.5t-38 -57t-32 -65t-13 -80q0 -72 36 -107.5t97 -35.5q65 0 98.5 33t33.5 78q0 39 -27.5 67t-75.5 28q-22 0 -42 -4q26 31 30 71q81 -15 122 -61t41 -108q0 -74 -53 -125t-143 -51q-98 0 -165 51t-67 139q0 45 16 82.5t40 62.5
t52 52.5t52 51.5t40 60.5t16 79.5zM267 422q-21 0 -35 14t-14 35q0 18 14 31t35 13q17 0 30.5 -13.5t13.5 -30.5q0 -21 -13 -35t-31 -14z" />
    <glyph glyph-name="Agrave" unicode="&#xc0;" horiz-adv-x="618" 
d="M611 13v-15q-42 2 -109 2q-89 0 -133 -2v15q42 8 42 42q0 24 -18 80l-32 96q-37 1 -110 1t-100 -1l-12 -31q-33 -85 -33 -130q0 -49 37 -57v-15q-44 2 -102 2q-37 0 -79 -2v15q42 14 71 57.5t71 153.5l202 518h33l197 -610q32 -98 75 -119zM347 274l-83 255l-97 -255
q21 -1 84 -1q64 0 96 1zM357 792l-21 -19l-165 121l52 53z" />
    <glyph glyph-name="Aacute" unicode="&#xc1;" horiz-adv-x="618" 
d="M611 13v-15q-42 2 -109 2q-89 0 -133 -2v15q42 8 42 42q0 24 -18 80l-32 96q-37 1 -110 1t-100 -1l-12 -31q-33 -85 -33 -130q0 -49 37 -57v-15q-44 2 -102 2q-37 0 -79 -2v15q42 14 71 57.5t71 153.5l202 518h33l197 -610q32 -98 75 -119zM347 274l-83 255l-97 -255
q21 -1 84 -1q64 0 96 1zM384 947l52 -53l-165 -121l-21 19z" />
    <glyph glyph-name="Acircumflex" unicode="&#xc2;" horiz-adv-x="618" 
d="M611 13v-15q-42 2 -109 2q-89 0 -133 -2v15q42 8 42 42q0 24 -18 80l-32 96q-37 1 -110 1t-100 -1l-12 -31q-33 -85 -33 -130q0 -49 37 -57v-15q-44 2 -102 2q-37 0 -79 -2v15q42 14 71 57.5t71 153.5l202 518h33l197 -610q32 -98 75 -119zM347 274l-83 255l-97 -255
q21 -1 84 -1q64 0 96 1zM483 782h-37l-124 115l-124 -115h-37l138 177h46z" />
    <glyph glyph-name="Atilde" unicode="&#xc3;" horiz-adv-x="618" 
d="M611 13v-15q-42 2 -109 2q-89 0 -133 -2v15q42 8 42 42q0 24 -18 80l-32 96q-37 1 -110 1t-100 -1l-12 -31q-33 -85 -33 -130q0 -49 37 -57v-15q-44 2 -102 2q-37 0 -79 -2v15q42 14 71 57.5t71 153.5l202 518h33l197 -610q32 -98 75 -119zM347 274l-83 255l-97 -255
q21 -1 84 -1q64 0 96 1zM471 880h13q-8 -42 -36.5 -74.5t-66.5 -32.5q-25 0 -75.5 23t-73.5 23q-43 0 -55 -46h-14q14 50 43 76.5t62 26.5q24 0 72 -23t72 -23q41 0 59 50z" />
    <glyph glyph-name="Adieresis" unicode="&#xc4;" horiz-adv-x="618" 
d="M611 13v-15q-42 2 -109 2q-89 0 -133 -2v15q42 8 42 42q0 24 -18 80l-32 96q-37 1 -110 1t-100 -1l-12 -31q-33 -85 -33 -130q0 -49 37 -57v-15q-44 2 -102 2q-37 0 -79 -2v15q42 14 71 57.5t71 153.5l202 518h33l197 -610q32 -98 75 -119zM347 274l-83 255l-97 -255
q21 -1 84 -1q64 0 96 1zM295 824q0 -17 -13 -29.5t-30 -12.5t-29.5 12.5t-12.5 29.5q0 16 12.5 29t29.5 13t30 -13t13 -29zM432 824q0 -17 -13 -29.5t-30 -12.5t-29.5 12.5t-12.5 29.5q0 16 12.5 29t29.5 13t30 -13t13 -29z" />
    <glyph glyph-name="Aring" unicode="&#xc5;" horiz-adv-x="618" 
d="M611 13v-15q-42 2 -109 2q-89 0 -133 -2v15q42 8 42 42q0 24 -18 80l-32 96q-37 1 -110 1t-100 -1l-12 -31q-33 -85 -33 -130q0 -49 37 -57v-15q-44 2 -102 2q-37 0 -79 -2v15q42 14 71 57.5t71 153.5l202 518h33l197 -610q32 -98 75 -119zM347 274l-83 255l-97 -255
q21 -1 84 -1q64 0 96 1zM412 849q0 -36 -26.5 -60.5t-64.5 -24.5t-64 24.5t-26 60.5t26 60.5t65 24.5q38 0 64 -24.5t26 -60.5zM321 793q26 0 40 17t14 39q0 23 -13.5 39.5t-39.5 16.5t-39.5 -17t-13.5 -39q0 -23 13 -39.5t39 -16.5z" />
    <glyph glyph-name="AE" unicode="&#xc6;" horiz-adv-x="942" 
d="M882 199h15q-3 -144 -3 -201q-75 2 -356 2q-73 0 -117 -2v15q34 6 42 30.5t8 110.5v117h-99q-78 0 -112 -1l-47 -70q-78 -115 -78 -152q0 -27 31 -35v-15q-44 2 -122 2q-37 0 -79 -2v15q45 15 94 62t119 149l291 421q-2 37 -12.5 50.5t-35.5 18.5v15q44 -2 117 -2
q285 0 360 2q-2 -50 -2 -111q0 -51 1 -72h-15q-15 43 -32.5 71t-32.5 43t-41.5 22t-44.5 8t-58 1q-44 0 -68 -4v-294h59q57 0 88 16t45 70h15q-4 -60 -4 -93q0 -53 4 -101h-15q-10 47 -42 60.5t-91 13.5h-59v-319q24 -4 68 -4q41 0 65 4t53 19t51 49.5t40 90.5zM471 313v273
l-183 -273h183z" />
    <glyph glyph-name="Ccedilla" unicode="&#xc7;" horiz-adv-x="695" 
d="M316 -135h6q15 -30 52 -30q48 0 48 42q0 43 -39 43q-26 0 -42 -19h-15l43 92q-152 16 -245 123t-93 245q0 71 24.5 136t72 118t125 85t174.5 32q36 0 78 -4t85.5 -10.5t57.5 -7.5q-3 -45 -3 -111q0 -39 2 -93h-15q-56 194 -205 194q-104 0 -176.5 -92t-72.5 -247
q0 -160 69 -249.5t171 -89.5q73 0 134.5 59.5t88.5 138.5l15 -5q-8 -74 -8 -179q-112 -46 -230 -46q-4 0 -11.5 0.5t-10.5 0.5l-16 -43q16 4 27 4q32 0 53.5 -17t21.5 -52q0 -38 -27 -58t-60 -20q-35 0 -56.5 15.5t-22.5 44.5z" />
    <glyph glyph-name="Egrave" unicode="&#xc8;" horiz-adv-x="564" 
d="M504 199h15q-3 -144 -3 -201q-75 2 -356 2q-73 0 -117 -2v15q34 6 42 30.5t8 110.5v419q0 86 -8 110.5t-42 30.5v15q44 -2 117 -2q285 0 360 2q-2 -50 -2 -111q0 -51 1 -72h-15q-15 43 -32.5 71t-32.5 43t-41.5 22t-44.5 8t-58 1q-44 0 -68 -4v-294h59q57 0 88 16t45 70
h15q-4 -60 -4 -93q0 -53 4 -101h-15q-10 47 -42 60.5t-91 13.5h-59v-319q24 -4 68 -4q41 0 65 4t53 19t51 49.5t40 90.5zM336 792l-21 -19l-165 121l52 53z" />
    <glyph glyph-name="Eacute" unicode="&#xc9;" horiz-adv-x="564" 
d="M504 199h15q-3 -144 -3 -201q-75 2 -356 2q-73 0 -117 -2v15q34 6 42 30.5t8 110.5v419q0 86 -8 110.5t-42 30.5v15q44 -2 117 -2q285 0 360 2q-2 -50 -2 -111q0 -51 1 -72h-15q-15 43 -32.5 71t-32.5 43t-41.5 22t-44.5 8t-58 1q-44 0 -68 -4v-294h59q57 0 88 16t45 70
h15q-4 -60 -4 -93q0 -53 4 -101h-15q-10 47 -42 60.5t-91 13.5h-59v-319q24 -4 68 -4q41 0 65 4t53 19t51 49.5t40 90.5zM377 947l52 -53l-165 -121l-21 19z" />
    <glyph glyph-name="Ecircumflex" unicode="&#xca;" horiz-adv-x="564" 
d="M504 199h15q-3 -144 -3 -201q-75 2 -356 2q-73 0 -117 -2v15q34 6 42 30.5t8 110.5v419q0 86 -8 110.5t-42 30.5v15q44 -2 117 -2q285 0 360 2q-2 -50 -2 -111q0 -51 1 -72h-15q-15 43 -32.5 71t-32.5 43t-41.5 22t-44.5 8t-58 1q-44 0 -68 -4v-294h59q57 0 88 16t45 70
h15q-4 -60 -4 -93q0 -53 4 -101h-15q-10 47 -42 60.5t-91 13.5h-59v-319q24 -4 68 -4q41 0 65 4t53 19t51 49.5t40 90.5zM458 782h-37l-124 115l-124 -115h-37l138 177h46z" />
    <glyph glyph-name="Edieresis" unicode="&#xcb;" horiz-adv-x="564" 
d="M504 199h15q-3 -144 -3 -201q-75 2 -356 2q-73 0 -117 -2v15q34 6 42 30.5t8 110.5v419q0 86 -8 110.5t-42 30.5v15q44 -2 117 -2q285 0 360 2q-2 -50 -2 -111q0 -51 1 -72h-15q-15 43 -32.5 71t-32.5 43t-41.5 22t-44.5 8t-58 1q-44 0 -68 -4v-294h59q57 0 88 16t45 70
h15q-4 -60 -4 -93q0 -53 4 -101h-15q-10 47 -42 60.5t-91 13.5h-59v-319q24 -4 68 -4q41 0 65 4t53 19t51 49.5t40 90.5zM273 824q0 -17 -13 -29.5t-30 -12.5t-29.5 12.5t-12.5 29.5q0 16 12.5 29t29.5 13t30 -13t13 -29zM410 824q0 -17 -13 -29.5t-30 -12.5t-29.5 12.5
t-12.5 29.5q0 16 12.5 29t29.5 13t30 -13t13 -29z" />
    <glyph glyph-name="Igrave" unicode="&#xcc;" horiz-adv-x="320" 
d="M277 13v-15q-44 2 -117 2t-117 -2v15q34 6 42 30.5t8 110.5v419q0 86 -8 110.5t-42 30.5v15q44 -2 117 -2t117 2v-15q-34 -6 -42 -30.5t-8 -110.5v-419q0 -86 8 -110.5t42 -30.5zM199 792l-21 -19l-165 121l52 53z" />
    <glyph glyph-name="Iacute" unicode="&#xcd;" horiz-adv-x="320" 
d="M277 13v-15q-44 2 -117 2t-117 -2v15q34 6 42 30.5t8 110.5v419q0 86 -8 110.5t-42 30.5v15q44 -2 117 -2t117 2v-15q-34 -6 -42 -30.5t-8 -110.5v-419q0 -86 8 -110.5t42 -30.5zM251 947l52 -53l-165 -121l-21 19z" />
    <glyph glyph-name="Icircumflex" unicode="&#xce;" horiz-adv-x="320" 
d="M277 13v-15q-44 2 -117 2t-117 -2v15q34 6 42 30.5t8 110.5v419q0 86 -8 110.5t-42 30.5v15q44 -2 117 -2t117 2v-15q-34 -6 -42 -30.5t-8 -110.5v-419q0 -86 8 -110.5t42 -30.5zM321 782h-37l-124 115l-124 -115h-37l138 177h46z" />
    <glyph glyph-name="Idieresis" unicode="&#xcf;" horiz-adv-x="320" 
d="M277 13v-15q-44 2 -117 2t-117 -2v15q34 6 42 30.5t8 110.5v419q0 86 -8 110.5t-42 30.5v15q44 -2 117 -2t117 2v-15q-34 -6 -42 -30.5t-8 -110.5v-419q0 -86 8 -110.5t42 -30.5zM134 824q0 -17 -13 -29.5t-30 -12.5t-29.5 12.5t-12.5 29.5q0 16 12.5 29t29.5 13t30 -13
t13 -29zM271 824q0 -17 -13 -29.5t-30 -12.5t-29.5 12.5t-12.5 29.5q0 16 12.5 29t29.5 13t30 -13t13 -29z" />
    <glyph glyph-name="Eth" unicode="&#xd0;" horiz-adv-x="768" 
d="M43 -2v15q34 6 42 30.5t8 110.5v179q-9 0 -24.5 -0.5t-20.5 -0.5v60q11 -1 45 -1v182q0 86 -8 110.5t-42 30.5v15q44 -2 117 -2q25 0 73.5 1t75.5 1q104 0 184 -26.5t124.5 -65.5t72.5 -91t37 -95.5t9 -87.5q0 -157 -104 -261.5t-294 -104.5q-20 0 -82 1.5t-96 1.5
q-73 0 -117 -2zM414 392v-60q-33 1 -187 1v-297q23 -9 89 -9q135 0 202 83t67 253q0 67 -10.5 120t-27 88t-42 60t-48.5 37.5t-54.5 20t-52.5 9t-49 1.5q-50 0 -74 -9v-300q121 0 187 2z" />
    <glyph glyph-name="Ntilde" unicode="&#xd1;" horiz-adv-x="736" 
d="M650 -22h-13q-292 324 -503 528v-203q0 -163 15.5 -220.5t59.5 -69.5v-15q-44 2 -93 2q-37 0 -79 -2v15q38 11 46.5 62.5t8.5 228.5q0 341 -4 438h17q248 -276 497 -528v210q0 166 -15 222t-60 68v15q44 -2 93 -2q37 0 79 2v-15q-39 -11 -47 -61t-8 -230v-241
q0 -121 6 -204zM519 880h13q-8 -42 -36.5 -74.5t-66.5 -32.5q-25 0 -75.5 23t-73.5 23q-43 0 -55 -46h-14q14 50 43 76.5t62 26.5q24 0 72 -23t72 -23q41 0 59 50z" />
    <glyph glyph-name="Ograve" unicode="&#xd2;" horiz-adv-x="802" 
d="M771 359q0 -160 -110.5 -264.5t-259.5 -104.5t-259.5 104.5t-110.5 264.5q0 108 52.5 194.5t136.5 132.5t181 46t181 -46t136.5 -132.5t52.5 -194.5zM401 22q115 0 169 82t54 255q0 175 -54 258t-169 83t-169 -83t-54 -258q0 -173 54 -255t169 -82zM446 792l-21 -19
l-165 121l52 53z" />
    <glyph glyph-name="Oacute" unicode="&#xd3;" horiz-adv-x="802" 
d="M771 359q0 -160 -110.5 -264.5t-259.5 -104.5t-259.5 104.5t-110.5 264.5q0 108 52.5 194.5t136.5 132.5t181 46t181 -46t136.5 -132.5t52.5 -194.5zM401 22q115 0 169 82t54 255q0 175 -54 258t-169 83t-169 -83t-54 -258q0 -173 54 -255t169 -82zM472 947l52 -53
l-165 -121l-21 19z" />
    <glyph glyph-name="Ocircumflex" unicode="&#xd4;" horiz-adv-x="802" 
d="M771 359q0 -160 -110.5 -264.5t-259.5 -104.5t-259.5 104.5t-110.5 264.5q0 108 52.5 194.5t136.5 132.5t181 46t181 -46t136.5 -132.5t52.5 -194.5zM401 22q115 0 169 82t54 255q0 175 -54 258t-169 83t-169 -83t-54 -258q0 -173 54 -255t169 -82zM562 782h-37l-124 115
l-124 -115h-37l138 177h46z" />
    <glyph glyph-name="Otilde" unicode="&#xd5;" horiz-adv-x="802" 
d="M771 359q0 -160 -110.5 -264.5t-259.5 -104.5t-259.5 104.5t-110.5 264.5q0 108 52.5 194.5t136.5 132.5t181 46t181 -46t136.5 -132.5t52.5 -194.5zM401 22q115 0 169 82t54 255q0 175 -54 258t-169 83t-169 -83t-54 -258q0 -173 54 -255t169 -82zM548 880h13
q-8 -42 -36.5 -74.5t-66.5 -32.5q-25 0 -75.5 23t-73.5 23q-43 0 -55 -46h-14q14 50 43 76.5t62 26.5q25 0 72 -23t72 -23q41 0 59 50z" />
    <glyph glyph-name="Odieresis" unicode="&#xd6;" horiz-adv-x="802" 
d="M771 359q0 -160 -110.5 -264.5t-259.5 -104.5t-259.5 104.5t-110.5 264.5q0 108 52.5 194.5t136.5 132.5t181 46t181 -46t136.5 -132.5t52.5 -194.5zM401 22q115 0 169 82t54 255q0 175 -54 258t-169 83t-169 -83t-54 -258q0 -173 54 -255t169 -82zM375 824
q0 -17 -13 -29.5t-30 -12.5t-29.5 12.5t-12.5 29.5q0 16 12.5 29t29.5 13t30 -13t13 -29zM512 824q0 -17 -13 -29.5t-30 -12.5t-29.5 12.5t-12.5 29.5q0 16 12.5 29t29.5 13t30 -13t13 -29z" />
    <glyph glyph-name="multiply" unicode="&#xd7;" horiz-adv-x="441" 
d="M384 181l-42 -43q-56 59 -122 123q-68 -66 -120 -123l-43 43q27 25 123 121q-21 21 -49 48.5t-44.5 44t-28.5 27.5l42 42q50 -52 120 -122q96 96 121 122l42 -42l-123 -120q84 -83 124 -121z" />
    <glyph glyph-name="Oslash" unicode="&#xd8;" horiz-adv-x="802" 
d="M257 -46h-51l30 74q-92 45 -148.5 132t-56.5 199q0 108 52.5 194.5t136.5 132.5t181 46q61 0 119 -20l23 55h51l-30 -73q93 -45 150 -133.5t57 -201.5q0 -160 -110.5 -264.5t-259.5 -104.5q-61 0 -121 20zM545 648l-250 -603q42 -23 106 -23q115 0 169 82t54 255
q0 210 -79 289zM256 74l249 603q-44 23 -104 23q-115 0 -169 -83t-54 -258q0 -207 78 -285z" />
    <glyph glyph-name="Ugrave" unicode="&#xd9;" horiz-adv-x="696" 
d="M568 289v185q0 103 -7.5 151.5t-21.5 64t-46 24.5v15q44 -2 93 -2q37 0 79 2v-15q-40 -12 -47.5 -47.5t-7.5 -193.5v-200q0 -133 -50.5 -208t-176.5 -75q-182 0 -249 85q-50 64 -50 197v301q0 86 -8 110.5t-42 30.5v15q44 -2 117 -2t117 2v-15q-34 -6 -42 -30.5
t-8 -110.5v-297q0 -144 32.5 -196t136.5 -52q98 0 139.5 61.5t41.5 199.5zM432 792l-21 -19l-165 121l52 53z" />
    <glyph glyph-name="Uacute" unicode="&#xda;" horiz-adv-x="696" 
d="M568 289v185q0 103 -7.5 151.5t-21.5 64t-46 24.5v15q44 -2 93 -2q37 0 79 2v-15q-40 -12 -47.5 -47.5t-7.5 -193.5v-200q0 -133 -50.5 -208t-176.5 -75q-182 0 -249 85q-50 64 -50 197v301q0 86 -8 110.5t-42 30.5v15q44 -2 117 -2t117 2v-15q-34 -6 -42 -30.5
t-8 -110.5v-297q0 -144 32.5 -196t136.5 -52q98 0 139.5 61.5t41.5 199.5zM472 947l52 -53l-165 -121l-21 19z" />
    <glyph glyph-name="Ucircumflex" unicode="&#xdb;" horiz-adv-x="696" 
d="M568 289v185q0 103 -7.5 151.5t-21.5 64t-46 24.5v15q44 -2 93 -2q37 0 79 2v-15q-40 -12 -47.5 -47.5t-7.5 -193.5v-200q0 -133 -50.5 -208t-176.5 -75q-182 0 -249 85q-50 64 -50 197v301q0 86 -8 110.5t-42 30.5v15q44 -2 117 -2t117 2v-15q-34 -6 -42 -30.5
t-8 -110.5v-297q0 -144 32.5 -196t136.5 -52q98 0 139.5 61.5t41.5 199.5zM546 782h-37l-124 115l-124 -115h-37l138 177h46z" />
    <glyph glyph-name="Udieresis" unicode="&#xdc;" horiz-adv-x="696" 
d="M568 289v185q0 103 -7.5 151.5t-21.5 64t-46 24.5v15q44 -2 93 -2q37 0 79 2v-15q-40 -12 -47.5 -47.5t-7.5 -193.5v-200q0 -133 -50.5 -208t-176.5 -75q-182 0 -249 85q-50 64 -50 197v301q0 86 -8 110.5t-42 30.5v15q44 -2 117 -2t117 2v-15q-34 -6 -42 -30.5
t-8 -110.5v-297q0 -144 32.5 -196t136.5 -52q98 0 139.5 61.5t41.5 199.5zM361 824q0 -17 -13 -29.5t-30 -12.5t-29.5 12.5t-12.5 29.5q0 16 12.5 29t29.5 13t30 -13t13 -29zM498 824q0 -17 -13 -29.5t-30 -12.5t-29.5 12.5t-12.5 29.5q0 16 12.5 29t29.5 13t30 -13t13 -29z
" />
    <glyph glyph-name="Yacute" unicode="&#xdd;" horiz-adv-x="621" 
d="M435 13v-15q-44 2 -117 2t-117 -2v15q34 6 42 30.5t8 110.5v87l-181 354q-34 67 -52.5 92.5t-35.5 26.5v15q42 -2 125 -2q80 0 124 2v-15q-24 -5 -35 -13t-11 -25q0 -25 28 -84l138 -292l120 255q34 72 34 106q0 44 -46 53v15q44 -2 102 -2q37 0 79 2v-15
q-27 -9 -50 -35.5t-38 -54t-45 -91.5l-122 -255v-124q0 -86 8 -110.5t42 -30.5zM434 947l52 -53l-165 -121l-21 19z" />
    <glyph glyph-name="Thorn" unicode="&#xde;" horiz-adv-x="570" 
d="M276 9v-11q-44 2 -117 2t-117 -2v11q34 6 42 31t8 114v419q0 89 -8 114t-42 31v11q44 -2 117 -2t117 2v-11q-34 -6 -42 -31t-8 -114v-13q28 7 61 7q129 0 203 -59t74 -152q0 -82 -60 -138t-156 -56q-67 0 -104 23l8 13q25 -13 60 -13q107 0 107 171q0 91 -38.5 136
t-107.5 45q-29 0 -47 -9v-374q0 -89 8 -114t42 -31z" />
    <glyph glyph-name="germandbls" unicode="&#xdf;" horiz-adv-x="587" 
d="M243 13v-15q-44 2 -89 2q-77 0 -121 -2v15q25 5 34 20t9 71v299h-59v13l59 59q0 51 12 99.5t37.5 93t72.5 71.5t110 27q76 0 128.5 -33t52.5 -90q0 -35 -16 -65.5t-39.5 -52.5t-46.5 -42t-39 -42t-16 -45q0 -28 25.5 -52t62 -42.5t72.5 -39t61.5 -52t25.5 -71.5
q0 -60 -48 -104.5t-129 -44.5q-66 0 -126 32q2 13 6.5 60t9.5 69h15q-1 -6 -1 -29q0 -50 20.5 -75t71.5 -25q63 0 63 85q0 33 -18 60t-43.5 46.5t-51 41t-43.5 53t-18 71.5q0 31 14.5 61t32 52.5t32 62.5t14.5 88q0 55 -20.5 73t-58.5 18q-50 0 -75.5 -49t-25.5 -173v-408
q0 -56 9 -71t34 -20z" />
    <glyph glyph-name="agrave" unicode="&#xe0;" 
d="M462 55l8 -13q-37 -52 -93 -52q-57 0 -74 48q-63 -48 -136 -48q-61 0 -103.5 30.5t-42.5 83.5q0 60 52.5 95t127.5 35q56 0 95 -19v119q0 67 -17.5 93t-50.5 26q-37 0 -52.5 -30t-15.5 -97h-121q8 58 39.5 94t70 48t86.5 12q86 0 135.5 -43t49.5 -129v-201q0 -33 5.5 -45
t18.5 -12q8 0 18 5zM296 88v101q-30 14 -67 14q-77 0 -77 -82q0 -45 20 -66t52 -21q39 0 73 29q-1 8 -1 25zM306 540l-21 -19l-165 121l52 53z" />
    <glyph glyph-name="aacute" unicode="&#xe1;" 
d="M462 55l8 -13q-37 -52 -93 -52q-57 0 -74 48q-63 -48 -136 -48q-61 0 -103.5 30.5t-42.5 83.5q0 60 52.5 95t127.5 35q56 0 95 -19v119q0 67 -17.5 93t-50.5 26q-37 0 -52.5 -30t-15.5 -97h-121q8 58 39.5 94t70 48t86.5 12q86 0 135.5 -43t49.5 -129v-201q0 -33 5.5 -45
t18.5 -12q8 0 18 5zM296 88v101q-30 14 -67 14q-77 0 -77 -82q0 -45 20 -66t52 -21q39 0 73 29q-1 8 -1 25zM305 695l52 -53l-165 -121l-21 19z" />
    <glyph glyph-name="acircumflex" unicode="&#xe2;" 
d="M462 55l8 -13q-37 -52 -93 -52q-57 0 -74 48q-63 -48 -136 -48q-61 0 -103.5 30.5t-42.5 83.5q0 60 52.5 95t127.5 35q56 0 95 -19v119q0 67 -17.5 93t-50.5 26q-37 0 -52.5 -30t-15.5 -97h-121q8 58 39.5 94t70 48t86.5 12q86 0 135.5 -43t49.5 -129v-201q0 -33 5.5 -45
t18.5 -12q8 0 18 5zM296 88v101q-30 14 -67 14q-77 0 -77 -82q0 -45 20 -66t52 -21q39 0 73 29q-1 8 -1 25zM394 530h-37l-124 115l-124 -115h-37l138 177h46z" />
    <glyph glyph-name="atilde" unicode="&#xe3;" 
d="M462 55l8 -13q-37 -52 -93 -52q-57 0 -74 48q-63 -48 -136 -48q-61 0 -103.5 30.5t-42.5 83.5q0 60 52.5 95t127.5 35q56 0 95 -19v119q0 67 -17.5 93t-50.5 26q-37 0 -52.5 -30t-15.5 -97h-121q8 58 39.5 94t70 48t86.5 12q86 0 135.5 -43t49.5 -129v-201q0 -33 5.5 -45
t18.5 -12q8 0 18 5zM296 88v101q-30 14 -67 14q-77 0 -77 -82q0 -45 20 -66t52 -21q39 0 73 29q-1 8 -1 25zM378 628h13q-8 -42 -36.5 -74.5t-66.5 -32.5q-25 0 -75.5 23t-73.5 23q-43 0 -55 -46h-14q14 50 43 76.5t62 26.5q25 0 72.5 -23t71.5 -23q41 0 59 50z" />
    <glyph glyph-name="adieresis" unicode="&#xe4;" 
d="M462 55l8 -13q-37 -52 -93 -52q-57 0 -74 48q-63 -48 -136 -48q-61 0 -103.5 30.5t-42.5 83.5q0 60 52.5 95t127.5 35q56 0 95 -19v119q0 67 -17.5 93t-50.5 26q-37 0 -52.5 -30t-15.5 -97h-121q8 58 39.5 94t70 48t86.5 12q86 0 135.5 -43t49.5 -129v-201q0 -33 5.5 -45
t18.5 -12q8 0 18 5zM296 88v101q-30 14 -67 14q-77 0 -77 -82q0 -45 20 -66t52 -21q39 0 73 29q-1 8 -1 25zM208 572q0 -17 -13 -29.5t-30 -12.5t-29.5 12.5t-12.5 29.5q0 16 12.5 29t29.5 13t30 -13t13 -29zM345 572q0 -17 -13 -29.5t-30 -12.5t-29.5 12.5t-12.5 29.5
q0 16 12.5 29t29.5 13t30 -13t13 -29z" />
    <glyph glyph-name="aring" unicode="&#xe5;" 
d="M462 55l8 -13q-37 -52 -93 -52q-57 0 -74 48q-63 -48 -136 -48q-61 0 -103.5 30.5t-42.5 83.5q0 60 52.5 95t127.5 35q56 0 95 -19v119q0 67 -17.5 93t-50.5 26q-37 0 -52.5 -30t-15.5 -97h-121q8 58 39.5 94t70 48t86.5 12q86 0 135.5 -43t49.5 -129v-201q0 -33 5.5 -45
t18.5 -12q8 0 18 5zM296 88v101q-30 14 -67 14q-77 0 -77 -82q0 -45 20 -66t52 -21q39 0 73 29q-1 8 -1 25zM331 597q0 -36 -26.5 -60.5t-64.5 -24.5t-64 24.5t-26 60.5t26 60.5t65 24.5q38 0 64 -24.5t26 -60.5zM240 541q26 0 40 17t14 39q0 23 -13.5 39.5t-39.5 16.5
t-39.5 -17t-13.5 -39q0 -23 13 -39.5t39 -16.5z" />
    <glyph glyph-name="ae" unicode="&#xe6;" horiz-adv-x="754" 
d="M719 116l9 -13q-73 -113 -189 -113q-57 0 -107.5 23t-83.5 65q-64 -88 -177 -88q-63 0 -106.5 30.5t-43.5 85.5q0 58 53 93t127 35q50 0 95 -19v119q0 67 -17.5 93t-51.5 26q-37 0 -52 -30.5t-15 -96.5h-121q10 80 64.5 117t123.5 37q98 0 152 -62q67 62 153 62
q84 0 142 -47.5t58 -151.5h-312v-12q0 -96 46.5 -155t119.5 -59q69 0 133 61zM334 97q-27 41 -34 90q-34 16 -71 16q-77 0 -77 -82q0 -45 20 -66t53 -21q61 0 109 63zM423 313h186q0 140 -80 140q-42 0 -70 -40t-36 -100z" />
    <glyph glyph-name="ccedilla" unicode="&#xe7;" horiz-adv-x="475" 
d="M438 105l10 -11q-68 -104 -178 -104l-18 -42q16 4 27 4q32 0 53.5 -17t21.5 -52q0 -38 -27 -58t-60 -20q-35 0 -56.5 15.5t-22.5 44.5h6q15 -30 52 -30q48 0 48 42q0 43 -39 43q-26 0 -42 -19h-15l42 91q-92 9 -153 75t-61 166q0 115 73.5 181t166.5 66q79 0 129 -33
t62 -100h-121q-1 57 -16 81.5t-54 24.5q-56 0 -86 -51t-30 -141q0 -96 46.5 -151t119.5 -55q76 0 122 50z" />
    <glyph glyph-name="egrave" unicode="&#xe8;" horiz-adv-x="483" 
d="M448 116l9 -13q-73 -113 -189 -113q-100 0 -171.5 67t-71.5 177q0 111 71.5 178.5t164.5 67.5q84 0 142 -47.5t58 -151.5h-312v-12q0 -96 46.5 -155t119.5 -59q69 0 133 61zM152 313h186q0 140 -80 140q-42 0 -70 -40t-36 -100zM315 540l-21 -19l-165 121l52 53z" />
    <glyph glyph-name="eacute" unicode="&#xe9;" horiz-adv-x="483" 
d="M448 116l9 -13q-73 -113 -189 -113q-100 0 -171.5 67t-71.5 177q0 111 71.5 178.5t164.5 67.5q84 0 142 -47.5t58 -151.5h-312v-12q0 -96 46.5 -155t119.5 -59q69 0 133 61zM152 313h186q0 140 -80 140q-42 0 -70 -40t-36 -100zM319 695l52 -53l-165 -121l-21 19z" />
    <glyph glyph-name="ecircumflex" unicode="&#xea;" horiz-adv-x="483" 
d="M448 116l9 -13q-73 -113 -189 -113q-100 0 -171.5 67t-71.5 177q0 111 71.5 178.5t164.5 67.5q84 0 142 -47.5t58 -151.5h-312v-12q0 -96 46.5 -155t119.5 -59q69 0 133 61zM152 313h186q0 140 -80 140q-42 0 -70 -40t-36 -100zM417 530h-37l-124 115l-124 -115h-37
l138 177h46z" />
    <glyph glyph-name="edieresis" unicode="&#xeb;" horiz-adv-x="483" 
d="M448 116l9 -13q-73 -113 -189 -113q-100 0 -171.5 67t-71.5 177q0 111 71.5 178.5t164.5 67.5q84 0 142 -47.5t58 -151.5h-312v-12q0 -96 46.5 -155t119.5 -59q69 0 133 61zM152 313h186q0 140 -80 140q-42 0 -70 -40t-36 -100zM227 572q0 -17 -13 -29.5t-30 -12.5
t-29.5 12.5t-12.5 29.5q0 16 12.5 29t29.5 13t30 -13t13 -29zM364 572q0 -17 -13 -29.5t-30 -12.5t-29.5 12.5t-12.5 29.5q0 16 12.5 29t29.5 13t30 -13t13 -29z" />
    <glyph glyph-name="igrave" unicode="&#xec;" horiz-adv-x="258" 
d="M237 13v-15q-44 2 -105 2t-105 -2v15q25 5 34 20t9 71v240q0 50 -5 67t-26 23v15q88 0 155 31v-376q0 -56 9 -71t34 -20zM191 540l-21 -19l-165 121l52 53z" />
    <glyph glyph-name="iacute" unicode="&#xed;" horiz-adv-x="258" 
d="M237 13v-15q-44 2 -105 2t-105 -2v15q25 5 34 20t9 71v240q0 50 -5 67t-26 23v15q88 0 155 31v-376q0 -56 9 -71t34 -20zM210 695l52 -53l-165 -121l-21 19z" />
    <glyph glyph-name="icircumflex" unicode="&#xee;" horiz-adv-x="258" 
d="M237 13v-15q-44 2 -105 2t-105 -2v15q25 5 34 20t9 71v240q0 50 -5 67t-26 23v15q88 0 155 31v-376q0 -56 9 -71t34 -20zM292 530h-37l-124 115l-124 -115h-37l138 177h46z" />
    <glyph glyph-name="idieresis" unicode="&#xef;" horiz-adv-x="258" 
d="M237 13v-15q-44 2 -105 2t-105 -2v15q25 5 34 20t9 71v240q0 50 -5 67t-26 23v15q88 0 155 31v-376q0 -56 9 -71t34 -20zM103 572q0 -17 -13 -29.5t-30 -12.5t-29.5 12.5t-12.5 29.5q0 16 12.5 29t29.5 13t30 -13t13 -29zM240 572q0 -17 -13 -29.5t-30 -12.5t-29.5 12.5
t-12.5 29.5q0 16 12.5 29t29.5 13t30 -13t13 -29z" />
    <glyph glyph-name="eth" unicode="&#xf0;" horiz-adv-x="592" 
d="M434 717l-63 -53q93 -61 141.5 -163t48.5 -218q0 -56 -15 -106t-46 -92t-84 -66.5t-122 -24.5q-118 0 -193.5 64.5t-75.5 175.5q0 109 71 177.5t190 68.5q72 0 116 -34q-27 124 -75 181l-57 -48l-18 20l57 48q-63 61 -184 67v19q125 0 222 -54l70 58zM411 379
q-37 67 -125 67q-60 0 -89.5 -48t-29.5 -173q0 -43 5 -75t17.5 -62t38 -46t62.5 -16q34 0 58 13t38 33t21.5 51.5t10 60t2.5 67.5q0 68 -9 128z" />
    <glyph glyph-name="ntilde" unicode="&#xf1;" horiz-adv-x="560" 
d="M544 13v-15q-44 2 -105 2t-105 -2v15q25 5 34 20t9 71v213q0 63 -22.5 91.5t-67.5 28.5q-50 0 -93 -45v-288q0 -56 9 -71t34 -20v-15q-44 2 -105 2t-105 -2v15q25 5 34 20t9 71v240q0 50 -5 67t-26 23v15q88 0 155 31v-57q68 57 149 57q30 0 54.5 -6t49.5 -21.5t39.5 -50
t14.5 -85.5v-213q0 -56 9 -71t34 -20zM438 628h13q-8 -42 -36.5 -74.5t-66.5 -32.5q-25 0 -75.5 23t-73.5 23q-43 0 -55 -46h-14q14 50 43 76.5t62 26.5q25 0 72 -23t72 -23q41 0 59 50z" />
    <glyph glyph-name="ograve" unicode="&#xf2;" horiz-adv-x="552" 
d="M528 234q0 -105 -76 -172.5t-176 -67.5t-176 67.5t-76 172.5q0 109 75.5 177.5t176.5 68.5t176.5 -68.5t75.5 -177.5zM276 21q66 0 90 51.5t24 161.5q0 115 -24 167t-90 52t-90 -52t-24 -167q0 -110 24 -161.5t90 -51.5zM332 540l-21 -19l-165 121l52 53z" />
    <glyph glyph-name="oacute" unicode="&#xf3;" horiz-adv-x="552" 
d="M528 234q0 -105 -76 -172.5t-176 -67.5t-176 67.5t-76 172.5q0 109 75.5 177.5t176.5 68.5t176.5 -68.5t75.5 -177.5zM276 21q66 0 90 51.5t24 161.5q0 115 -24 167t-90 52t-90 -52t-24 -167q0 -110 24 -161.5t90 -51.5zM357 695l52 -53l-165 -121l-21 19z" />
    <glyph glyph-name="ocircumflex" unicode="&#xf4;" horiz-adv-x="552" 
d="M528 234q0 -105 -76 -172.5t-176 -67.5t-176 67.5t-76 172.5q0 109 75.5 177.5t176.5 68.5t176.5 -68.5t75.5 -177.5zM276 21q66 0 90 51.5t24 161.5q0 115 -24 167t-90 52t-90 -52t-24 -167q0 -110 24 -161.5t90 -51.5zM437 530h-37l-124 115l-124 -115h-37l138 177h46z
" />
    <glyph glyph-name="otilde" unicode="&#xf5;" horiz-adv-x="552" 
d="M528 234q0 -105 -76 -172.5t-176 -67.5t-176 67.5t-76 172.5q0 109 75.5 177.5t176.5 68.5t176.5 -68.5t75.5 -177.5zM276 21q66 0 90 51.5t24 161.5q0 115 -24 167t-90 52t-90 -52t-24 -167q0 -110 24 -161.5t90 -51.5zM429 628h13q-8 -42 -36.5 -74.5t-66.5 -32.5
q-25 0 -75.5 23t-73.5 23q-43 0 -55 -46h-14q14 50 43 76.5t62 26.5q24 0 72 -23t72 -23q41 0 59 50z" />
    <glyph glyph-name="odieresis" unicode="&#xf6;" horiz-adv-x="552" 
d="M528 234q0 -105 -76 -172.5t-176 -67.5t-176 67.5t-76 172.5q0 109 75.5 177.5t176.5 68.5t176.5 -68.5t75.5 -177.5zM276 21q66 0 90 51.5t24 161.5q0 115 -24 167t-90 52t-90 -52t-24 -167q0 -110 24 -161.5t90 -51.5zM248 572q0 -17 -13 -29.5t-30 -12.5t-29.5 12.5
t-12.5 29.5q0 16 12.5 29t29.5 13t30 -13t13 -29zM385 572q0 -17 -13 -29.5t-30 -12.5t-29.5 12.5t-12.5 29.5q0 16 12.5 29t29.5 13t30 -13t13 -29z" />
    <glyph glyph-name="divide" unicode="&#xf7;" horiz-adv-x="523" 
d="M462 332v-60q-39 1 -201 1t-200 -1v60q76 -2 200 -2q123 0 201 2zM304 433q0 -17 -13 -29.5t-30 -12.5t-29.5 12.5t-12.5 29.5q0 16 12.5 29t29.5 13t30 -13t13 -29zM304 170q0 -17 -13 -29.5t-30 -12.5t-29.5 12.5t-12.5 29.5q0 16 12.5 29t29.5 13t30 -13t13 -29z" />
    <glyph glyph-name="oslash" unicode="&#xf8;" horiz-adv-x="552" 
d="M145 -124h-41l59 143q-62 30 -100.5 86t-38.5 129q0 109 75.5 177.5t176.5 68.5q37 0 73 -11l51 122h41l-56 -135q64 -29 103.5 -87.5t39.5 -134.5q0 -105 -76 -172.5t-176 -67.5q-39 0 -78 11zM364 405l-152 -366q24 -18 64 -18q66 0 90 51.5t24 161.5q0 123 -26 171z
M186 73l150 363q-25 17 -60 17q-66 0 -90 -52t-24 -167q0 -113 24 -161z" />
    <glyph glyph-name="ugrave" unicode="&#xf9;" horiz-adv-x="553" 
d="M546 76l8 -13q-44 -69 -105 -69q-70 0 -90 53q-50 -53 -136 -53q-25 0 -45 2.5t-44 12t-40 26t-27 48t-11 73.5v188q0 50 -5 67t-26 23v15q88 0 155 31v-333q0 -61 24 -85.5t68 -24.5q50 0 81 33q-1 7 -1 22v252q0 50 -5 67t-26 23v15q88 0 155 31v-369q0 -57 31 -57
q19 0 39 22zM313 540l-21 -19l-165 121l52 53z" />
    <glyph glyph-name="uacute" unicode="&#xfa;" horiz-adv-x="553" 
d="M546 76l8 -13q-44 -69 -105 -69q-70 0 -90 53q-50 -53 -136 -53q-25 0 -45 2.5t-44 12t-40 26t-27 48t-11 73.5v188q0 50 -5 67t-26 23v15q88 0 155 31v-333q0 -61 24 -85.5t68 -24.5q50 0 81 33q-1 7 -1 22v252q0 50 -5 67t-26 23v15q88 0 155 31v-369q0 -57 31 -57
q19 0 39 22zM376 695l52 -53l-165 -121l-21 19z" />
    <glyph glyph-name="ucircumflex" unicode="&#xfb;" horiz-adv-x="553" 
d="M546 76l8 -13q-44 -69 -105 -69q-70 0 -90 53q-50 -53 -136 -53q-25 0 -45 2.5t-44 12t-40 26t-27 48t-11 73.5v188q0 50 -5 67t-26 23v15q88 0 155 31v-333q0 -61 24 -85.5t68 -24.5q50 0 81 33q-1 7 -1 22v252q0 50 -5 67t-26 23v15q88 0 155 31v-369q0 -57 31 -57
q19 0 39 22zM428 530h-37l-124 115l-124 -115h-37l138 177h46z" />
    <glyph glyph-name="udieresis" unicode="&#xfc;" horiz-adv-x="553" 
d="M546 76l8 -13q-44 -69 -105 -69q-70 0 -90 53q-50 -53 -136 -53q-25 0 -45 2.5t-44 12t-40 26t-27 48t-11 73.5v188q0 50 -5 67t-26 23v15q88 0 155 31v-333q0 -61 24 -85.5t68 -24.5q50 0 81 33q-1 7 -1 22v252q0 50 -5 67t-26 23v15q88 0 155 31v-369q0 -57 31 -57
q19 0 39 22zM244 572q0 -17 -13 -29.5t-30 -12.5t-29.5 12.5t-12.5 29.5q0 16 12.5 29t29.5 13t30 -13t13 -29zM381 572q0 -17 -13 -29.5t-30 -12.5t-29.5 12.5t-12.5 29.5q0 16 12.5 29t29.5 13t30 -13t13 -29z" />
    <glyph glyph-name="yacute" unicode="&#xfd;" horiz-adv-x="483" 
d="M291 -211v-15q-4 0 -38 0.5t-58 0.5q-23 0 -58 -0.5t-39 -0.5v15q39 10 69 45t63 122l-165 395q-23 55 -38 78t-35 32v15q4 0 32.5 -0.5t49.5 -0.5q22 0 80.5 0.5t62.5 0.5v-15q-33 -7 -33 -38q0 -23 22 -74l89 -211l29 82q43 121 43 172q0 53 -45 69v15q7 0 45 -0.5
t45 -0.5q38 0 57.5 0.5t20.5 0.5v-15q-45 -20 -86 -140l-125 -356q-31 -86 -31 -124q0 -45 43 -52zM371 695l52 -53l-165 -121l-21 19z" />
    <glyph glyph-name="thorn" unicode="&#xfe;" horiz-adv-x="552" 
d="M226 -212v-15q-44 2 -105 2t-105 -2v15q25 5 34 20t9 71v748q0 50 -5 67t-26 23v15q88 0 155 31v-327q53 44 117 44q99 0 162.5 -66t63.5 -174q0 -104 -68 -175t-173 -71q-60 0 -102 29v-144q0 -56 9 -71t34 -20zM183 405v-341q12 -16 37.5 -27.5t56.5 -11.5
q57 0 84 52.5t27 162.5q0 105 -26 156t-83 51t-96 -42z" />
    <glyph glyph-name="ydieresis" unicode="&#xff;" horiz-adv-x="483" 
d="M291 -211v-15q-4 0 -38 0.5t-58 0.5q-23 0 -58 -0.5t-39 -0.5v15q39 10 69 45t63 122l-165 395q-23 55 -38 78t-35 32v15q4 0 32.5 -0.5t49.5 -0.5q22 0 80.5 0.5t62.5 0.5v-15q-33 -7 -33 -38q0 -23 22 -74l89 -211l29 82q43 121 43 172q0 53 -45 69v15q7 0 45 -0.5
t45 -0.5q38 0 57.5 0.5t20.5 0.5v-15q-45 -20 -86 -140l-125 -356q-31 -86 -31 -124q0 -45 43 -52zM254 572q0 -17 -13 -29.5t-30 -12.5t-29.5 12.5t-12.5 29.5q0 16 12.5 29t29.5 13t30 -13t13 -29zM391 572q0 -17 -13 -29.5t-30 -12.5t-29.5 12.5t-12.5 29.5q0 16 12.5 29
t29.5 13t30 -13t13 -29z" />
    <glyph glyph-name="Amacron" unicode="&#x100;" horiz-adv-x="618" 
d="M611 13v-15q-42 2 -109 2q-89 0 -133 -2v15q42 8 42 42q0 24 -18 80l-32 96q-37 1 -110 1t-100 -1l-12 -31q-33 -85 -33 -130q0 -49 37 -57v-15q-44 2 -102 2q-37 0 -79 -2v15q42 14 71 57.5t71 153.5l202 518h33l197 -610q32 -98 75 -119zM347 274l-83 255l-97 -255
q21 -1 84 -1q64 0 96 1zM467 862v-60q-46 1 -152 1t-151 -1v60q90 -2 151 -2q60 0 152 2z" />
    <glyph glyph-name="amacron" unicode="&#x101;" 
d="M462 55l8 -13q-37 -52 -93 -52q-57 0 -74 48q-63 -48 -136 -48q-61 0 -103.5 30.5t-42.5 83.5q0 60 52.5 95t127.5 35q56 0 95 -19v119q0 67 -17.5 93t-50.5 26q-37 0 -52.5 -30t-15.5 -97h-121q8 58 39.5 94t70 48t86.5 12q86 0 135.5 -43t49.5 -129v-201q0 -33 5.5 -45
t18.5 -12q8 0 18 5zM296 88v101q-30 14 -67 14q-77 0 -77 -82q0 -45 20 -66t52 -21q39 0 73 29q-1 8 -1 25zM384 610v-60q-46 1 -152 1t-151 -1v60q90 -2 151 -2q60 0 152 2z" />
    <glyph glyph-name="Abreve" unicode="&#x102;" horiz-adv-x="618" 
d="M611 13v-15q-42 2 -109 2q-89 0 -133 -2v15q42 8 42 42q0 24 -18 80l-32 96q-37 1 -110 1t-100 -1l-12 -31q-33 -85 -33 -130q0 -49 37 -57v-15q-44 2 -102 2q-37 0 -79 -2v15q42 14 71 57.5t71 153.5l202 518h33l197 -610q32 -98 75 -119zM347 274l-83 255l-97 -255
q21 -1 84 -1q64 0 96 1zM421 923h32q-1 -55 -35.5 -98t-101.5 -43t-101.5 43t-35.5 98h32q16 -90 105 -90t105 90z" />
    <glyph glyph-name="abreve" unicode="&#x103;" 
d="M462 55l8 -13q-37 -52 -93 -52q-57 0 -74 48q-63 -48 -136 -48q-61 0 -103.5 30.5t-42.5 83.5q0 60 52.5 95t127.5 35q56 0 95 -19v119q0 67 -17.5 93t-50.5 26q-37 0 -52.5 -30t-15.5 -97h-121q8 58 39.5 94t70 48t86.5 12q86 0 135.5 -43t49.5 -129v-201q0 -33 5.5 -45
t18.5 -12q8 0 18 5zM296 88v101q-30 14 -67 14q-77 0 -77 -82q0 -45 20 -66t52 -21q39 0 73 29q-1 8 -1 25zM337 671h32q-1 -55 -35.5 -98t-101.5 -43t-101.5 43t-35.5 98h32q16 -90 105 -90t105 90z" />
    <glyph glyph-name="Aogonek" unicode="&#x104;" horiz-adv-x="618" 
d="M556 -164l1 -19q-37 -21 -83 -21q-35 0 -58.5 16t-23.5 48q0 63 108 140q-89 0 -131 -2v15q42 8 42 42q0 24 -18 80l-32 96q-37 1 -110 1t-100 -1l-12 -31q-33 -85 -33 -130q0 -49 37 -57v-15q-44 2 -102 2q-37 0 -79 -2v15q42 14 71 57.5t71 153.5l202 518h33l197 -610
q32 -98 75 -119v-15q-32 2 -79 2q-79 -63 -79 -128q0 -47 49 -47q25 0 54 11zM347 274l-83 255l-97 -255q21 -1 84 -1q64 0 96 1z" />
    <glyph glyph-name="aogonek" unicode="&#x105;" 
d="M436 -172l1 -19q-37 -21 -83 -21q-35 0 -58.5 16t-23.5 48q0 62 105 138q-57 2 -74 48q-63 -48 -136 -48q-61 0 -103.5 30.5t-42.5 85.5q0 58 53 93t127 35q56 0 95 -19v119q0 67 -17.5 93t-51.5 26q-37 0 -52 -30.5t-15 -96.5h-121q10 80 64.5 117t123.5 37
q193 0 193 -172v-201q0 -33 5 -45t18 -12q9 0 19 5l8 -13q-10 -13 -49 -42q-45 -33 -66.5 -69.5t-21.5 -66.5q0 -47 49 -47q25 0 54 11zM296 88v101q-30 14 -67 14q-77 0 -77 -82q0 -45 20 -66t53 -21q38 0 72 29q-1 8 -1 25z" />
    <glyph glyph-name="Cacute" unicode="&#x106;" horiz-adv-x="694" 
d="M640 220l15 -5q-8 -74 -8 -179q-112 -46 -230 -46q-171 0 -279 111t-108 260q0 71 24.5 136t72 118t125 85t174.5 32q36 0 78 -4t85.5 -10.5t57.5 -7.5q-3 -45 -3 -111q0 -39 2 -93h-15q-56 194 -205 194q-104 0 -176.5 -92t-72.5 -247q0 -160 69 -249.5t171 -89.5
q73 0 134.5 59.5t88.5 138.5zM477 947l52 -53l-165 -121l-21 19z" />
    <glyph glyph-name="cacute" unicode="&#x107;" horiz-adv-x="473" 
d="M437 105l10 -11q-68 -104 -178 -104q-103 0 -173.5 67.5t-70.5 175.5q0 115 73.5 181t166.5 66q79 0 129 -33t62 -100h-121q-1 57 -16 81.5t-54 24.5q-56 0 -86 -51t-30 -141q0 -96 46.5 -151t119.5 -55q76 0 122 50zM313 695l52 -53l-165 -121l-21 19z" />
    <glyph glyph-name="Ccircumflex" unicode="&#x108;" horiz-adv-x="694" 
d="M640 220l15 -5q-8 -74 -8 -179q-112 -46 -230 -46q-171 0 -279 111t-108 260q0 71 24.5 136t72 118t125 85t174.5 32q36 0 78 -4t85.5 -10.5t57.5 -7.5q-3 -45 -3 -111q0 -39 2 -93h-15q-56 194 -205 194q-104 0 -176.5 -92t-72.5 -247q0 -160 69 -249.5t171 -89.5
q73 0 134.5 59.5t88.5 138.5zM550 782h-37l-124 115l-124 -115h-37l138 177h46z" />
    <glyph glyph-name="ccircumflex" unicode="&#x109;" horiz-adv-x="473" 
d="M437 105l10 -11q-68 -104 -178 -104q-103 0 -173.5 67.5t-70.5 175.5q0 115 73.5 181t166.5 66q79 0 129 -33t62 -100h-121q-1 57 -16 81.5t-54 24.5q-56 0 -86 -51t-30 -141q0 -96 46.5 -151t119.5 -55q76 0 122 50zM416 530h-37l-124 115l-124 -115h-37l138 177h46z
" />
    <glyph glyph-name="Cdotaccent" unicode="&#x10a;" horiz-adv-x="694" 
d="M640 220l15 -5q-8 -74 -8 -179q-112 -46 -230 -46q-171 0 -279 111t-108 260q0 71 24.5 136t72 118t125 85t174.5 32q36 0 78 -4t85.5 -10.5t57.5 -7.5q-3 -45 -3 -111q0 -39 2 -93h-15q-56 194 -205 194q-104 0 -176.5 -92t-72.5 -247q0 -160 69 -249.5t171 -89.5
q73 0 134.5 59.5t88.5 138.5zM449 824q0 -17 -13 -29.5t-30 -12.5t-29.5 12.5t-12.5 29.5q0 16 12.5 29t29.5 13t30 -13t13 -29z" />
    <glyph glyph-name="cdotaccent" unicode="&#x10b;" horiz-adv-x="473" 
d="M437 105l10 -11q-68 -104 -178 -104q-103 0 -173.5 67.5t-70.5 175.5q0 115 73.5 181t166.5 66q79 0 129 -33t62 -100h-121q-1 57 -16 81.5t-54 24.5q-56 0 -86 -51t-30 -141q0 -96 46.5 -151t119.5 -55q76 0 122 50zM297 572q0 -17 -13 -29.5t-30 -12.5t-29.5 12.5
t-12.5 29.5q0 16 12.5 29t29.5 13t30 -13t13 -29z" />
    <glyph glyph-name="Ccaron" unicode="&#x10c;" horiz-adv-x="694" 
d="M640 220l15 -5q-8 -74 -8 -179q-112 -46 -230 -46q-171 0 -279 111t-108 260q0 71 24.5 136t72 118t125 85t174.5 32q36 0 78 -4t85.5 -10.5t57.5 -7.5q-3 -45 -3 -111q0 -39 2 -93h-15q-56 194 -205 194q-104 0 -176.5 -92t-72.5 -247q0 -160 69 -249.5t171 -89.5
q73 0 134.5 59.5t88.5 138.5zM415 782h-46l-138 177h37l124 -115l124 115h37z" />
    <glyph glyph-name="ccaron" unicode="&#x10d;" horiz-adv-x="473" 
d="M437 105l10 -11q-68 -104 -178 -104q-103 0 -173.5 67.5t-70.5 175.5q0 115 73.5 181t166.5 66q79 0 129 -33t62 -100h-121q-1 57 -16 81.5t-54 24.5q-56 0 -86 -51t-30 -141q0 -96 46.5 -151t119.5 -55q76 0 122 50zM277 530h-46l-138 177h37l124 -115l124 115h37z" />
    <glyph glyph-name="Dcaron" unicode="&#x10e;" horiz-adv-x="768" 
d="M227 690v-654q23 -9 89 -9q135 0 202 83t67 253q0 67 -10.5 120t-27 88t-42 60t-48.5 37.5t-54.5 20t-52.5 9t-49 1.5q-50 0 -74 -9zM43 -2v15q34 6 42 30.5t8 110.5v419q0 86 -8 110.5t-42 30.5v15q44 -2 117 -2q25 0 73.5 1t75.5 1q104 0 184 -26.5t124.5 -65.5
t72.5 -91t37 -95.5t9 -87.5q0 -157 -104 -261.5t-294 -104.5q-20 0 -82 1.5t-96 1.5q-73 0 -117 -2zM376 782h-46l-138 177h37l124 -115l124 115h37z" />
    <glyph glyph-name="dcaron" unicode="&#x10f;" horiz-adv-x="550" 
d="M526 59l8 -13q-37 -52 -91 -52q-55 0 -74 43q-51 -43 -116 -43q-97 0 -162.5 66.5t-65.5 173.5q0 105 70.5 175.5t172.5 70.5q55 0 92 -26v172q0 50 -5 67t-26 23v15q88 0 155 31v-651q0 -33 5 -45t18 -12q9 0 19 5zM360 92v319q-20 38 -84 38q-59 0 -86 -49.5
t-27 -165.5q0 -99 31 -150.5t89 -51.5q49 0 79 29q-2 18 -2 31zM588 538l-7 5q35 27 35 77q0 9 -2 17q-6 -5 -18 -5q-18 0 -29 12.5t-11 31.5q0 21 13.5 35.5t36.5 14.5q22 0 38.5 -14.5t16.5 -43.5q0 -83 -73 -130z" />
    <glyph glyph-name="Dcroat" unicode="&#x110;" horiz-adv-x="768" 
d="M43 -2v15q34 6 42 30.5t8 110.5v179q-9 0 -24.5 -0.5t-20.5 -0.5v60q11 -1 45 -1v182q0 86 -8 110.5t-42 30.5v15q44 -2 117 -2q25 0 73.5 1t75.5 1q104 0 184 -26.5t124.5 -65.5t72.5 -91t37 -95.5t9 -87.5q0 -157 -104 -261.5t-294 -104.5q-20 0 -82 1.5t-96 1.5
q-73 0 -117 -2zM414 392v-60q-33 1 -187 1v-297q23 -9 89 -9q135 0 202 83t67 253q0 67 -10.5 120t-27 88t-42 60t-48.5 37.5t-54.5 20t-52.5 9t-49 1.5q-50 0 -74 -9v-300q121 0 187 2z" />
    <glyph glyph-name="dcroat" unicode="&#x111;" horiz-adv-x="550" 
d="M526 59l8 -13q-37 -52 -91 -52q-55 0 -74 43q-51 -43 -116 -43q-97 0 -162.5 66.5t-65.5 173.5q0 105 70.5 175.5t172.5 70.5q55 0 92 -26v97h-34q-106 0 -151 -1v60q90 -2 151 -2h34v18q0 50 -5 67t-26 23v15q88 0 155 31v-153q41 0 54 1v-60q-6 0 -24 0.5t-30 0.5v-440
q0 -33 5 -45t18 -12q9 0 19 5zM360 92v319q-20 38 -84 38q-59 0 -86 -49.5t-27 -165.5q0 -99 31 -150.5t89 -51.5q49 0 79 29q-2 18 -2 31z" />
    <glyph glyph-name="Emacron" unicode="&#x112;" horiz-adv-x="564" 
d="M504 199h15q-3 -144 -3 -201q-75 2 -356 2q-73 0 -117 -2v15q34 6 42 30.5t8 110.5v419q0 86 -8 110.5t-42 30.5v15q44 -2 117 -2q285 0 360 2q-2 -50 -2 -111q0 -51 1 -72h-15q-15 43 -32.5 71t-32.5 43t-41.5 22t-44.5 8t-58 1q-44 0 -68 -4v-294h59q57 0 88 16t45 70
h15q-4 -60 -4 -93q0 -53 4 -101h-15q-10 47 -42 60.5t-91 13.5h-59v-319q24 -4 68 -4q41 0 65 4t53 19t51 49.5t40 90.5zM450 862v-60q-46 1 -152 1t-151 -1v60q90 -2 151 -2q60 0 152 2z" />
    <glyph glyph-name="emacron" unicode="&#x113;" horiz-adv-x="483" 
d="M448 116l9 -13q-73 -113 -189 -113q-100 0 -171.5 67t-71.5 177q0 111 71.5 178.5t164.5 67.5q84 0 142 -47.5t58 -151.5h-312v-12q0 -96 46.5 -155t119.5 -59q69 0 133 61zM152 313h186q0 140 -80 140q-42 0 -70 -40t-36 -100zM399 610v-60q-46 1 -152 1t-151 -1v60
q90 -2 151 -2q60 0 152 2z" />
    <glyph glyph-name="Ebreve" unicode="&#x114;" horiz-adv-x="564" 
d="M504 199h15q-3 -144 -3 -201q-75 2 -356 2q-73 0 -117 -2v15q34 6 42 30.5t8 110.5v419q0 86 -8 110.5t-42 30.5v15q44 -2 117 -2q285 0 360 2q-2 -50 -2 -111q0 -51 1 -72h-15q-15 43 -32.5 71t-32.5 43t-41.5 22t-44.5 8t-58 1q-44 0 -68 -4v-294h59q57 0 88 16t45 70
h15q-4 -60 -4 -93q0 -53 4 -101h-15q-10 47 -42 60.5t-91 13.5h-59v-319q24 -4 68 -4q41 0 65 4t53 19t51 49.5t40 90.5zM412 923h32q-1 -55 -35.5 -98t-101.5 -43t-101.5 43t-35.5 98h32q16 -90 105 -90t105 90z" />
    <glyph glyph-name="ebreve" unicode="&#x115;" horiz-adv-x="483" 
d="M448 116l9 -13q-73 -113 -189 -113q-100 0 -171.5 67t-71.5 177q0 111 71.5 178.5t164.5 67.5q84 0 142 -47.5t58 -151.5h-312v-12q0 -96 46.5 -155t119.5 -59q69 0 133 61zM152 313h186q0 140 -80 140q-42 0 -70 -40t-36 -100zM361 671h32q-1 -55 -35.5 -98t-101.5 -43
t-101.5 43t-35.5 98h32q16 -90 105 -90t105 90z" />
    <glyph glyph-name="Edotaccent" unicode="&#x116;" horiz-adv-x="564" 
d="M504 199h15q-3 -144 -3 -201q-75 2 -356 2q-73 0 -117 -2v15q34 6 42 30.5t8 110.5v419q0 86 -8 110.5t-42 30.5v15q44 -2 117 -2q285 0 360 2q-2 -50 -2 -111q0 -51 1 -72h-15q-15 43 -32.5 71t-32.5 43t-41.5 22t-44.5 8t-58 1q-44 0 -68 -4v-294h59q57 0 88 16t45 70
h15q-4 -60 -4 -93q0 -53 4 -101h-15q-10 47 -42 60.5t-91 13.5h-59v-319q24 -4 68 -4q41 0 65 4t53 19t51 49.5t40 90.5zM347 824q0 -17 -13 -29.5t-30 -12.5t-29.5 12.5t-12.5 29.5q0 16 12.5 29t29.5 13t30 -13t13 -29z" />
    <glyph glyph-name="edotaccent" unicode="&#x117;" horiz-adv-x="483" 
d="M448 116l9 -13q-73 -113 -189 -113q-100 0 -171.5 67t-71.5 177q0 111 71.5 178.5t164.5 67.5q84 0 142 -47.5t58 -151.5h-312v-12q0 -96 46.5 -155t119.5 -59q69 0 133 61zM152 313h186q0 140 -80 140q-42 0 -70 -40t-36 -100zM303 572q0 -17 -13 -29.5t-30 -12.5
t-29.5 12.5t-12.5 29.5q0 16 12.5 29t29.5 13t30 -13t13 -29z" />
    <glyph glyph-name="Eogonek" unicode="&#x118;" horiz-adv-x="564" 
d="M450 -168l1 -19q-37 -21 -83 -21q-35 0 -58.5 16t-23.5 48q0 65 113 144h-239q-73 0 -117 -2v15q34 6 42 30.5t8 110.5v419q0 86 -8 110.5t-42 30.5v15q44 -2 117 -2q285 0 360 2q-2 -50 -2 -111q0 -51 1 -72h-15q-15 43 -32.5 71t-32.5 43t-41.5 22t-44.5 8t-58 1
q-44 0 -68 -4v-294h59q57 0 88 16t45 70h15q-4 -60 -4 -93q0 -53 4 -101h-15q-10 47 -42 60.5t-91 13.5h-59v-319q24 -4 68 -4q41 0 65 4t53 19t51 49.5t40 90.5h15q-3 -144 -3 -201q-14 0 -43 1t-43 1q-83 -66 -83 -132q0 -47 49 -47q25 0 54 11z" />
    <glyph glyph-name="eogonek" unicode="&#x119;" horiz-adv-x="485" 
d="M346 -172l1 -19q-37 -21 -83 -21q-35 0 -58.5 16t-23.5 48q0 61 106 139q-6 -1 -19 -1q-100 0 -171.5 67t-71.5 177q0 111 71.5 178.5t164.5 67.5q84 0 142 -47.5t58 -151.5h-312v-12q0 -96 46.5 -155t119.5 -59q69 0 133 61l9 -13q-52 -82 -127 -104q-88 -65 -88 -135
q0 -47 49 -47q25 0 54 11zM153 313h186q0 140 -80 140q-42 0 -70 -40t-36 -100z" />
    <glyph glyph-name="Ecaron" unicode="&#x11a;" horiz-adv-x="564" 
d="M504 199h15q-3 -144 -3 -201q-75 2 -356 2q-73 0 -117 -2v15q34 6 42 30.5t8 110.5v419q0 86 -8 110.5t-42 30.5v15q44 -2 117 -2q285 0 360 2q-2 -50 -2 -111q0 -51 1 -72h-15q-15 43 -32.5 71t-32.5 43t-41.5 22t-44.5 8t-58 1q-44 0 -68 -4v-294h59q57 0 88 16t45 70
h15q-4 -60 -4 -93q0 -53 4 -101h-15q-10 47 -42 60.5t-91 13.5h-59v-319q24 -4 68 -4q41 0 65 4t53 19t51 49.5t40 90.5zM326 782h-46l-138 177h37l124 -115l124 115h37z" />
    <glyph glyph-name="ecaron" unicode="&#x11b;" horiz-adv-x="483" 
d="M448 116l9 -13q-73 -113 -189 -113q-100 0 -171.5 67t-71.5 177q0 111 71.5 178.5t164.5 67.5q84 0 142 -47.5t58 -151.5h-312v-12q0 -96 46.5 -155t119.5 -59q69 0 133 61zM152 313h186q0 140 -80 140q-42 0 -70 -40t-36 -100zM280 530h-46l-138 177h37l124 -115
l124 115h37z" />
    <glyph glyph-name="Gcircumflex" unicode="&#x11c;" horiz-adv-x="785" 
d="M725 66l-3 -4q-6 4 -21 4q-20 0 -47 -12t-52.5 -26t-72.5 -26t-102 -12q-180 0 -288 109.5t-108 264.5q0 71 25 135.5t73 117t128 84t180 31.5q64 0 149 -17t120 -17q-3 -42 -3 -104q0 -40 2 -94h-15q-70 200 -248 200q-121 0 -192.5 -90.5t-71.5 -253.5t70.5 -248.5
t186.5 -85.5q99 0 151 57v119q0 86 -8 110.5t-42 30.5v15q44 -2 117 -2t117 2v-15q-33 -6 -41.5 -32.5t-8.5 -114.5q0 -105 5 -126zM584 782h-37l-124 115l-124 -115h-37l138 177h46z" />
    <glyph glyph-name="gcircumflex" unicode="&#x11d;" horiz-adv-x="521" 
d="M537 443l-41 -82q-30 46 -62 46q-4 0 -12 -2q34 -44 34 -97q0 -77 -61.5 -120t-149.5 -43q-23 0 -34 1q-35 -11 -35 -54q0 -27 19.5 -42t76.5 -18q34 -2 56 -4.5t56 -10t54 -19.5t35.5 -35t15.5 -54q0 -58 -60 -96t-183 -38q-112 0 -179 32.5t-67 94.5q0 84 120 118
q-67 25 -67 72q0 30 24.5 48t61.5 24q-105 43 -105 144q0 77 62.5 124.5t148.5 47.5q89 0 151 -50q38 44 71 44q32 0 70 -31zM237 3h-11q-100 -3 -100 -95q0 -54 32.5 -81.5t87.5 -27.5q50 0 79 26.5t29 79.5q0 52 -33 75t-84 23zM245 169q42 0 58.5 33.5t16.5 105.5
q0 74 -17 111t-58 37t-58 -37t-17 -111q0 -72 16.5 -105.5t58.5 -33.5zM408 530h-37l-124 115l-124 -115h-37l138 177h46z" />
    <glyph glyph-name="Gbreve" unicode="&#x11e;" horiz-adv-x="785" 
d="M725 66l-3 -4q-6 4 -21 4q-20 0 -47 -12t-52.5 -26t-72.5 -26t-102 -12q-180 0 -288 109.5t-108 264.5q0 71 25 135.5t73 117t128 84t180 31.5q64 0 149 -17t120 -17q-3 -42 -3 -104q0 -40 2 -94h-15q-70 200 -248 200q-121 0 -192.5 -90.5t-71.5 -253.5t70.5 -248.5
t186.5 -85.5q99 0 151 57v119q0 86 -8 110.5t-42 30.5v15q44 -2 117 -2t117 2v-15q-33 -6 -41.5 -32.5t-8.5 -114.5q0 -105 5 -126zM517 923h32q-1 -55 -35.5 -98t-101.5 -43t-101.5 43t-35.5 98h32q16 -90 105 -90t105 90z" />
    <glyph glyph-name="gbreve" unicode="&#x11f;" horiz-adv-x="521" 
d="M537 443l-41 -82q-30 46 -62 46q-4 0 -12 -2q34 -44 34 -97q0 -77 -61.5 -120t-149.5 -43q-23 0 -34 1q-35 -11 -35 -54q0 -27 19.5 -42t76.5 -18q34 -2 56 -4.5t56 -10t54 -19.5t35.5 -35t15.5 -54q0 -58 -60 -96t-183 -38q-112 0 -179 32.5t-67 94.5q0 84 120 118
q-67 25 -67 72q0 30 24.5 48t61.5 24q-105 43 -105 144q0 77 62.5 124.5t148.5 47.5q89 0 151 -50q38 44 71 44q32 0 70 -31zM237 3h-11q-100 -3 -100 -95q0 -54 32.5 -81.5t87.5 -27.5q50 0 79 26.5t29 79.5q0 52 -33 75t-84 23zM245 169q42 0 58.5 33.5t16.5 105.5
q0 74 -17 111t-58 37t-58 -37t-17 -111q0 -72 16.5 -105.5t58.5 -33.5zM350 671h32q-1 -55 -35.5 -98t-101.5 -43t-101.5 43t-35.5 98h32q16 -90 105 -90t105 90z" />
    <glyph glyph-name="Gdotaccent" unicode="&#x120;" horiz-adv-x="785" 
d="M725 66l-3 -4q-6 4 -21 4q-20 0 -47 -12t-52.5 -26t-72.5 -26t-102 -12q-180 0 -288 109.5t-108 264.5q0 71 25 135.5t73 117t128 84t180 31.5q64 0 149 -17t120 -17q-3 -42 -3 -104q0 -40 2 -94h-15q-70 200 -248 200q-121 0 -192.5 -90.5t-71.5 -253.5t70.5 -248.5
t186.5 -85.5q99 0 151 57v119q0 86 -8 110.5t-42 30.5v15q44 -2 117 -2t117 2v-15q-33 -6 -41.5 -32.5t-8.5 -114.5q0 -105 5 -126zM469 824q0 -17 -13 -29.5t-30 -12.5t-29.5 12.5t-12.5 29.5q0 16 12.5 29t29.5 13t30 -13t13 -29z" />
    <glyph glyph-name="gdotaccent" unicode="&#x121;" horiz-adv-x="521" 
d="M537 443l-41 -82q-30 46 -62 46q-4 0 -12 -2q34 -44 34 -97q0 -77 -61.5 -120t-149.5 -43q-23 0 -34 1q-35 -11 -35 -54q0 -27 19.5 -42t76.5 -18q34 -2 56 -4.5t56 -10t54 -19.5t35.5 -35t15.5 -54q0 -58 -60 -96t-183 -38q-112 0 -179 32.5t-67 94.5q0 84 120 118
q-67 25 -67 72q0 30 24.5 48t61.5 24q-105 43 -105 144q0 77 62.5 124.5t148.5 47.5q89 0 151 -50q38 44 71 44q32 0 70 -31zM237 3h-11q-100 -3 -100 -95q0 -54 32.5 -81.5t87.5 -27.5q50 0 79 26.5t29 79.5q0 52 -33 75t-84 23zM245 169q42 0 58.5 33.5t16.5 105.5
q0 74 -17 111t-58 37t-58 -37t-17 -111q0 -72 16.5 -105.5t58.5 -33.5zM291 572q0 -17 -13 -29.5t-30 -12.5t-29.5 12.5t-12.5 29.5q0 16 12.5 29t29.5 13t30 -13t13 -29z" />
    <glyph glyph-name="Gcommaaccent" unicode="&#x122;" horiz-adv-x="785" 
d="M725 66l-3 -4q-6 4 -21 4q-20 0 -47 -12t-52.5 -26t-72.5 -26t-102 -12q-180 0 -288 109.5t-108 264.5q0 71 25 135.5t73 117t128 84t180 31.5q64 0 149 -17t120 -17q-3 -42 -3 -104q0 -40 2 -94h-15q-70 200 -248 200q-121 0 -192.5 -90.5t-71.5 -253.5t70.5 -248.5
t186.5 -85.5q99 0 151 57v119q0 86 -8 110.5t-42 30.5v15q44 -2 117 -2t117 2v-15q-33 -6 -41.5 -32.5t-8.5 -114.5q0 -105 5 -126zM413 -232l-7 5q35 27 35 77q0 9 -2 17q-6 -5 -18 -5q-18 0 -29 12.5t-11 31.5q0 21 13.5 35.5t36.5 14.5q22 0 38.5 -14.5t16.5 -43.5
q0 -83 -73 -130z" />
    <glyph glyph-name="gcommaaccent" unicode="&#x123;" horiz-adv-x="521" 
d="M537 443l-41 -82q-30 46 -62 46q-4 0 -12 -2q34 -44 34 -97q0 -77 -61.5 -120t-149.5 -43q-23 0 -34 1q-35 -11 -35 -54q0 -27 19.5 -42t76.5 -18q34 -2 56 -4.5t56 -10t54 -19.5t35.5 -35t15.5 -54q0 -58 -60 -96t-183 -38q-112 0 -179 32.5t-67 94.5q0 84 120 118
q-67 25 -67 72q0 30 24.5 48t61.5 24q-105 43 -105 144q0 77 62.5 124.5t148.5 47.5q89 0 151 -50q38 44 71 44q32 0 70 -31zM237 3h-11q-100 -3 -100 -95q0 -54 32.5 -81.5t87.5 -27.5q50 0 79 26.5t29 79.5q0 52 -33 75t-84 23zM245 169q42 0 58.5 33.5t16.5 105.5
q0 74 -17 111t-58 37t-58 -37t-17 -111q0 -72 16.5 -105.5t58.5 -33.5zM273 737l7 -5q-35 -27 -35 -77q0 -9 2 -17q6 5 18 5q18 0 29 -12.5t11 -31.5q0 -21 -13.5 -35.5t-36.5 -14.5q-22 0 -38.5 14.5t-16.5 43.5q0 83 73 130z" />
    <glyph glyph-name="Hcircumflex" unicode="&#x124;" horiz-adv-x="755" 
d="M712 13v-15q-44 2 -117 2t-117 -2v15q34 6 42 30.5t8 110.5v215q-53 1 -157 1q-97 0 -144 -1v-215q0 -86 8 -110.5t42 -30.5v-15q-44 2 -117 2t-117 -2v15q34 6 42 30.5t8 110.5v419q0 86 -8 110.5t-42 30.5v15q44 -2 117 -2t117 2v-15q-34 -6 -42 -30.5t-8 -110.5v-161
h301v161q0 86 -8 110.5t-42 30.5v15q44 -2 117 -2t117 2v-15q-34 -6 -42 -30.5t-8 -110.5v-419q0 -86 8 -110.5t42 -30.5zM541 782h-37l-124 115l-124 -115h-37l138 177h46z" />
    <glyph glyph-name="hcircumflex" unicode="&#x125;" horiz-adv-x="554" 
d="M538 13v-15q-44 2 -105 2t-105 -2v15q25 5 34 20t9 71v213q0 63 -22.5 91.5t-67.5 28.5q-50 0 -93 -45v-288q0 -56 9 -71t34 -20v-15q-44 2 -105 2t-105 -2v15q25 5 34 20t9 71v522q0 50 -5 67t-26 23v15q88 0 155 31v-339q68 57 149 57q30 0 54.5 -6t49.5 -21.5
t39.5 -50t14.5 -85.5v-213q0 -56 9 -71t34 -20zM289 800h-37l-124 115l-124 -115h-37l138 177h46z" />
    <glyph glyph-name="Hbar" unicode="&#x126;" horiz-adv-x="757" 
d="M713 13v-15q-44 2 -117 2t-117 -2v15q34 6 42 30.5t8 110.5v215q-53 1 -157 1q-97 0 -144 -1v-215q0 -86 8 -110.5t42 -30.5v-15q-44 2 -117 2t-117 -2v15q34 6 42 30.5t8 110.5v363h-67v50q3 0 26 -0.5t41 -0.5v7q0 86 -8 110.5t-42 30.5v15q44 -2 117 -2t117 2v-15
q-34 -6 -42 -30.5t-8 -110.5v-8h301v8q0 86 -8 110.5t-42 30.5v15q44 -2 117 -2t117 2v-15q-34 -6 -42 -30.5t-8 -110.5v-7q17 0 40.5 0.5t26.5 0.5v-50h-67v-363q0 -86 8 -110.5t42 -30.5zM529 412v106h-301v-106h301z" />
    <glyph glyph-name="hbar" unicode="&#x127;" horiz-adv-x="554" 
d="M538 13v-15q-44 2 -105 2t-105 -2v15q25 5 34 20t9 71v213q0 63 -22.5 91.5t-67.5 28.5q-50 0 -93 -45v-288q0 -56 9 -71t34 -20v-15q-44 2 -105 2t-105 -2v15q25 5 34 20t9 71v447q-9 0 -26.5 -0.5t-24.5 -0.5v60q15 -1 51 -1v17q0 50 -5 67t-26 23v15q88 0 155 31v-154
q108 0 188 2v-60q-41 1 -188 1v-128q68 57 149 57q30 0 54.5 -6t49.5 -21.5t39.5 -50t14.5 -85.5v-213q0 -56 9 -71t34 -20z" />
    <glyph glyph-name="Itilde" unicode="&#x128;" horiz-adv-x="320" 
d="M277 13v-15q-44 2 -117 2t-117 -2v15q34 6 42 30.5t8 110.5v419q0 86 -8 110.5t-42 30.5v15q44 -2 117 -2t117 2v-15q-34 -6 -42 -30.5t-8 -110.5v-419q0 -86 8 -110.5t42 -30.5zM308 880h13q-8 -42 -36.5 -74.5t-66.5 -32.5q-25 0 -75.5 23t-73.5 23q-43 0 -55 -46h-14
q14 50 43 76.5t62 26.5q25 0 72 -23t72 -23q41 0 59 50z" />
    <glyph glyph-name="itilde" unicode="&#x129;" horiz-adv-x="258" 
d="M237 13v-15q-44 2 -105 2t-105 -2v15q25 5 34 20t9 71v240q0 50 -5 67t-26 23v15q88 0 155 31v-376q0 -56 9 -71t34 -20zM278 628h13q-8 -42 -36.5 -74.5t-66.5 -32.5q-25 0 -75.5 23t-73.5 23q-43 0 -55 -46h-14q14 50 43 76.5t62 26.5q25 0 72 -23t72 -23q41 0 59 50z
" />
    <glyph glyph-name="Imacron" unicode="&#x12a;" horiz-adv-x="320" 
d="M277 13v-15q-44 2 -117 2t-117 -2v15q34 6 42 30.5t8 110.5v419q0 86 -8 110.5t-42 30.5v15q44 -2 117 -2t117 2v-15q-34 -6 -42 -30.5t-8 -110.5v-419q0 -86 8 -110.5t42 -30.5zM312 862v-60q-46 1 -152 1t-151 -1v60q90 -2 151 -2q60 0 152 2z" />
    <glyph glyph-name="imacron" unicode="&#x12b;" horiz-adv-x="258" 
d="M237 13v-15q-44 2 -105 2t-105 -2v15q25 5 34 20t9 71v240q0 50 -5 67t-26 23v15q88 0 155 31v-376q0 -56 9 -71t34 -20zM282 610v-60q-46 1 -152 1t-151 -1v60q90 -2 151 -2q60 0 152 2z" />
    <glyph glyph-name="Ibreve" unicode="&#x12c;" horiz-adv-x="320" 
d="M277 13v-15q-44 2 -117 2t-117 -2v15q34 6 42 30.5t8 110.5v419q0 86 -8 110.5t-42 30.5v15q44 -2 117 -2t117 2v-15q-34 -6 -42 -30.5t-8 -110.5v-419q0 -86 8 -110.5t42 -30.5zM265 923h32q-1 -55 -35.5 -98t-101.5 -43t-101.5 43t-35.5 98h32q16 -90 105 -90t105 90z
" />
    <glyph glyph-name="ibreve" unicode="&#x12d;" horiz-adv-x="258" 
d="M237 13v-15q-44 2 -105 2t-105 -2v15q25 5 34 20t9 71v240q0 50 -5 67t-26 23v15q88 0 155 31v-376q0 -56 9 -71t34 -20zM236 671h32q-1 -55 -35.5 -98t-101.5 -43t-101.5 43t-35.5 98h32q16 -90 105 -90t105 90z" />
    <glyph glyph-name="Iogonek" unicode="&#x12e;" horiz-adv-x="320" 
d="M237 -170l1 -19q-37 -21 -83 -21q-35 0 -58.5 16t-23.5 48q0 66 116 146h-29q-73 0 -117 -2v15q34 6 42 30.5t8 110.5v419q0 86 -8 110.5t-42 30.5v15q44 -2 117 -2t117 2v-15q-34 -6 -42 -30.5t-8 -110.5v-419q0 -86 8 -110.5t42 -30.5v-15q-7 1 -27 1.5t-30 0.5
q-86 -65 -86 -134q0 -47 49 -47q25 0 54 11z" />
    <glyph glyph-name="iogonek" unicode="&#x12f;" horiz-adv-x="258" 
d="M212 -170l1 -19q-37 -21 -83 -21q-35 0 -58.5 16t-23.5 48q0 66 116 146h-32q-61 0 -105 -2v15q25 5 34 20t9 71v240q0 50 -5 67t-26 23v15q88 0 155 31v-376q0 -56 9 -71t34 -20v-15q-5 1 -20 1.5t-22 0.5q-86 -65 -86 -134q0 -47 49 -47q25 0 54 11zM197 579
q0 -26 -18.5 -43.5t-46.5 -17.5q-26 0 -43.5 18t-17.5 43q0 28 17.5 46.5t43.5 18.5q28 0 46.5 -18t18.5 -47z" />
    <glyph glyph-name="Idotaccent" unicode="&#x130;" horiz-adv-x="320" 
d="M225 836q0 -26 -18.5 -43.5t-46.5 -17.5q-26 0 -43.5 17.5t-17.5 43.5q0 28 17.5 46.5t43.5 18.5q28 0 46.5 -18.5t18.5 -46.5zM277 13v-15q-44 2 -117 2t-117 -2v15q34 6 42 30.5t8 110.5v419q0 86 -8 110.5t-42 30.5v15q44 -2 117 -2t117 2v-15q-34 -6 -42 -30.5
t-8 -110.5v-419q0 -86 8 -110.5t42 -30.5z" />
    <glyph glyph-name="dotlessi" unicode="&#x131;" horiz-adv-x="258" 
d="M237 13v-15q-44 2 -105 2t-105 -2v15q25 5 34 20t9 71v240q0 50 -5 67t-26 23v15q88 0 155 31v-376q0 -56 9 -71t34 -20z" />
    <glyph glyph-name="IJ" unicode="&#x132;" horiz-adv-x="634" 
d="M277 13v-15q-44 2 -117 2t-117 -2v15q34 6 42 30.5t8 110.5v419q0 86 -8 110.5t-42 30.5v15q44 -2 117 -2t117 2v-15q-34 -6 -42 -30.5t-8 -110.5v-419q0 -86 8 -110.5t42 -30.5zM368 -199l-6 14q34 23 41 54t7 143v561q0 86 -8 110.5t-42 30.5v15q44 -2 117 -2t117 2
v-15q-34 -6 -42 -30.5t-8 -110.5v-554q0 -83 -38.5 -132.5t-137.5 -85.5z" />
    <glyph glyph-name="ij" unicode="&#x133;" horiz-adv-x="503" 
d="M237 13v-15q-44 2 -105 2t-105 -2v15q25 5 34 20t9 71v240q0 50 -5 67t-26 23v15q88 0 155 31v-376q0 -56 9 -71t34 -20zM197 579q0 -26 -18.5 -43.5t-46.5 -17.5q-26 0 -43.5 18t-17.5 43q0 28 17.5 46.5t43.5 18.5q28 0 46.5 -18t18.5 -47zM282 -225l-8 13
q33 26 39.5 65.5t6.5 169.5v321q0 50 -5 67t-26 23v15q88 0 155 31v-517q0 -60 -46 -110t-116 -78zM447 579q0 -26 -18.5 -43.5t-46.5 -17.5q-26 0 -43.5 18t-17.5 43q0 28 17.5 46.5t43.5 18.5q28 0 46.5 -18t18.5 -47z" />
    <glyph glyph-name="Jcircumflex" unicode="&#x134;" horiz-adv-x="314" 
d="M48 -199l-6 14q34 23 41 54t7 143v561q0 86 -8 110.5t-42 30.5v15q44 -2 117 -2t117 2v-15q-34 -6 -42 -30.5t-8 -110.5v-554q0 -83 -38.5 -132.5t-137.5 -85.5zM320 782h-37l-124 115l-124 -115h-37l138 177h46z" />
    <glyph glyph-name="jcircumflex" unicode="&#x135;" horiz-adv-x="245" 
d="M24 -225l-8 13q33 26 39.5 65.5t6.5 169.5v321q0 50 -5 67t-26 23v15q88 0 155 31v-517q0 -60 -46 -110t-116 -78zM280 530h-37l-124 115l-124 -115h-37l138 177h46z" />
    <glyph glyph-name="Kcommaaccent" unicode="&#x136;" horiz-adv-x="609" 
d="M642 13v-15q-42 2 -126 2q-80 0 -124 -2v15q19 6 19 24q0 26 -45 99l-139 225v-207q0 -86 8 -110.5t42 -30.5v-15q-44 2 -117 2t-117 -2v15q34 6 42 30.5t8 110.5v419q0 86 -8 110.5t-42 30.5v15q44 -2 117 -2t117 2v-15q-34 -6 -42 -30.5t-8 -110.5v-195
q193 252 193 297q0 27 -39 37v15q44 -2 117 -2q65 0 107 2v-15q-65 -13 -128 -73t-154 -191l195 -298q35 -54 63 -85.5t61 -51.5zM314 -232l-7 5q35 27 35 77q0 9 -2 17q-6 -5 -18 -5q-18 0 -29 12.5t-11 31.5q0 21 13.5 35.5t36.5 14.5q22 0 38.5 -14.5t16.5 -43.5
q0 -83 -73 -130z" />
    <glyph glyph-name="kcommaaccent" unicode="&#x137;" horiz-adv-x="493" 
d="M511 13v-15q-52 2 -91 2q-45 0 -99 -2v15q19 3 19 13q0 8 -29 53l-123 183v-158q0 -56 9 -71t34 -20v-15q-44 2 -105 2t-105 -2v15q25 5 34 20t9 71v522q0 50 -5 67t-26 23v15q88 0 155 31v-485q131 120 131 150q0 29 -33 35v15q46 -2 94 -2q41 0 89 2v-16
q-41 -12 -81.5 -41t-100.5 -89l87 -135q71 -111 95 -143t42 -40zM253 -232l-7 5q35 27 35 77q0 9 -2 17q-6 -5 -18 -5q-18 0 -29 12.5t-11 31.5q0 21 13.5 35.5t36.5 14.5q22 0 38.5 -14.5t16.5 -43.5q0 -83 -73 -130z" />
    <glyph glyph-name="kgreenlandic" unicode="&#x138;" horiz-adv-x="543" 
d="M569 13v-15q-52 2 -116 2q-59 0 -113 -2v15q19 3 19 13q0 18 -29 53l-136 163v-138q0 -56 9 -71t34 -20v-15q-44 2 -105 2t-105 -2v15q25 5 34 20t9 71v240q0 50 -5 67t-26 23v15q88 0 155 31v-223q65 58 99.5 94.5t43 50.5t8.5 25q0 24 -33 35v15q46 -2 94 -2q41 0 89 2
v-16q-40 -12 -82.5 -47t-115.5 -108l94 -110q89 -103 124 -138.5t54 -44.5z" />
    <glyph glyph-name="Lacute" unicode="&#x139;" horiz-adv-x="522" 
d="M496 181h15q-4 -136 -4 -183q-75 2 -347 2q-73 0 -117 -2v15q34 6 42 30.5t8 110.5v419q0 86 -8 110.5t-42 30.5v15q44 -2 117 -2t117 2v-15q-34 -6 -42 -30.5t-8 -110.5v-533q43 -4 116 -4q31 0 50 3.5t41 17t37 44t25 80.5zM269 947l52 -53l-165 -121l-21 19z" />
    <glyph glyph-name="lacute" unicode="&#x13a;" horiz-adv-x="262" 
d="M236 13v-15q-44 2 -105 2t-105 -2v15q25 5 34 20t9 71v522q0 50 -5 67t-26 23v15q88 0 155 31v-658q0 -56 9 -71t34 -20zM209 985l52 -53l-165 -121l-21 19z" />
    <glyph glyph-name="Lcommaaccent" unicode="&#x13b;" horiz-adv-x="522" 
d="M496 181h15q-4 -136 -4 -183q-75 2 -347 2q-73 0 -117 -2v15q34 6 42 30.5t8 110.5v419q0 86 -8 110.5t-42 30.5v15q44 -2 117 -2t117 2v-15q-34 -6 -42 -30.5t-8 -110.5v-533q43 -4 116 -4q31 0 50 3.5t41 17t37 44t25 80.5zM281 -232l-7 5q35 27 35 77q0 9 -2 17
q-6 -5 -18 -5q-18 0 -29 12.5t-11 31.5q0 21 13.5 35.5t36.5 14.5q22 0 38.5 -14.5t16.5 -43.5q0 -83 -73 -130z" />
    <glyph glyph-name="lcommaaccent" unicode="&#x13c;" horiz-adv-x="262" 
d="M236 13v-15q-44 2 -105 2t-105 -2v15q25 5 34 20t9 71v522q0 50 -5 67t-26 23v15q88 0 155 31v-658q0 -56 9 -71t34 -20zM116 -232l-7 5q35 27 35 77q0 9 -2 17q-6 -5 -18 -5q-18 0 -29 12.5t-11 31.5q0 21 13.5 35.5t36.5 14.5q22 0 38.5 -14.5t16.5 -43.5
q0 -83 -73 -130z" />
    <glyph glyph-name="Lcaron" unicode="&#x13d;" horiz-adv-x="525" 
d="M496 181h15q-4 -136 -4 -183q-75 2 -347 2q-73 0 -117 -2v15q34 6 42 30.5t8 110.5v419q0 86 -8 110.5t-42 30.5v15q44 -2 117 -2t117 2v-15q-34 -6 -42 -30.5t-8 -110.5v-533q43 -4 116 -4q31 0 50 3.5t41 17t37 44t25 80.5zM412 539l-7 5q35 27 35 77q0 9 -2 17
q-6 -5 -18 -5q-18 0 -29 12.5t-11 31.5q0 21 13.5 35.5t36.5 14.5q22 0 38.5 -14.5t16.5 -43.5q0 -83 -73 -130z" />
    <glyph glyph-name="lcaron" unicode="&#x13e;" horiz-adv-x="262" 
d="M236 13v-15q-44 2 -105 2t-105 -2v15q25 5 34 20t9 71v522q0 50 -5 67t-26 23v15q88 0 155 31v-658q0 -56 9 -71t34 -20zM283 538l-7 5q35 27 35 77q0 9 -2 17q-6 -5 -18 -5q-18 0 -29 12.5t-11 31.5q0 21 13.5 35.5t36.5 14.5q22 0 38.5 -14.5t16.5 -43.5
q0 -83 -73 -130z" />
    <glyph glyph-name="Ldot" unicode="&#x13f;" horiz-adv-x="535" 
d="M496 181h15q-4 -136 -4 -183q-75 2 -347 2q-73 0 -117 -2v15q34 6 42 30.5t8 110.5v419q0 86 -8 110.5t-42 30.5v15q44 -2 117 -2t117 2v-15q-34 -6 -42 -30.5t-8 -110.5v-533q43 -4 116 -4q31 0 50 3.5t41 17t37 44t25 80.5zM476 374q0 -18 -14 -31.5t-35 -13.5
q-18 0 -31.5 13.5t-13.5 31.5q0 21 13.5 35t31.5 14q21 0 35 -14t14 -35z" />
    <glyph glyph-name="ldot" unicode="&#x140;" horiz-adv-x="396" 
d="M236 13v-15q-44 2 -105 2t-105 -2v15q25 5 34 20t9 71v522q0 50 -5 67t-26 23v15q88 0 155 31v-658q0 -56 9 -71t34 -20zM377 363q0 -18 -14 -31.5t-35 -13.5q-18 0 -31.5 13.5t-13.5 31.5q0 21 13.5 35t31.5 14q21 0 35 -14t14 -35z" />
    <glyph glyph-name="Lslash" unicode="&#x141;" horiz-adv-x="523" 
d="M497 181h15q-4 -136 -4 -183q-75 2 -347 2q-73 0 -117 -2v15q34 6 42 30.5t8 110.5v62l-65 -34v50l65 34v307q0 86 -8 110.5t-42 30.5v15q44 -2 117 -2t117 2v-15q-34 -6 -42 -30.5t-8 -110.5v-235l136 76v-50l-136 -76v-248q43 -4 116 -4q31 0 50 3.5t41 17t37 44
t25 80.5z" />
    <glyph glyph-name="lslash" unicode="&#x142;" horiz-adv-x="276" 
d="M239 13v-15q-44 2 -105 2t-105 -2v15q25 5 34 20t9 71v119l-79 -41v40l79 41v363q0 50 -5 67t-26 23v15q88 0 155 31v-431l89 49v-40l-89 -49v-187q0 -56 9 -71t34 -20z" />
    <glyph glyph-name="Nacute" unicode="&#x143;" horiz-adv-x="736" 
d="M650 -22h-13q-292 324 -503 528v-203q0 -163 15.5 -220.5t59.5 -69.5v-15q-44 2 -93 2q-37 0 -79 -2v15q38 11 46.5 62.5t8.5 228.5q0 341 -4 438h17q248 -276 497 -528v210q0 166 -15 222t-60 68v15q44 -2 93 -2q37 0 79 2v-15q-39 -11 -47 -61t-8 -230v-241
q0 -121 6 -204zM446 947l52 -53l-165 -121l-21 19z" />
    <glyph glyph-name="nacute" unicode="&#x144;" horiz-adv-x="560" 
d="M544 13v-15q-44 2 -105 2t-105 -2v15q25 5 34 20t9 71v213q0 63 -22.5 91.5t-67.5 28.5q-50 0 -93 -45v-288q0 -56 9 -71t34 -20v-15q-44 2 -105 2t-105 -2v15q25 5 34 20t9 71v240q0 50 -5 67t-26 23v15q88 0 155 31v-57q68 57 149 57q30 0 54.5 -6t49.5 -21.5t39.5 -50
t14.5 -85.5v-213q0 -56 9 -71t34 -20zM352 695l52 -53l-165 -121l-21 19z" />
    <glyph glyph-name="Ncommaaccent" unicode="&#x145;" horiz-adv-x="737" 
d="M650 -22h-13q-292 324 -503 528v-203q0 -163 15.5 -220.5t59.5 -69.5v-15q-44 2 -93 2q-37 0 -79 -2v15q38 11 46.5 62.5t8.5 228.5q0 341 -4 438h17q248 -276 497 -528v210q0 166 -15 222t-60 68v15q44 -2 93 -2q37 0 79 2v-15q-39 -11 -47 -61t-8 -230v-241
q0 -121 6 -204zM347 -232l-7 5q35 27 35 77q0 9 -2 17q-6 -5 -18 -5q-18 0 -29 12.5t-11 31.5q0 21 13.5 35.5t36.5 14.5q22 0 38.5 -14.5t16.5 -43.5q0 -83 -73 -130z" />
    <glyph glyph-name="ncommaaccent" unicode="&#x146;" horiz-adv-x="559" 
d="M544 13v-15q-44 2 -105 2t-105 -2v15q25 5 34 20t9 71v213q0 63 -22.5 91.5t-67.5 28.5q-50 0 -93 -45v-288q0 -56 9 -71t34 -20v-15q-44 2 -105 2t-105 -2v15q25 5 34 20t9 71v240q0 50 -5 67t-26 23v15q88 0 155 31v-57q68 57 149 57q30 0 54.5 -6t49.5 -21.5t39.5 -50
t14.5 -85.5v-213q0 -56 9 -71t34 -20zM262 -232l-7 5q35 27 35 77q0 9 -2 17q-6 -5 -18 -5q-18 0 -29 12.5t-11 31.5q0 21 13.5 35.5t36.5 14.5q22 0 38.5 -14.5t16.5 -43.5q0 -83 -73 -130z" />
    <glyph glyph-name="Ncaron" unicode="&#x147;" horiz-adv-x="736" 
d="M650 -22h-13q-292 324 -503 528v-203q0 -163 15.5 -220.5t59.5 -69.5v-15q-44 2 -93 2q-37 0 -79 -2v15q38 11 46.5 62.5t8.5 228.5q0 341 -4 438h17q248 -276 497 -528v210q0 166 -15 222t-60 68v15q44 -2 93 -2q37 0 79 2v-15q-39 -11 -47 -61t-8 -230v-241
q0 -121 6 -204zM398 782h-46l-138 177h37l124 -115l124 115h37z" />
    <glyph glyph-name="ncaron" unicode="&#x148;" horiz-adv-x="560" 
d="M544 13v-15q-44 2 -105 2t-105 -2v15q25 5 34 20t9 71v213q0 63 -22.5 91.5t-67.5 28.5q-50 0 -93 -45v-288q0 -56 9 -71t34 -20v-15q-44 2 -105 2t-105 -2v15q25 5 34 20t9 71v240q0 50 -5 67t-26 23v15q88 0 155 31v-57q68 57 149 57q30 0 54.5 -6t49.5 -21.5t39.5 -50
t14.5 -85.5v-213q0 -56 9 -71t34 -20zM304 530h-46l-138 177h37l124 -115l124 115h37z" />
    <glyph glyph-name="Eng" unicode="&#x14a;" horiz-adv-x="826" 
d="M560 -199l-6 14q34 23 41 54t7 143v4q-283 310 -468 490v-203q0 -163 15.5 -220.5t59.5 -69.5v-15q-44 2 -93 2q-37 0 -79 -2v15q38 11 46.5 62.5t8.5 228.5q0 341 -4 438h17q248 -276 497 -528v359q0 86 -8 110.5t-42 30.5v15q44 -2 117 -2t117 2v-15q-34 -6 -42 -30.5
t-8 -110.5v-554q0 -83 -38.5 -132.5t-137.5 -85.5z" />
    <glyph glyph-name="eng" unicode="&#x14b;" horiz-adv-x="553" 
d="M339 -225l-8 13q33 26 39.5 65.5t6.5 169.5v294q0 63 -22.5 91.5t-67.5 28.5q-50 0 -93 -45v-288q0 -56 9 -71t34 -20v-15q-44 2 -105 2t-105 -2v15q25 5 34 20t9 71v240q0 50 -5 67t-26 23v15q88 0 155 31v-57q68 57 149 57q30 0 54.5 -6t49.5 -21.5t39.5 -50
t14.5 -85.5v-354q0 -60 -46 -110t-116 -78z" />
    <glyph glyph-name="Omacron" unicode="&#x14c;" horiz-adv-x="802" 
d="M771 359q0 -160 -110.5 -264.5t-259.5 -104.5t-259.5 104.5t-110.5 264.5q0 108 52.5 194.5t136.5 132.5t181 46t181 -46t136.5 -132.5t52.5 -194.5zM401 22q115 0 169 82t54 255q0 175 -54 258t-169 83t-169 -83t-54 -258q0 -173 54 -255t169 -82zM552 862v-60
q-46 1 -152 1t-151 -1v60q90 -2 151 -2q60 0 152 2z" />
    <glyph glyph-name="omacron" unicode="&#x14d;" horiz-adv-x="552" 
d="M528 234q0 -105 -76 -172.5t-176 -67.5t-176 67.5t-76 172.5q0 109 75.5 177.5t176.5 68.5t176.5 -68.5t75.5 -177.5zM276 21q66 0 90 51.5t24 161.5q0 115 -24 167t-90 52t-90 -52t-24 -167q0 -110 24 -161.5t90 -51.5zM426 610v-60q-46 1 -152 1t-151 -1v60
q90 -2 151 -2q60 0 152 2z" />
    <glyph glyph-name="Obreve" unicode="&#x14e;" horiz-adv-x="802" 
d="M771 359q0 -160 -110.5 -264.5t-259.5 -104.5t-259.5 104.5t-110.5 264.5q0 108 52.5 194.5t136.5 132.5t181 46t181 -46t136.5 -132.5t52.5 -194.5zM401 22q115 0 169 82t54 255q0 175 -54 258t-169 83t-169 -83t-54 -258q0 -173 54 -255t169 -82zM506 923h32
q-1 -55 -35.5 -98t-101.5 -43t-101.5 43t-35.5 98h32q16 -90 105 -90t105 90z" />
    <glyph glyph-name="obreve" unicode="&#x14f;" horiz-adv-x="552" 
d="M528 234q0 -105 -76 -172.5t-176 -67.5t-176 67.5t-76 172.5q0 109 75.5 177.5t176.5 68.5t176.5 -68.5t75.5 -177.5zM276 21q66 0 90 51.5t24 161.5q0 115 -24 167t-90 52t-90 -52t-24 -167q0 -110 24 -161.5t90 -51.5zM379 671h32q-1 -55 -35.5 -98t-101.5 -43
t-101.5 43t-35.5 98h32q16 -90 105 -90t105 90z" />
    <glyph glyph-name="Ohungarumlaut" unicode="&#x150;" horiz-adv-x="802" 
d="M771 359q0 -160 -110.5 -264.5t-259.5 -104.5t-259.5 104.5t-110.5 264.5q0 108 52.5 194.5t136.5 132.5t181 46t181 -46t136.5 -132.5t52.5 -194.5zM401 22q115 0 169 82t54 255q0 175 -54 258t-169 83t-169 -83t-54 -258q0 -173 54 -255t169 -82zM471 905l-171 -131
l-16 15l142 163zM611 905l-171 -131l-16 15l142 163z" />
    <glyph glyph-name="ohungarumlaut" unicode="&#x151;" horiz-adv-x="552" 
d="M528 234q0 -105 -76 -172.5t-176 -67.5t-176 67.5t-76 172.5q0 109 75.5 177.5t176.5 68.5t176.5 -68.5t75.5 -177.5zM276 21q66 0 90 51.5t24 161.5q0 115 -24 167t-90 52t-90 -52t-24 -167q0 -110 24 -161.5t90 -51.5zM338 653l-171 -131l-16 15l142 163zM478 653
l-171 -131l-16 15l142 163z" />
    <glyph glyph-name="OE" unicode="&#x152;" horiz-adv-x="1135" 
d="M1075 199h15q-3 -144 -3 -201q-75 2 -356 2q-73 0 -117 -2v15q29 5 38.5 22t10.5 69q-104 -114 -253 -114q-153 0 -266.5 104.5t-113.5 264.5q0 108 54 194.5t140.5 132.5t185.5 46q149 0 253 -112q-1 53 -10.5 71t-38.5 23v15q44 -2 117 -2q285 0 360 2q-2 -50 -2 -111
q0 -51 1 -72h-15q-15 43 -32.5 71t-32.5 43t-41.5 22t-44.5 8t-58 1q-44 0 -68 -4v-294h59q57 0 88 16t45 70h15q-4 -60 -4 -93q0 -53 4 -101h-15q-10 47 -42 60.5t-91 13.5h-59v-319q24 -4 68 -4q41 0 65 4t53 19t51 49.5t40 90.5zM410 22q119 0 186 84.5t67 252.5
q0 171 -67 256t-186 85q-233 0 -233 -341q0 -337 233 -337z" />
    <glyph glyph-name="oe" unicode="&#x153;" horiz-adv-x="884" 
d="M849 116l9 -13q-73 -113 -189 -113q-134 0 -196 109q-75 -105 -197 -105q-100 0 -176 67.5t-76 172.5q0 109 75.5 177.5t176.5 68.5q58 0 111 -28t88 -80q34 52 83.5 80t103.5 28q84 0 142 -47.5t58 -151.5h-312v-12q0 -96 46.5 -155t119.5 -59q69 0 133 61zM276 21
q66 0 90 51.5t24 161.5q0 115 -24 167t-90 52t-90 -52t-24 -167q0 -110 24 -161.5t90 -51.5zM553 313h186q0 140 -80 140q-42 0 -70 -40t-36 -100z" />
    <glyph glyph-name="Racute" unicode="&#x154;" horiz-adv-x="608" 
d="M608 13v-8q-9 -9 -61 -9q-69 0 -111 35q-13 11 -25 25.5t-29 43.5t-29.5 51.5t-42 77.5t-50.5 94h-33v-169q0 -86 8 -110.5t42 -30.5v-15q-44 2 -117 2t-117 -2v15q34 6 42 30.5t8 110.5v419q0 86 -8 110.5t-42 30.5v15q44 -2 118 -2q30 0 72.5 1t53.5 1q129 0 196.5 -54
t67.5 -146q0 -130 -156 -184q42 -91 111.5 -206t101.5 -126zM227 350h45q72 0 103 40t31 128q0 181 -130 181q-31 0 -49 -9v-340zM365 947l52 -53l-165 -121l-21 19z" />
    <glyph glyph-name="racute" unicode="&#x155;" horiz-adv-x="422" 
d="M237 13v-15q-44 2 -105 2t-105 -2v15q25 5 34 20t9 71v240q0 50 -5 67t-26 23v15q88 0 155 31v-82q48 48 73.5 65t57.5 17q40 0 65.5 -33t25.5 -107h-121q0 58 -43 58q-30 0 -58 -32v-262q0 -56 9 -71t34 -20zM308 695l52 -53l-165 -121l-21 19z" />
    <glyph glyph-name="Rcommaaccent" unicode="&#x156;" horiz-adv-x="607" 
d="M608 13v-8q-9 -9 -61 -9q-69 0 -111 35q-13 11 -25 25.5t-29 43.5t-29.5 51.5t-42 77.5t-50.5 94h-33v-169q0 -86 8 -110.5t42 -30.5v-15q-44 2 -117 2t-117 -2v15q34 6 42 30.5t8 110.5v419q0 86 -8 110.5t-42 30.5v15q44 -2 118 -2q30 0 72.5 1t53.5 1q129 0 196.5 -54
t67.5 -146q0 -130 -156 -184q42 -91 111.5 -206t101.5 -126zM227 350h45q72 0 103 40t31 128q0 181 -130 181q-31 0 -49 -9v-340zM328 -232l-7 5q35 27 35 77q0 9 -2 17q-6 -5 -18 -5q-18 0 -29 12.5t-11 31.5q0 21 13.5 35.5t36.5 14.5q22 0 38.5 -14.5t16.5 -43.5
q0 -83 -73 -130z" />
    <glyph glyph-name="rcommaaccent" unicode="&#x157;" horiz-adv-x="423" 
d="M237 13v-15q-44 2 -105 2t-105 -2v15q25 5 34 20t9 71v240q0 50 -5 67t-26 23v15q88 0 155 31v-82q48 48 73.5 65t57.5 17q40 0 65.5 -33t25.5 -107h-121q0 58 -43 58q-30 0 -58 -32v-262q0 -56 9 -71t34 -20zM111 -232l-7 5q35 27 35 77q0 9 -2 17q-6 -5 -18 -5
q-18 0 -29 12.5t-11 31.5q0 21 13.5 35.5t36.5 14.5q22 0 38.5 -14.5t16.5 -43.5q0 -83 -73 -130z" />
    <glyph glyph-name="Rcaron" unicode="&#x158;" horiz-adv-x="608" 
d="M608 13v-8q-9 -9 -61 -9q-69 0 -111 35q-13 11 -25 25.5t-29 43.5t-29.5 51.5t-42 77.5t-50.5 94h-33v-169q0 -86 8 -110.5t42 -30.5v-15q-44 2 -117 2t-117 -2v15q34 6 42 30.5t8 110.5v419q0 86 -8 110.5t-42 30.5v15q44 -2 118 -2q30 0 72.5 1t53.5 1q129 0 196.5 -54
t67.5 -146q0 -130 -156 -184q42 -91 111.5 -206t101.5 -126zM227 350h45q72 0 103 40t31 128q0 181 -130 181q-31 0 -49 -9v-340zM310 782h-46l-138 177h37l124 -115l124 115h37z" />
    <glyph glyph-name="rcaron" unicode="&#x159;" horiz-adv-x="422" 
d="M237 13v-15q-44 2 -105 2t-105 -2v15q25 5 34 20t9 71v240q0 50 -5 67t-26 23v15q88 0 155 31v-82q48 48 73.5 65t57.5 17q40 0 65.5 -33t25.5 -107h-121q0 58 -43 58q-30 0 -58 -32v-262q0 -56 9 -71t34 -20zM243 530h-46l-138 177h37l124 -115l124 115h37z" />
    <glyph glyph-name="Sacute" unicode="&#x15a;" horiz-adv-x="516" 
d="M449 536h-16q-22 93 -62 133.5t-104 40.5q-51 0 -82.5 -30.5t-31.5 -81.5q0 -37 18 -66t46 -48t62.5 -36.5t69 -37t62.5 -43t46 -60.5t18 -85q0 -100 -59.5 -166t-172.5 -66q-36 0 -82.5 9t-65.5 9q-25 0 -42 -5q2 36 2 49q0 19 -2 54.5t-2 43.5q0 50 10 74h15
q10 -87 49.5 -144.5t117.5 -57.5q61 0 94 35.5t33 92.5q0 50 -33 87t-80 62t-93.5 52t-79.5 72.5t-33 108.5q0 89 61 149.5t155 60.5q34 0 70.5 -8t51.5 -8q39 0 62 11q-3 -44 -3 -108q0 -49 1 -93zM325 947l52 -53l-165 -121l-21 19z" />
    <glyph glyph-name="sacute" unicode="&#x15b;" horiz-adv-x="391" 
d="M334 345h-15q-30 108 -118 108q-30 0 -48 -16.5t-18 -46.5q0 -31 23 -51t56 -33t66.5 -29t56.5 -49t23 -83q0 -61 -47 -106t-131 -45q-25 0 -58 7.5t-48 7.5q-19 0 -34 -5q3 14 5 75.5t7 83.5h15q0 -61 31.5 -101.5t81.5 -40.5q33 0 52 19.5t19 54.5t-22 59t-54 38.5
t-64 30t-54 45t-22 73.5q0 62 43.5 100.5t119.5 38.5q28 0 65 -6t52 -6q12 0 18 1q-3 -15 -3 -38q0 -22 2 -86zM258 695l52 -53l-165 -121l-21 19z" />
    <glyph glyph-name="Scircumflex" unicode="&#x15c;" horiz-adv-x="516" 
d="M449 536h-16q-22 93 -62 133.5t-104 40.5q-51 0 -82.5 -30.5t-31.5 -81.5q0 -37 18 -66t46 -48t62.5 -36.5t69 -37t62.5 -43t46 -60.5t18 -85q0 -100 -59.5 -166t-172.5 -66q-36 0 -82.5 9t-65.5 9q-25 0 -42 -5q2 36 2 49q0 19 -2 54.5t-2 43.5q0 50 10 74h15
q10 -87 49.5 -144.5t117.5 -57.5q61 0 94 35.5t33 92.5q0 50 -33 87t-80 62t-93.5 52t-79.5 72.5t-33 108.5q0 89 61 149.5t155 60.5q34 0 70.5 -8t51.5 -8q39 0 62 11q-3 -44 -3 -108q0 -49 1 -93zM425 782h-37l-124 115l-124 -115h-37l138 177h46z" />
    <glyph glyph-name="scircumflex" unicode="&#x15d;" horiz-adv-x="391" 
d="M334 345h-15q-30 108 -118 108q-30 0 -48 -16.5t-18 -46.5q0 -31 23 -51t56 -33t66.5 -29t56.5 -49t23 -83q0 -61 -47 -106t-131 -45q-25 0 -58 7.5t-48 7.5q-19 0 -34 -5q3 14 5 75.5t7 83.5h15q0 -61 31.5 -101.5t81.5 -40.5q33 0 52 19.5t19 54.5t-22 59t-54 38.5
t-64 30t-54 45t-22 73.5q0 62 43.5 100.5t119.5 38.5q28 0 65 -6t52 -6q12 0 18 1q-3 -15 -3 -38q0 -22 2 -86zM355 530h-37l-124 115l-124 -115h-37l138 177h46z" />
    <glyph glyph-name="Scedilla" unicode="&#x15e;" horiz-adv-x="516" 
d="M180 -135h6q15 -30 52 -30q48 0 48 42q0 43 -39 43q-26 0 -42 -19h-15l42 89q-31 1 -74.5 9.5t-62.5 8.5q-25 0 -42 -5q2 36 2 49q0 19 -2 54.5t-2 43.5q0 50 10 74h15q10 -87 49.5 -144.5t117.5 -57.5q61 0 94 35.5t33 92.5q0 50 -33 87t-80 62t-93.5 52t-79.5 72.5
t-33 108.5q0 89 61 149.5t155 60.5q34 0 70.5 -8t51.5 -8q39 0 62 11q-3 -44 -3 -108q0 -49 1 -93h-16q-22 93 -62 133.5t-104 40.5q-51 0 -82.5 -30.5t-31.5 -81.5q0 -37 18 -66t46 -48t62.5 -36.5t69 -37t62.5 -43t46 -60.5t18 -85q0 -97 -55 -161.5t-161 -69.5l-15 -43
q16 4 27 4q32 0 53.5 -17t21.5 -52q0 -38 -27 -58t-60 -20q-35 0 -56.5 15.5t-22.5 44.5z" />
    <glyph glyph-name="scedilla" unicode="&#x15f;" horiz-adv-x="391" 
d="M117 -135h6q15 -30 52 -30q48 0 48 42q0 43 -39 43q-26 0 -42 -19h-15l44 93q-20 1 -50 8t-45 7q-19 0 -34 -5q3 14 5 75.5t7 83.5h15q0 -61 31.5 -101.5t81.5 -40.5q33 0 52 19.5t19 54.5t-22 59t-54 38.5t-64 30t-54 45t-22 73.5q0 62 43.5 100.5t119.5 38.5
q28 0 65 -6t52 -6q12 0 18 1q-3 -15 -3 -38q0 -22 2 -86h-15q-30 108 -118 108q-30 0 -48 -16.5t-18 -46.5q0 -31 23 -51t56 -33t66.5 -29t56.5 -49t23 -83q0 -58 -43 -102t-119 -48l-17 -47q16 4 27 4q32 0 53.5 -17t21.5 -52q0 -38 -27 -58t-60 -20q-35 0 -56.5 15.5
t-22.5 44.5z" />
    <glyph glyph-name="Scaron" unicode="&#x160;" horiz-adv-x="516" 
d="M449 536h-16q-22 93 -62 133.5t-104 40.5q-51 0 -82.5 -30.5t-31.5 -81.5q0 -37 18 -66t46 -48t62.5 -36.5t69 -37t62.5 -43t46 -60.5t18 -85q0 -100 -59.5 -166t-172.5 -66q-36 0 -82.5 9t-65.5 9q-25 0 -42 -5q2 36 2 49q0 19 -2 54.5t-2 43.5q0 50 10 74h15
q10 -87 49.5 -144.5t117.5 -57.5q61 0 94 35.5t33 92.5q0 50 -33 87t-80 62t-93.5 52t-79.5 72.5t-33 108.5q0 89 61 149.5t155 60.5q34 0 70.5 -8t51.5 -8q39 0 62 11q-3 -44 -3 -108q0 -49 1 -93zM289 782h-46l-138 177h37l124 -115l124 115h37z" />
    <glyph glyph-name="scaron" unicode="&#x161;" horiz-adv-x="391" 
d="M334 345h-15q-30 108 -118 108q-30 0 -48 -16.5t-18 -46.5q0 -31 23 -51t56 -33t66.5 -29t56.5 -49t23 -83q0 -61 -47 -106t-131 -45q-25 0 -58 7.5t-48 7.5q-19 0 -34 -5q3 14 5 75.5t7 83.5h15q0 -61 31.5 -101.5t81.5 -40.5q33 0 52 19.5t19 54.5t-22 59t-54 38.5
t-64 30t-54 45t-22 73.5q0 62 43.5 100.5t119.5 38.5q28 0 65 -6t52 -6q12 0 18 1q-3 -15 -3 -38q0 -22 2 -86zM219 530h-46l-138 177h37l124 -115l124 115h37z" />
    <glyph glyph-name="Tcommaaccent" unicode="&#x162;" horiz-adv-x="554" 
d="M394 13v-15q-44 2 -117 2t-117 -2v15q34 6 42 30.5t8 110.5v527h-11q-55 0 -88 -5.5t-50 -21.5t-23 -32t-12 -48h-16q2 48 2 107q0 10 -0.5 28.5t-0.5 26.5q44 -19 268 -19q220 0 264 19q0 -8 -0.5 -26.5t-0.5 -28.5q0 -59 2 -107h-16q-6 32 -12 48t-23 32t-50 21.5
t-88 5.5h-11v-527q0 -86 8 -110.5t42 -30.5zM257 -232l-7 5q35 27 35 77q0 9 -2 17q-6 -5 -18 -5q-18 0 -29 12.5t-11 31.5q0 21 13.5 35.5t36.5 14.5q22 0 38.5 -14.5t16.5 -43.5q0 -83 -73 -130z" />
    <glyph glyph-name="tcommaaccent" unicode="&#x163;" horiz-adv-x="315" 
d="M304 96l12 -9q-27 -93 -114 -93q-65 0 -102.5 34.5t-37.5 104.5v276h-49v15q118 69 155 212l25 -5q-7 -56 -7 -156h30q23 0 34.5 1t26.5 6t25 16l10 -12q-28 -42 -46 -77h-80v-255q0 -56 14 -80.5t46 -24.5q34 0 58 47zM155 -232l-7 5q35 27 35 77q0 9 -2 17
q-6 -5 -18 -5q-18 0 -29 12.5t-11 31.5q0 21 13.5 35.5t36.5 14.5q22 0 38.5 -14.5t16.5 -43.5q0 -83 -73 -130z" />
    <glyph glyph-name="Tcaron" unicode="&#x164;" horiz-adv-x="556" 
d="M395 13v-15q-44 2 -117 2t-117 -2v15q34 6 42 30.5t8 110.5v527h-11q-55 0 -88 -5.5t-50 -21.5t-23 -32t-12 -48h-16q2 48 2 107q0 10 -0.5 28.5t-0.5 26.5q44 -19 268 -19q220 0 264 19q0 -8 -0.5 -26.5t-0.5 -28.5q0 -59 2 -107h-16q-6 32 -12 48t-23 32t-50 21.5
t-88 5.5h-11v-527q0 -86 8 -110.5t42 -30.5zM304 782h-46l-138 177h37l124 -115l124 115h37z" />
    <glyph glyph-name="tcaron" unicode="&#x165;" horiz-adv-x="316" 
d="M305 96l12 -9q-27 -93 -114 -93q-65 0 -102.5 34.5t-37.5 104.5v276h-49v15q118 69 155 212l25 -5q-7 -56 -7 -156h30q23 0 34.5 1t26.5 6t25 16l10 -12q-28 -42 -46 -77h-80v-255q0 -56 14 -80.5t46 -24.5q34 0 58 47zM290 548l-7 5q35 27 35 77q0 9 -2 17q-6 -5 -18 -5
q-18 0 -29 12.5t-11 31.5q0 21 13.5 35.5t36.5 14.5q22 0 38.5 -14.5t16.5 -43.5q0 -83 -73 -130z" />
    <glyph glyph-name="Tbar" unicode="&#x166;" horiz-adv-x="556" 
d="M395 13v-15q-44 2 -117 2t-117 -2v15q34 6 42 30.5t8 110.5v190q-26 0 -69.5 -0.5t-56.5 -0.5v50q58 -2 126 -2v290h-11q-55 0 -88 -5.5t-50 -21.5t-23 -32t-12 -48h-16q2 48 2 107q0 10 -0.5 28.5t-0.5 26.5q44 -19 268 -19q220 0 264 19q0 -8 -0.5 -26.5t-0.5 -28.5
q0 -59 2 -107h-16q-6 32 -12 48t-23 32t-50 21.5t-88 5.5h-11v-290q73 0 133 2v-50q-13 0 -59.5 0.5t-73.5 0.5v-190q0 -86 8 -110.5t42 -30.5z" />
    <glyph glyph-name="tbar" unicode="&#x167;" horiz-adv-x="318" 
d="M306 96l12 -9q-27 -93 -114 -93q-65 0 -102.5 34.5t-37.5 104.5v121q-8 0 -24.5 -0.5t-25.5 -0.5v50l50 -2v108h-49v15q118 69 155 212l25 -5q-7 -56 -7 -156h30q23 0 34.5 1t26.5 6t25 16l10 -12q-28 -42 -46 -77h-80v-108q43 0 109 2v-50q-16 0 -53 0.5t-56 0.5v-100
q0 -56 14 -80.5t46 -24.5q34 0 58 47z" />
    <glyph glyph-name="Utilde" unicode="&#x168;" horiz-adv-x="696" 
d="M568 289v185q0 103 -7.5 151.5t-21.5 64t-46 24.5v15q44 -2 93 -2q37 0 79 2v-15q-40 -12 -47.5 -47.5t-7.5 -193.5v-200q0 -133 -50.5 -208t-176.5 -75q-182 0 -249 85q-50 64 -50 197v301q0 86 -8 110.5t-42 30.5v15q44 -2 117 -2t117 2v-15q-34 -6 -42 -30.5
t-8 -110.5v-297q0 -144 32.5 -196t136.5 -52q98 0 139.5 61.5t41.5 199.5zM529 880h13q-8 -42 -36.5 -74.5t-66.5 -32.5q-25 0 -75.5 23t-73.5 23q-43 0 -55 -46h-14q14 50 43 76.5t62 26.5q24 0 72 -23t72 -23q41 0 59 50z" />
    <glyph glyph-name="utilde" unicode="&#x169;" horiz-adv-x="553" 
d="M546 76l8 -13q-44 -69 -105 -69q-70 0 -90 53q-50 -53 -136 -53q-25 0 -45 2.5t-44 12t-40 26t-27 48t-11 73.5v188q0 50 -5 67t-26 23v15q88 0 155 31v-333q0 -61 24 -85.5t68 -24.5q50 0 81 33q-1 7 -1 22v252q0 50 -5 67t-26 23v15q88 0 155 31v-369q0 -57 31 -57
q19 0 39 22zM417 628h13q-8 -42 -36.5 -74.5t-66.5 -32.5q-25 0 -75.5 23t-73.5 23q-43 0 -55 -46h-14q14 50 43 76.5t62 26.5q24 0 72 -23t72 -23q41 0 59 50z" />
    <glyph glyph-name="Umacron" unicode="&#x16a;" horiz-adv-x="696" 
d="M568 289v185q0 103 -7.5 151.5t-21.5 64t-46 24.5v15q44 -2 93 -2q37 0 79 2v-15q-40 -12 -47.5 -47.5t-7.5 -193.5v-200q0 -133 -50.5 -208t-176.5 -75q-182 0 -249 85q-50 64 -50 197v301q0 86 -8 110.5t-42 30.5v15q44 -2 117 -2t117 2v-15q-34 -6 -42 -30.5
t-8 -110.5v-297q0 -144 32.5 -196t136.5 -52q98 0 139.5 61.5t41.5 199.5zM533 862v-60q-46 1 -152 1t-151 -1v60q90 -2 151 -2q60 0 152 2z" />
    <glyph glyph-name="umacron" unicode="&#x16b;" horiz-adv-x="553" 
d="M546 76l8 -13q-44 -69 -105 -69q-70 0 -90 53q-50 -53 -136 -53q-25 0 -45 2.5t-44 12t-40 26t-27 48t-11 73.5v188q0 50 -5 67t-26 23v15q88 0 155 31v-333q0 -61 24 -85.5t68 -24.5q50 0 81 33q-1 7 -1 22v252q0 50 -5 67t-26 23v15q88 0 155 31v-369q0 -57 31 -57
q19 0 39 22zM412 610v-60q-46 1 -152 1t-151 -1v60q90 -2 151 -2q60 0 152 2z" />
    <glyph glyph-name="Ubreve" unicode="&#x16c;" horiz-adv-x="696" 
d="M568 289v185q0 103 -7.5 151.5t-21.5 64t-46 24.5v15q44 -2 93 -2q37 0 79 2v-15q-40 -12 -47.5 -47.5t-7.5 -193.5v-200q0 -133 -50.5 -208t-176.5 -75q-182 0 -249 85q-50 64 -50 197v301q0 86 -8 110.5t-42 30.5v15q44 -2 117 -2t117 2v-15q-34 -6 -42 -30.5
t-8 -110.5v-297q0 -144 32.5 -196t136.5 -52q98 0 139.5 61.5t41.5 199.5zM485 923h32q-1 -55 -35.5 -98t-101.5 -43t-101.5 43t-35.5 98h32q16 -90 105 -90t105 90z" />
    <glyph glyph-name="ubreve" unicode="&#x16d;" horiz-adv-x="553" 
d="M546 76l8 -13q-44 -69 -105 -69q-70 0 -90 53q-50 -53 -136 -53q-25 0 -45 2.5t-44 12t-40 26t-27 48t-11 73.5v188q0 50 -5 67t-26 23v15q88 0 155 31v-333q0 -61 24 -85.5t68 -24.5q50 0 81 33q-1 7 -1 22v252q0 50 -5 67t-26 23v15q88 0 155 31v-369q0 -57 31 -57
q19 0 39 22zM373 671h32q-1 -55 -35.5 -98t-101.5 -43t-101.5 43t-35.5 98h32q16 -90 105 -90t105 90z" />
    <glyph glyph-name="Uring" unicode="&#x16e;" horiz-adv-x="696" 
d="M568 289v185q0 103 -7.5 151.5t-21.5 64t-46 24.5v15q44 -2 93 -2q37 0 79 2v-15q-40 -12 -47.5 -47.5t-7.5 -193.5v-200q0 -133 -50.5 -208t-176.5 -75q-182 0 -249 85q-50 64 -50 197v301q0 86 -8 110.5t-42 30.5v15q44 -2 117 -2t117 2v-15q-34 -6 -42 -30.5
t-8 -110.5v-297q0 -144 32.5 -196t136.5 -52q98 0 139.5 61.5t41.5 199.5zM475 849q0 -36 -26.5 -60.5t-64.5 -24.5t-64 24.5t-26 60.5t26 60.5t65 24.5q38 0 64 -24.5t26 -60.5zM384 793q26 0 40 17t14 39q0 23 -13.5 39.5t-39.5 16.5t-39.5 -17t-13.5 -39q0 -23 13 -39.5
t39 -16.5z" />
    <glyph glyph-name="uring" unicode="&#x16f;" horiz-adv-x="553" 
d="M546 76l8 -13q-44 -69 -105 -69q-70 0 -90 53q-50 -53 -136 -53q-25 0 -45 2.5t-44 12t-40 26t-27 48t-11 73.5v188q0 50 -5 67t-26 23v15q88 0 155 31v-333q0 -61 24 -85.5t68 -24.5q50 0 81 33q-1 7 -1 22v252q0 50 -5 67t-26 23v15q88 0 155 31v-369q0 -57 31 -57
q19 0 39 22zM365 597q0 -36 -26.5 -60.5t-64.5 -24.5t-64 24.5t-26 60.5t26 60.5t65 24.5q38 0 64 -24.5t26 -60.5zM274 541q26 0 40 17t14 39q0 23 -13.5 39.5t-39.5 16.5t-39.5 -17t-13.5 -39q0 -23 13 -39.5t39 -16.5z" />
    <glyph glyph-name="Uhungarumlaut" unicode="&#x170;" horiz-adv-x="696" 
d="M568 289v185q0 103 -7.5 151.5t-21.5 64t-46 24.5v15q44 -2 93 -2q37 0 79 2v-15q-40 -12 -47.5 -47.5t-7.5 -193.5v-200q0 -133 -50.5 -208t-176.5 -75q-182 0 -249 85q-50 64 -50 197v301q0 86 -8 110.5t-42 30.5v15q44 -2 117 -2t117 2v-15q-34 -6 -42 -30.5
t-8 -110.5v-297q0 -144 32.5 -196t136.5 -52q98 0 139.5 61.5t41.5 199.5zM466 905l-171 -131l-16 15l142 163zM606 905l-171 -131l-16 15l142 163z" />
    <glyph glyph-name="uhungarumlaut" unicode="&#x171;" horiz-adv-x="553" 
d="M546 76l8 -13q-44 -69 -105 -69q-70 0 -90 53q-50 -53 -136 -53q-25 0 -45 2.5t-44 12t-40 26t-27 48t-11 73.5v188q0 50 -5 67t-26 23v15q88 0 155 31v-333q0 -61 24 -85.5t68 -24.5q50 0 81 33q-1 7 -1 22v252q0 50 -5 67t-26 23v15q88 0 155 31v-369q0 -57 31 -57
q19 0 39 22zM342 653l-171 -131l-16 15l142 163zM482 653l-171 -131l-16 15l142 163z" />
    <glyph glyph-name="Uogonek" unicode="&#x172;" horiz-adv-x="696" 
d="M467 -172l1 -19q-37 -21 -83 -21q-35 0 -58.5 16t-23.5 48q0 62 106 139q-4 0 -12.5 -0.5t-13.5 -0.5q-182 0 -249 85q-50 64 -50 197v301q0 86 -8 110.5t-42 30.5v15q44 -2 117 -2t117 2v-15q-34 -6 -42 -30.5t-8 -110.5v-297q0 -144 32.5 -196t136.5 -52
q98 0 139.5 61.5t41.5 199.5v185q0 103 -7.5 151.5t-21.5 64t-46 24.5v15q44 -2 93 -2q37 0 79 2v-15q-40 -12 -47.5 -47.5t-7.5 -193.5v-200q0 -75 -13.5 -129t-51 -95t-99.5 -53q-82 -65 -82 -132q0 -47 49 -47q25 0 54 11z" />
    <glyph glyph-name="uogonek" unicode="&#x173;" horiz-adv-x="553" 
d="M522 -159l1 -19q-37 -21 -83 -21q-35 0 -58.5 16t-23.5 48q0 57 92 129q-71 0 -91 53q-50 -53 -136 -53q-25 0 -45 2.5t-44 12t-40 26t-27 48t-11 73.5v188q0 50 -5 67t-26 23v15q88 0 155 31v-333q0 -61 24 -85.5t68 -24.5q50 0 81 33q-1 7 -1 22v252q0 50 -5 67t-26 23
v15q88 0 155 31v-369q0 -57 31 -57q19 0 39 22l8 -13q-22 -36 -50 -55q-85 -59 -85 -131q0 -47 49 -47q25 0 54 11z" />
    <glyph glyph-name="Wcircumflex" unicode="&#x174;" horiz-adv-x="962" 
d="M668 -22h-29l-156 407l-153 -407h-29l-236 617q-26 68 -40.5 92t-31.5 27v15q42 -2 106 -2q89 0 133 2v-15q-42 -8 -42 -42q0 -32 18 -80l152 -422l100 275l-57 150q-26 68 -40.5 92t-31.5 27v15q42 -2 106 -2q109 0 153 2v-15q-35 -6 -49.5 -17t-14.5 -31q0 -21 20 -74
l150 -417l123 351q28 81 28 131q0 49 -37 57v15q44 -2 102 -2q37 0 79 2v-15q-42 -14 -67.5 -53t-67.5 -158zM646 782h-37l-124 115l-124 -115h-37l138 177h46z" />
    <glyph glyph-name="wcircumflex" unicode="&#x175;" horiz-adv-x="655" 
d="M452 -16h-27l-104 295l-102 -295h-27l-130 367q-23 66 -34.5 84.5t-34.5 25.5v15q4 0 30.5 -0.5t47.5 -0.5q22 0 75 0.5t57 0.5v-15q-32 -8 -32 -40q0 -19 17 -72l57 -173l104 309h25l104 -309l56 166q16 46 16 75q0 37 -33 44v15q3 0 28 -0.5t51 -0.5q19 0 41 0.5
t27 0.5v-15q-49 -11 -102 -161zM524 530h-37l-124 115l-124 -115h-37l138 177h46z" />
    <glyph glyph-name="Ycircumflex" unicode="&#x176;" horiz-adv-x="621" 
d="M435 13v-15q-44 2 -117 2t-117 -2v15q34 6 42 30.5t8 110.5v87l-181 354q-34 67 -52.5 92.5t-35.5 26.5v15q42 -2 125 -2q80 0 124 2v-15q-24 -5 -35 -13t-11 -25q0 -25 28 -84l138 -292l120 255q34 72 34 106q0 44 -46 53v15q44 -2 102 -2q37 0 79 2v-15
q-27 -9 -50 -35.5t-38 -54t-45 -91.5l-122 -255v-124q0 -86 8 -110.5t42 -30.5zM512 782h-37l-124 115l-124 -115h-37l138 177h46z" />
    <glyph glyph-name="ycircumflex" unicode="&#x177;" horiz-adv-x="483" 
d="M291 -211v-15q-4 0 -38 0.5t-58 0.5q-23 0 -58 -0.5t-39 -0.5v15q39 10 69 45t63 122l-165 395q-23 55 -38 78t-35 32v15q4 0 32.5 -0.5t49.5 -0.5q22 0 80.5 0.5t62.5 0.5v-15q-33 -7 -33 -38q0 -23 22 -74l89 -211l29 82q43 121 43 172q0 53 -45 69v15q7 0 45 -0.5
t45 -0.5q38 0 57.5 0.5t20.5 0.5v-15q-45 -20 -86 -140l-125 -356q-31 -86 -31 -124q0 -45 43 -52zM436 530h-37l-124 115l-124 -115h-37l138 177h46z" />
    <glyph glyph-name="Ydieresis" unicode="&#x178;" horiz-adv-x="621" 
d="M435 13v-15q-44 2 -117 2t-117 -2v15q34 6 42 30.5t8 110.5v87l-181 354q-34 67 -52.5 92.5t-35.5 26.5v15q42 -2 125 -2q80 0 124 2v-15q-24 -5 -35 -13t-11 -25q0 -25 28 -84l138 -292l120 255q34 72 34 106q0 44 -46 53v15q44 -2 102 -2q37 0 79 2v-15
q-27 -9 -50 -35.5t-38 -54t-45 -91.5l-122 -255v-124q0 -86 8 -110.5t42 -30.5zM325 824q0 -17 -13 -29.5t-30 -12.5t-29.5 12.5t-12.5 29.5q0 16 12.5 29t29.5 13t30 -13t13 -29zM462 824q0 -17 -13 -29.5t-30 -12.5t-29.5 12.5t-12.5 29.5q0 16 12.5 29t29.5 13t30 -13
t13 -29z" />
    <glyph glyph-name="Zacute" unicode="&#x179;" horiz-adv-x="666" 
d="M619 200h15q1 -9 1 -29q0 -18 -3 -68.5t-3 -73.5q0 -21 1 -32q-74 3 -361 3q-168 0 -262 -2v15l455 678h-77q-58 0 -87 -0.5t-67.5 -2.5t-55 -5.5t-38.5 -10.5t-30.5 -17t-19.5 -26t-15.5 -35.5t-8.5 -47.5h-15q-1 21 -1 72q0 23 2.5 65t2.5 46q49 -2 332 -2q217 0 250 2
v-15l-456 -679h72h73.5t62 1.5t55 3.5t45 6t39 10t29.5 15.5t25.5 21t17.5 27.5t14 35.5t8 44.5zM419 947l52 -53l-165 -121l-21 19z" />
    <glyph glyph-name="zacute" unicode="&#x17a;" horiz-adv-x="452" 
d="M408 139h15q1 -9 1 -29q0 -9 -1 -39.5t-1 -41.5q0 -20 1 -31q-47 2 -195 2q-144 0 -209 -2v19q48 72 127.5 209t119.5 215h-69q-66 0 -95 -16.5t-54 -87.5h-15q4 59 4 140q100 -2 247 -2q78 0 138 2v-23q-87 -129 -251 -420h83q31 0 47.5 1t37 6.5t31.5 16.5t21.5 31
t16.5 50zM308 695l52 -53l-165 -121l-21 19z" />
    <glyph glyph-name="Zdotaccent" unicode="&#x17b;" horiz-adv-x="666" 
d="M619 200h15q1 -9 1 -29q0 -18 -3 -68.5t-3 -73.5q0 -21 1 -32q-74 3 -361 3q-168 0 -262 -2v15l455 678h-77q-58 0 -87 -0.5t-67.5 -2.5t-55 -5.5t-38.5 -10.5t-30.5 -17t-19.5 -26t-15.5 -35.5t-8.5 -47.5h-15q-1 21 -1 72q0 23 2.5 65t2.5 46q49 -2 332 -2q217 0 250 2
v-15l-456 -679h72h73.5t62 1.5t55 3.5t45 6t39 10t29.5 15.5t25.5 21t17.5 27.5t14 35.5t8 44.5zM391 824q0 -17 -13 -29.5t-30 -12.5t-29.5 12.5t-12.5 29.5q0 16 12.5 29t29.5 13t30 -13t13 -29z" />
    <glyph glyph-name="zdotaccent" unicode="&#x17c;" horiz-adv-x="452" 
d="M408 139h15q1 -9 1 -29q0 -9 -1 -39.5t-1 -41.5q0 -20 1 -31q-47 2 -195 2q-144 0 -209 -2v19q48 72 127.5 209t119.5 215h-69q-66 0 -95 -16.5t-54 -87.5h-15q4 59 4 140q100 -2 247 -2q78 0 138 2v-23q-87 -129 -251 -420h83q31 0 47.5 1t37 6.5t31.5 16.5t21.5 31
t16.5 50zM280 572q0 -17 -13 -29.5t-30 -12.5t-29.5 12.5t-12.5 29.5q0 16 12.5 29t29.5 13t30 -13t13 -29z" />
    <glyph glyph-name="Zcaron" unicode="&#x17d;" horiz-adv-x="666" 
d="M619 200h15q1 -9 1 -29q0 -18 -3 -68.5t-3 -73.5q0 -21 1 -32q-74 3 -361 3q-168 0 -262 -2v15l455 678h-77q-58 0 -87 -0.5t-67.5 -2.5t-55 -5.5t-38.5 -10.5t-30.5 -17t-19.5 -26t-15.5 -35.5t-8.5 -47.5h-15q-1 21 -1 72q0 23 2.5 65t2.5 46q49 -2 332 -2q217 0 250 2
v-15l-456 -679h72h73.5t62 1.5t55 3.5t45 6t39 10t29.5 15.5t25.5 21t17.5 27.5t14 35.5t8 44.5zM366 782h-46l-138 177h37l124 -115l124 115h37z" />
    <glyph glyph-name="zcaron" unicode="&#x17e;" horiz-adv-x="452" 
d="M408 139h15q1 -9 1 -29q0 -9 -1 -39.5t-1 -41.5q0 -20 1 -31q-47 2 -195 2q-144 0 -209 -2v19q48 72 127.5 209t119.5 215h-69q-66 0 -95 -16.5t-54 -87.5h-15q4 59 4 140q100 -2 247 -2q78 0 138 2v-23q-87 -129 -251 -420h83q31 0 47.5 1t37 6.5t31.5 16.5t21.5 31
t16.5 50zM258 530h-46l-138 177h37l124 -115l124 115h37z" />
    <glyph glyph-name="longs" unicode="&#x17f;" horiz-adv-x="264" 
d="M243 13v-15q-44 2 -105 2t-105 -2v15q25 5 34 20t9 71v299h-59v13l59 59q0 96 7 145.5t30 85.5q18 28 49 44.5t64 16.5q70 0 96 -70l-78 -61q-22 38 -39 56t-38 18q-35 0 -35 -52q0 -26 17 -49.5t34 -52t17 -65.5v-387q0 -56 9 -71t34 -20z" />
    <glyph glyph-name="florin" unicode="&#x192;" horiz-adv-x="331" 
d="M-91 -190l64 88q34 -68 72 -68t48 46.5t10 161.5v305h-62q-19 0 -24 -5q0 7 1 47t1 55h14q0 -23 7.5 -30t33.5 -7h29v51q0 161 59.5 237t166.5 76q60 0 92 -17l-64 -88q-34 68 -72 68t-48 -46.5t-10 -161.5v-119h65q19 0 24 5q0 -7 -1 -47t-1 -55h-14q0 23 -7.5 30
t-33.5 7h-32v-237q0 -161 -59.5 -237t-166.5 -76q-60 0 -92 17z" />
    <glyph glyph-name="OI" unicode="&#x1a2;" horiz-adv-x="802" 
d="M771 359q0 -160 -110.5 -264.5t-259.5 -104.5t-259.5 104.5t-110.5 264.5q0 108 52.5 194.5t136.5 132.5t181 46t181 -46t136.5 -132.5t52.5 -194.5zM401 22q115 0 169 82t54 255q0 175 -54 258t-169 83t-169 -83t-54 -258q0 -173 54 -255t169 -82zM342 309v102
q0 86 -10 112.5t-45 32.5v11q44 -2 112 -2t112 2v-11q-35 -6 -45 -32.5t-10 -112.5v-102q0 -86 10 -112.5t45 -32.5v-11q-44 2 -112 2t-112 -2v11q35 6 45 32.5t10 112.5z" />
    <glyph glyph-name="AEacute" unicode="&#x1fc;" horiz-adv-x="942" 
d="M882 199h15q-3 -144 -3 -201q-75 2 -356 2q-73 0 -117 -2v15q34 6 42 30.5t8 110.5v117h-99q-78 0 -112 -1l-47 -70q-78 -115 -78 -152q0 -27 31 -35v-15q-44 2 -122 2q-37 0 -79 -2v15q45 15 94 62t119 149l291 421q-2 37 -12.5 50.5t-35.5 18.5v15q44 -2 117 -2
q285 0 360 2q-2 -50 -2 -111q0 -51 1 -72h-15q-15 43 -32.5 71t-32.5 43t-41.5 22t-44.5 8t-58 1q-44 0 -68 -4v-294h59q57 0 88 16t45 70h15q-4 -60 -4 -93q0 -53 4 -101h-15q-10 47 -42 60.5t-91 13.5h-59v-319q24 -4 68 -4q41 0 65 4t53 19t51 49.5t40 90.5zM471 313v273
l-183 -273h183zM730 947l52 -53l-165 -121l-21 19z" />
    <glyph glyph-name="aeacute" unicode="&#x1fd;" horiz-adv-x="754" 
d="M719 116l9 -13q-73 -113 -189 -113q-57 0 -107.5 23t-83.5 65q-64 -88 -177 -88q-63 0 -106.5 30.5t-43.5 85.5q0 58 53 93t127 35q50 0 95 -19v119q0 67 -17.5 93t-51.5 26q-37 0 -52 -30.5t-15 -96.5h-121q10 80 64.5 117t123.5 37q98 0 152 -62q67 62 153 62
q84 0 142 -47.5t58 -151.5h-312v-12q0 -96 46.5 -155t119.5 -59q69 0 133 61zM334 97q-27 41 -34 90q-34 16 -71 16q-77 0 -77 -82q0 -45 20 -66t53 -21q61 0 109 63zM423 313h186q0 140 -80 140q-42 0 -70 -40t-36 -100zM472 695l52 -53l-165 -121l-21 19z" />
    <glyph glyph-name="Oslashacute" unicode="&#x1fe;" horiz-adv-x="802" 
d="M257 -46h-51l30 74q-92 45 -148.5 132t-56.5 199q0 108 52.5 194.5t136.5 132.5t181 46q61 0 119 -20l23 55h51l-30 -73q93 -45 150 -133.5t57 -201.5q0 -160 -110.5 -264.5t-259.5 -104.5q-61 0 -121 20zM545 648l-250 -603q42 -23 106 -23q115 0 169 82t54 255
q0 210 -79 289zM256 74l249 603q-44 23 -104 23q-115 0 -169 -83t-54 -258q0 -207 78 -285zM472 947l52 -53l-165 -121l-21 19z" />
    <glyph glyph-name="oslashacute" unicode="&#x1ff;" horiz-adv-x="552" 
d="M145 -124h-41l59 143q-62 30 -100.5 86t-38.5 129q0 109 75.5 177.5t176.5 68.5q37 0 73 -11l51 122h41l-56 -135q64 -29 103.5 -87.5t39.5 -134.5q0 -105 -76 -172.5t-176 -67.5q-39 0 -78 11zM364 405l-152 -366q24 -18 64 -18q66 0 90 51.5t24 161.5q0 123 -26 171z
M186 73l150 363q-25 17 -60 17q-66 0 -90 -52t-24 -167q0 -113 24 -161zM317 695l52 -53l-165 -121l-21 19z" />
    <glyph glyph-name="dotlessj" unicode="&#x237;" horiz-adv-x="245" 
d="M24 -225l-8 13q33 26 39.5 65.5t6.5 169.5v321q0 50 -5 67t-26 23v15q88 0 155 31v-517q0 -60 -46 -110t-116 -78z" />
    <glyph glyph-name="circumflex" unicode="&#x2c6;" horiz-adv-x="422" 
d="M372 530h-37l-124 115l-124 -115h-37l138 177h46z" />
    <glyph glyph-name="caron" unicode="&#x2c7;" horiz-adv-x="422" 
d="M234 530h-46l-138 177h37l124 -115l124 115h37z" />
    <glyph glyph-name="breve" unicode="&#x2d8;" horiz-adv-x="374" 
d="M292 671h32q-1 -55 -35.5 -98t-101.5 -43t-101.5 43t-35.5 98h32q16 -90 105 -90t105 90z" />
    <glyph glyph-name="dotaccent" unicode="&#x2d9;" horiz-adv-x="185" 
d="M135 572q0 -17 -13 -29.5t-30 -12.5t-29.5 12.5t-12.5 29.5q0 16 12.5 29t29.5 13t30 -13t13 -29z" />
    <glyph glyph-name="ring" unicode="&#x2da;" horiz-adv-x="281" 
d="M231 597q0 -36 -26.5 -60.5t-64.5 -24.5t-64 24.5t-26 60.5t26 60.5t65 24.5q38 0 64 -24.5t26 -60.5zM140 541q26 0 40 17t14 39q0 23 -13.5 39.5t-39.5 16.5t-39.5 -17t-13.5 -39q0 -23 13 -39.5t39 -16.5z" />
    <glyph glyph-name="ogonek" unicode="&#x2db;" horiz-adv-x="265" 
d="M214 -172l1 -19q-37 -21 -83 -21q-35 0 -58.5 16t-23.5 48q0 66 119 148h31q-89 -66 -89 -136q0 -47 49 -47q25 0 54 11z" />
    <glyph glyph-name="tilde" unicode="&#x2dc;" horiz-adv-x="421" 
d="M358 628h13q-8 -42 -36.5 -74.5t-66.5 -32.5q-25 0 -75.5 23t-73.5 23q-43 0 -55 -46h-14q14 50 43 76.5t62 26.5q25 0 72 -23t72 -23q41 0 59 50z" />
    <glyph glyph-name="hungarumlaut" unicode="&#x2dd;" horiz-adv-x="427" 
d="M237 653l-171 -131l-16 15l142 163zM377 653l-171 -131l-16 15l142 163z" />
    <glyph glyph-name="uni1E02" unicode="&#x1e02;" horiz-adv-x="616" 
d="M43 -2v15q34 6 42 30.5t8 110.5v419q0 86 -8 110.5t-42 30.5v15q44 -2 117 -2q52 0 110.5 1t81.5 1q88 0 133.5 -44.5t45.5 -113.5q0 -62 -37 -106.5t-112 -63.5q205 -27 205 -191q0 -41 -11 -75.5t-37 -67t-77.5 -51.5t-123.5 -19q-18 0 -77 1.5t-101 1.5q-73 0 -117 -2
zM262 378h-35v-342q23 -9 71 -9q61 0 102.5 45t41.5 138q0 87 -45 127.5t-135 40.5zM227 410h32q67 0 97 37t30 124q0 128 -112 128q-23 0 -47 -9v-280zM333 823q0 -17 -13 -29.5t-30 -12.5t-29.5 12.5t-12.5 29.5q0 16 12.5 29t29.5 13t30 -13t13 -29z" />
    <glyph glyph-name="uni1E03" unicode="&#x1e03;" horiz-adv-x="553" 
d="M48 17l-7 9q15 15 17.5 35.5t2.5 105.5v459q0 50 -5 67t-26 23v15q88 0 155 31v-314q51 32 113 32q99 0 164.5 -65t65.5 -173q0 -101 -72 -174.5t-181 -73.5q-43 0 -94.5 17t-80.5 17q-26 0 -52 -11zM185 419v-268q0 -74 19 -102t71 -28q64 0 89.5 57t25.5 164
q0 205 -125 205q-41 0 -80 -28zM388 614q0 -17 -13 -29.5t-30 -12.5t-29.5 12.5t-12.5 29.5q0 16 12.5 29t29.5 13t30 -13t13 -29z" />
    <glyph glyph-name="uni1E0A" unicode="&#x1e0a;" horiz-adv-x="768" 
d="M227 690v-654q23 -9 89 -9q135 0 202 83t67 253q0 67 -10.5 120t-27 88t-42 60t-48.5 37.5t-54.5 20t-52.5 9t-49 1.5q-50 0 -74 -9zM43 -2v15q34 6 42 30.5t8 110.5v419q0 86 -8 110.5t-42 30.5v15q44 -2 117 -2q25 0 73.5 1t75.5 1q104 0 184 -26.5t124.5 -65.5
t72.5 -91t37 -95.5t9 -87.5q0 -157 -104 -261.5t-294 -104.5q-20 0 -82 1.5t-96 1.5q-73 0 -117 -2zM410 820q0 -17 -13 -29.5t-30 -12.5t-29.5 12.5t-12.5 29.5q0 16 12.5 29t29.5 13t30 -13t13 -29z" />
    <glyph glyph-name="uni1E0B" unicode="&#x1e0b;" horiz-adv-x="550" 
d="M526 59l8 -13q-37 -52 -91 -52q-55 0 -74 43q-51 -43 -116 -43q-97 0 -162.5 66.5t-65.5 173.5q0 105 70.5 175.5t172.5 70.5q55 0 92 -26v172q0 50 -5 67t-26 23v15q88 0 155 31v-651q0 -33 5 -45t18 -12q9 0 19 5zM360 92v319q-20 38 -84 38q-59 0 -86 -49.5
t-27 -165.5q0 -99 31 -150.5t89 -51.5q49 0 79 29q-2 18 -2 31zM236 608q0 -17 -13 -29.5t-30 -12.5t-29.5 12.5t-12.5 29.5q0 16 12.5 29t29.5 13t30 -13t13 -29z" />
    <glyph glyph-name="uni1E1E" unicode="&#x1e1e;" horiz-adv-x="517" 
d="M277 13v-15q-44 2 -117 2t-117 -2v15q34 6 42 30.5t8 110.5v419q0 86 -8 110.5t-42 30.5v15q44 -2 117 -2q267 0 342 2q-2 -50 -2 -86q0 -68 1 -89h-15q-18 49 -34.5 76.5t-41 41t-47 16.5t-68.5 3q-44 0 -68 -4v-293h56q23 0 37 1t32 5.5t29 13t20.5 25t14.5 40.5h15
q-4 -60 -4 -93q0 -49 4 -97h-15q-13 47 -41.5 59t-91.5 12h-56v-206q0 -86 8 -110.5t42 -30.5zM347 824q0 -17 -13 -29.5t-30 -12.5t-29.5 12.5t-12.5 29.5q0 16 12.5 29t29.5 13t30 -13t13 -29z" />
    <glyph glyph-name="uni1E1F" unicode="&#x1e1f;" horiz-adv-x="300" 
d="M243 13v-15q-44 2 -105 2t-105 -2v15q25 5 34 20t9 71v299h-59v13l59 59q0 96 7 145.5t30 85.5q18 28 49 44.5t64 16.5q70 0 96 -70l-78 -61q-22 38 -39 56t-38 18q-35 0 -35 -52q0 -26 17 -49.5t34 -52t17 -65.5v-16h94v-72h-94v-299q0 -56 9 -71t34 -20zM249 846
q0 -17 -13 -29.5t-30 -12.5t-29.5 12.5t-12.5 29.5q0 16 12.5 29t29.5 13t30 -13t13 -29z" />
    <glyph glyph-name="uni1E40" unicode="&#x1e40;" horiz-adv-x="889" 
d="M873 13v-15q-42 2 -104 2q-59 0 -103 -2v15q32 8 32 47q0 21 -12 88l-58 326l-208 -482h-17l-223 490l-51 -297q-8 -48 -8 -79q0 -79 55 -93v-15q-44 2 -99 2q-24 0 -66 -2v15q30 10 45 48t31 127l96 554h25l252 -550l240 550h25l93 -589q5 -33 8.5 -50.5t10 -39.5
t15.5 -34t21 -16zM492 769q0 -17 -13 -29.5t-30 -12.5t-29.5 12.5t-12.5 29.5q0 16 12.5 29t29.5 13t30 -13t13 -29z" />
    <glyph glyph-name="uni1E41" unicode="&#x1e41;" horiz-adv-x="845" 
d="M829 13v-15q-44 2 -105 2t-105 -2v15q25 5 34 20t9 71v213q0 66 -18 93t-67 27q-51 0 -98 -41q12 -31 12 -79v-213q0 -56 9 -71t34 -20v-15q-44 2 -105 2t-105 -2v15q25 5 34 20t9 71v213q0 66 -17 93t-62 27q-51 0 -94 -45v-288q0 -56 9 -71t34 -20v-15q-44 2 -105 2
t-105 -2v15q25 5 34 20t9 71v240q0 50 -5 67t-26 23v15q88 0 155 31v-57q69 57 150 57q90 0 125 -62q76 62 165 62q152 0 152 -163v-213q0 -56 9 -71t34 -20zM472 572q0 -17 -13 -29.5t-30 -12.5t-29.5 12.5t-12.5 29.5q0 16 12.5 29t29.5 13t30 -13t13 -29z" />
    <glyph glyph-name="uni1E56" unicode="&#x1e56;" horiz-adv-x="562" 
d="M277 13v-15q-44 2 -117 2t-117 -2v15q34 6 42 30.5t8 110.5v419q0 86 -8 110.5t-42 30.5v15q44 -2 117 -2q31 0 74 1t54 1q127 0 197 -58t70 -146q0 -79 -60 -134t-156 -55q-67 0 -104 23l8 13q25 -13 60 -13q107 0 107 166q0 174 -136 174q-29 0 -47 -9v-536
q0 -86 8 -110.5t42 -30.5zM350 824q0 -17 -13 -29.5t-30 -12.5t-29.5 12.5t-12.5 29.5q0 16 12.5 29t29.5 13t30 -13t13 -29z" />
    <glyph glyph-name="uni1E57" unicode="&#x1e57;" horiz-adv-x="555" 
d="M229 -212v-15q-44 2 -105 2t-105 -2v15q25 5 34 20t9 71v465q0 50 -5 67t-26 23v15q88 0 155 31v-44q53 44 117 44q99 0 162.5 -66t63.5 -174q0 -104 -68 -175t-173 -71q-60 0 -102 29v-144q0 -56 9 -71t34 -20zM186 405v-341q12 -16 37.5 -27.5t56.5 -11.5q57 0 84 52.5
t27 162.5q0 105 -26 156t-83 51t-96 -42zM336 572q0 -17 -13 -29.5t-30 -12.5t-29.5 12.5t-12.5 29.5q0 16 12.5 29t29.5 13t30 -13t13 -29z" />
    <glyph glyph-name="uni1E60" unicode="&#x1e60;" horiz-adv-x="516" 
d="M449 536h-16q-22 93 -62 133.5t-104 40.5q-51 0 -82.5 -30.5t-31.5 -81.5q0 -37 18 -66t46 -48t62.5 -36.5t69 -37t62.5 -43t46 -60.5t18 -85q0 -100 -59.5 -166t-172.5 -66q-36 0 -82.5 9t-65.5 9q-25 0 -42 -5q2 36 2 49q0 19 -2 54.5t-2 43.5q0 50 10 74h15
q10 -87 49.5 -144.5t117.5 -57.5q61 0 94 35.5t33 92.5q0 50 -33 87t-80 62t-93.5 52t-79.5 72.5t-33 108.5q0 89 61 149.5t155 60.5q34 0 70.5 -8t51.5 -8q39 0 62 11q-3 -44 -3 -108q0 -49 1 -93zM304 824q0 -17 -13 -29.5t-30 -12.5t-29.5 12.5t-12.5 29.5q0 16 12.5 29
t29.5 13t30 -13t13 -29z" />
    <glyph glyph-name="uni1E61" unicode="&#x1e61;" horiz-adv-x="391" 
d="M334 345h-15q-30 108 -118 108q-30 0 -48 -16.5t-18 -46.5q0 -31 23 -51t56 -33t66.5 -29t56.5 -49t23 -83q0 -61 -47 -106t-131 -45q-25 0 -58 7.5t-48 7.5q-19 0 -34 -5q3 14 5 75.5t7 83.5h15q0 -61 31.5 -101.5t81.5 -40.5q33 0 52 19.5t19 54.5t-22 59t-54 38.5
t-64 30t-54 45t-22 73.5q0 62 43.5 100.5t119.5 38.5q28 0 65 -6t52 -6q12 0 18 1q-3 -15 -3 -38q0 -22 2 -86zM238 572q0 -17 -13 -29.5t-30 -12.5t-29.5 12.5t-12.5 29.5q0 16 12.5 29t29.5 13t30 -13t13 -29z" />
    <glyph glyph-name="uni1E6A" unicode="&#x1e6a;" horiz-adv-x="556" 
d="M395 13v-15q-44 2 -117 2t-117 -2v15q34 6 42 30.5t8 110.5v527h-11q-55 0 -88 -5.5t-50 -21.5t-23 -32t-12 -48h-16q2 48 2 107q0 10 -0.5 28.5t-0.5 26.5q44 -19 268 -19q220 0 264 19q0 -8 -0.5 -26.5t-0.5 -28.5q0 -59 2 -107h-16q-6 32 -12 48t-23 32t-50 21.5
t-88 5.5h-11v-527q0 -86 8 -110.5t42 -30.5zM325 824q0 -17 -13 -29.5t-30 -12.5t-29.5 12.5t-12.5 29.5q0 16 12.5 29t29.5 13t30 -13t13 -29z" />
    <glyph glyph-name="uni1E6B" unicode="&#x1e6b;" horiz-adv-x="316" 
d="M305 96l12 -9q-27 -93 -114 -93q-65 0 -102.5 34.5t-37.5 104.5v276h-49v15q118 69 155 212l25 -5q-7 -56 -7 -156h30q23 0 34.5 1t26.5 6t25 16l10 -12q-28 -42 -46 -77h-80v-255q0 -56 14 -80.5t46 -24.5q34 0 58 47zM215 727q0 -17 -13 -29.5t-30 -12.5t-29.5 12.5
t-12.5 29.5q0 16 12.5 29t29.5 13t30 -13t13 -29z" />
    <glyph glyph-name="Wgrave" unicode="&#x1e80;" horiz-adv-x="962" 
d="M668 -22h-29l-156 407l-153 -407h-29l-236 617q-26 68 -40.5 92t-31.5 27v15q42 -2 106 -2q89 0 133 2v-15q-42 -8 -42 -42q0 -32 18 -80l152 -422l100 275l-57 150q-26 68 -40.5 92t-31.5 27v15q42 -2 106 -2q109 0 153 2v-15q-35 -6 -49.5 -17t-14.5 -31q0 -21 20 -74
l150 -417l123 351q28 81 28 131q0 49 -37 57v15q44 -2 102 -2q37 0 79 2v-15q-42 -14 -67.5 -53t-67.5 -158zM550 792l-21 -19l-165 121l52 53z" />
    <glyph glyph-name="wgrave" unicode="&#x1e81;" horiz-adv-x="655" 
d="M452 -16h-27l-104 295l-102 -295h-27l-130 367q-23 66 -34.5 84.5t-34.5 25.5v15q4 0 30.5 -0.5t47.5 -0.5q22 0 75 0.5t57 0.5v-15q-32 -8 -32 -40q0 -19 17 -72l57 -173l104 309h25l104 -309l56 166q16 46 16 75q0 37 -33 44v15q3 0 28 -0.5t51 -0.5q19 0 41 0.5
t27 0.5v-15q-49 -11 -102 -161zM418 540l-21 -19l-165 121l52 53z" />
    <glyph glyph-name="Wacute" unicode="&#x1e82;" horiz-adv-x="962" 
d="M668 -22h-29l-156 407l-153 -407h-29l-236 617q-26 68 -40.5 92t-31.5 27v15q42 -2 106 -2q89 0 133 2v-15q-42 -8 -42 -42q0 -32 18 -80l152 -422l100 275l-57 150q-26 68 -40.5 92t-31.5 27v15q42 -2 106 -2q109 0 153 2v-15q-35 -6 -49.5 -17t-14.5 -31q0 -21 20 -74
l150 -417l123 351q28 81 28 131q0 49 -37 57v15q44 -2 102 -2q37 0 79 2v-15q-42 -14 -67.5 -53t-67.5 -158zM570 947l52 -53l-165 -121l-21 19z" />
    <glyph glyph-name="wacute" unicode="&#x1e83;" horiz-adv-x="655" 
d="M452 -16h-27l-104 295l-102 -295h-27l-130 367q-23 66 -34.5 84.5t-34.5 25.5v15q4 0 30.5 -0.5t47.5 -0.5q22 0 75 0.5t57 0.5v-15q-32 -8 -32 -40q0 -19 17 -72l57 -173l104 309h25l104 -309l56 166q16 46 16 75q0 37 -33 44v15q3 0 28 -0.5t51 -0.5q19 0 41 0.5
t27 0.5v-15q-49 -11 -102 -161zM409 695l52 -53l-165 -121l-21 19z" />
    <glyph glyph-name="Wdieresis" unicode="&#x1e84;" horiz-adv-x="962" 
d="M668 -22h-29l-156 407l-153 -407h-29l-236 617q-26 68 -40.5 92t-31.5 27v15q42 -2 106 -2q89 0 133 2v-15q-42 -8 -42 -42q0 -32 18 -80l152 -422l100 275l-57 150q-26 68 -40.5 92t-31.5 27v15q42 -2 106 -2q109 0 153 2v-15q-35 -6 -49.5 -17t-14.5 -31q0 -21 20 -74
l150 -417l123 351q28 81 28 131q0 49 -37 57v15q44 -2 102 -2q37 0 79 2v-15q-42 -14 -67.5 -53t-67.5 -158zM445 824q0 -17 -13 -29.5t-30 -12.5t-29.5 12.5t-12.5 29.5q0 16 12.5 29t29.5 13t30 -13t13 -29zM582 824q0 -17 -13 -29.5t-30 -12.5t-29.5 12.5t-12.5 29.5
q0 16 12.5 29t29.5 13t30 -13t13 -29z" />
    <glyph glyph-name="wdieresis" unicode="&#x1e85;" horiz-adv-x="655" 
d="M452 -16h-27l-104 295l-102 -295h-27l-130 367q-23 66 -34.5 84.5t-34.5 25.5v15q4 0 30.5 -0.5t47.5 -0.5q22 0 75 0.5t57 0.5v-15q-32 -8 -32 -40q0 -19 17 -72l57 -173l104 309h25l104 -309l56 166q16 46 16 75q0 37 -33 44v15q3 0 28 -0.5t51 -0.5q19 0 41 0.5
t27 0.5v-15q-49 -11 -102 -161zM329 572q0 -17 -13 -29.5t-30 -12.5t-29.5 12.5t-12.5 29.5q0 16 12.5 29t29.5 13t30 -13t13 -29zM466 572q0 -17 -13 -29.5t-30 -12.5t-29.5 12.5t-12.5 29.5q0 16 12.5 29t29.5 13t30 -13t13 -29z" />
    <glyph glyph-name="Ygrave" unicode="&#x1ef2;" horiz-adv-x="621" 
d="M435 13v-15q-44 2 -117 2t-117 -2v15q34 6 42 30.5t8 110.5v87l-181 354q-34 67 -52.5 92.5t-35.5 26.5v15q42 -2 125 -2q80 0 124 2v-15q-24 -5 -35 -13t-11 -25q0 -25 28 -84l138 -292l120 255q34 72 34 106q0 44 -46 53v15q44 -2 102 -2q37 0 79 2v-15
q-27 -9 -50 -35.5t-38 -54t-45 -91.5l-122 -255v-124q0 -86 8 -110.5t42 -30.5zM392 792l-21 -19l-165 121l52 53z" />
    <glyph glyph-name="ygrave" unicode="&#x1ef3;" horiz-adv-x="483" 
d="M291 -211v-15q-4 0 -38 0.5t-58 0.5q-23 0 -58 -0.5t-39 -0.5v15q39 10 69 45t63 122l-165 395q-23 55 -38 78t-35 32v15q4 0 32.5 -0.5t49.5 -0.5q22 0 80.5 0.5t62.5 0.5v-15q-33 -7 -33 -38q0 -23 22 -74l89 -211l29 82q43 121 43 172q0 53 -45 69v15q7 0 45 -0.5
t45 -0.5q38 0 57.5 0.5t20.5 0.5v-15q-45 -20 -86 -140l-125 -356q-31 -86 -31 -124q0 -45 43 -52zM312 540l-21 -19l-165 121l52 53z" />
    <glyph glyph-name="endash" unicode="&#x2013;" horiz-adv-x="437" 
d="M387 331v-60q-51 1 -169 1q-117 0 -168 -1v60q102 -2 168 -2q67 0 169 2z" />
    <glyph glyph-name="emdash" unicode="&#x2014;" horiz-adv-x="661" 
d="M611 331v-60q-51 1 -283 1q-227 0 -278 -1v60q102 -2 278 -2q181 0 283 2z" />
    <glyph glyph-name="quoteleft" unicode="&#x2018;" horiz-adv-x="154" 
d="M99 732l7 -5q-35 -27 -35 -77q0 -9 2 -17q6 5 18 5q18 0 29 -12.5t11 -31.5q0 -21 -13.5 -35.5t-36.5 -14.5q-22 0 -38.5 14.5t-16.5 43.5q0 83 73 130z" />
    <glyph glyph-name="quoteright" unicode="&#x2019;" horiz-adv-x="152" 
d="M56 538l-7 5q35 27 35 77q0 9 -2 17q-6 -5 -18 -5q-18 0 -29 12.5t-11 31.5q0 21 13.5 35.5t36.5 14.5q22 0 38.5 -14.5t16.5 -43.5q0 -83 -73 -130z" />
    <glyph glyph-name="quotesinglbase" unicode="&#x201a;" horiz-adv-x="189" 
d="M74 -98l-7 5q35 27 35 77q0 9 -2 17q-6 -5 -18 -5q-18 0 -29 12.5t-11 31.5q0 21 13.5 35.5t36.5 14.5q22 0 38.5 -14.5t16.5 -43.5q0 -83 -73 -130z" />
    <glyph glyph-name="quotedblleft" unicode="&#x201c;" horiz-adv-x="287" 
d="M232 732l7 -5q-35 -27 -35 -77q0 -9 2 -17q6 5 18 5q18 0 29 -12.5t11 -31.5q0 -21 -13.5 -35.5t-36.5 -14.5q-22 0 -38.5 14.5t-16.5 43.5q0 83 73 130zM99 732l7 -5q-35 -27 -35 -77q0 -9 2 -17q6 5 18 5q18 0 29 -12.5t11 -31.5q0 -21 -13.5 -35.5t-36.5 -14.5
q-22 0 -38.5 14.5t-16.5 43.5q0 83 73 130z" />
    <glyph glyph-name="quotedblright" unicode="&#x201d;" horiz-adv-x="285" 
d="M56 538l-7 5q35 27 35 77q0 9 -2 17q-6 -5 -18 -5q-18 0 -29 12.5t-11 31.5q0 21 13.5 35.5t36.5 14.5q22 0 38.5 -14.5t16.5 -43.5q0 -83 -73 -130zM189 538l-7 5q35 27 35 77q0 9 -2 17q-6 -5 -18 -5q-18 0 -29 12.5t-11 31.5q0 21 13.5 35.5t36.5 14.5
q22 0 38.5 -14.5t16.5 -43.5q0 -83 -73 -130z" />
    <glyph glyph-name="quotedblbase" unicode="&#x201e;" horiz-adv-x="322" 
d="M74 -98l-7 5q35 27 35 77q0 9 -2 17q-6 -5 -18 -5q-18 0 -29 12.5t-11 31.5q0 21 13.5 35.5t36.5 14.5q22 0 38.5 -14.5t16.5 -43.5q0 -83 -73 -130zM207 -98l-7 5q35 27 35 77q0 9 -2 17q-6 -5 -18 -5q-18 0 -29 12.5t-11 31.5q0 21 13.5 35.5t36.5 14.5
q22 0 38.5 -14.5t16.5 -43.5q0 -83 -73 -130z" />
    <glyph glyph-name="dagger" unicode="&#x2020;" horiz-adv-x="497" 
d="M297 -120h-100q1 89 1 447v159q-131 0 -165 -1v95q70 -2 165 -2q0 49 -0.5 108t-0.5 76h100q0 -19 -0.5 -45t-1 -66t-0.5 -73q97 0 169 2v-95q-36 1 -169 1v-159q0 -269 2 -447z" />
    <glyph glyph-name="daggerdbl" unicode="&#x2021;" horiz-adv-x="509" 
d="M303 -120h-100q0 11 0.5 165.5t0.5 235.5q-95 0 -165 -2v95q34 -1 165 -1v113q-131 0 -165 -1v95q70 -2 165 -2q0 49 -0.5 108t-0.5 76h100q0 -19 -0.5 -45t-1 -66t-0.5 -73q97 0 169 2v-95q-36 1 -169 1v-113q133 0 169 1v-95q-72 2 -169 2q0 -54 0.5 -149t1 -164
t0.5 -88z" />
    <glyph glyph-name="bullet" unicode="&#x2022;" horiz-adv-x="324" 
d="M288 362q0 -50 -37.5 -85t-93.5 -35q-49 0 -84.5 35.5t-35.5 84.5q0 56 35 93.5t85 37.5q57 0 94 -37t37 -94z" />
    <glyph glyph-name="ellipsis" unicode="&#x2026;" horiz-adv-x="528" 
d="M136 41q0 -18 -14 -31.5t-35 -13.5q-18 0 -31.5 13.5t-13.5 31.5q0 21 13.5 35t31.5 14q21 0 35 -14t14 -35zM311 41q0 -18 -14 -31.5t-35 -13.5q-18 0 -31.5 13.5t-13.5 31.5q0 21 13.5 35t31.5 14q21 0 35 -14t14 -35zM486 41q0 -18 -14 -31.5t-35 -13.5
q-18 0 -31.5 13.5t-13.5 31.5q0 21 13.5 35t31.5 14q21 0 35 -14t14 -35z" />
    <glyph glyph-name="perthousand" unicode="&#x2030;" horiz-adv-x="1316" 
d="M428 570q0 -82 -58.5 -134.5t-138.5 -52.5q-79 0 -137.5 52.5t-58.5 134.5q0 85 58.5 138.5t137.5 53.5q80 0 138.5 -53.5t58.5 -138.5zM231 401q109 0 109 169q0 174 -109 174q-108 0 -108 -174q0 -169 108 -169zM233 0h-58l491 767h58zM856 177q0 -82 -58.5 -134.5
t-138.5 -52.5q-79 0 -137.5 52.5t-58.5 134.5q0 85 58.5 138.5t137.5 53.5q80 0 138.5 -53.5t58.5 -138.5zM659 8q109 0 109 169q0 174 -109 174q-108 0 -108 -174q0 -169 108 -169zM1283 177q0 -82 -58.5 -134.5t-138.5 -52.5q-79 0 -137.5 52.5t-58.5 134.5
q0 85 58.5 138.5t137.5 53.5q80 0 138.5 -53.5t58.5 -138.5zM1086 8q109 0 109 169q0 174 -109 174q-108 0 -108 -174q0 -169 108 -169z" />
    <glyph glyph-name="guilsinglleft" unicode="&#x2039;" horiz-adv-x="259" 
d="M209 89l-191 137v26l191 137v-37l-119 -113l119 -113v-37z" />
    <glyph glyph-name="guilsinglright" unicode="&#x203a;" horiz-adv-x="259" 
d="M241 252v-26l-191 -137v37l119 113l-119 113v37z" />
    <glyph glyph-name="fraction" unicode="&#x2044;" horiz-adv-x="499" 
d="M23 -46h-68l521 813h68z" />
    <glyph glyph-name="Euro" unicode="&#x20ac;" horiz-adv-x="769" 
d="M697 220l15 -5q-8 -74 -8 -179q-112 -46 -230 -46q-143 0 -243.5 79.5t-131.5 199.5q-16 0 -38 -0.5t-24 -0.5v50q8 -1 52 -1q-2 14 -2 44q0 23 3 47q-13 0 -32 -0.5t-21 -0.5v50q9 -1 61 -1q30 120 128.5 198t256.5 78q36 0 78 -4t85.5 -10.5t57.5 -7.5q-3 -45 -3 -111
q0 -39 2 -93h-15q-56 194 -205 194q-86 0 -153.5 -65.5t-87.5 -179.5h94q203 0 269 2v-50q-33 1 -269 1h-100q-2 -15 -2 -47q0 -17 2 -45h100q203 0 269 2v-50q-33 1 -269 1h-95q19 -118 83 -182.5t150 -64.5q73 0 134.5 59.5t88.5 138.5z" />
    <glyph glyph-name="trademark" unicode="&#x2122;" horiz-adv-x="749" 
d="M232 407v-7q-4 0 -24.5 0.5t-29.5 0.5t-29.5 -0.5t-24.5 -0.5v7q15 3 19 14t4 50v245h-5q-48 0 -62 -10.5t-19 -38.5h-7q0 5 0.5 22t0.5 27q0 5 -0.5 13t-0.5 12h8q12 -9 117 -9t115 9h8q0 -4 -0.5 -12t-0.5 -13q0 -10 0.5 -27t0.5 -22h-7q-4 20 -8.5 28.5t-21.5 14.5
t-51 6h-5v-245q0 -39 4 -50t19 -14zM699 407v-7q-4 0 -19.5 0.5t-23.5 0.5q-9 0 -26.5 -0.5t-22.5 -0.5v7q16 4 16 22q0 12 -6 39l-27 151l-96 -222h-8l-103 226l-23 -137q-4 -20 -4 -37q0 -35 25 -42v-7q-4 0 -20 0.5t-25 0.5t-18 -0.5t-13 -0.5v7q14 4 21.5 22t13.5 59
l44 256h11l117 -255l112 255h11l43 -274q8 -51 21 -63z" />
    <glyph glyph-name="Delta" unicode="&#x2206;" horiz-adv-x="583" 
d="M590 11v-12q-128 1 -324 1q-206 0 -277 -1v14l285 729h74zM461 61l-179 542l-210 -541q59 -4 194 -4q134 0 195 3z" />
    <glyph glyph-name="product" unicode="&#x220f;" horiz-adv-x="765" 
d="M727 9v-11q-44 2 -117 2t-117 -2v11q34 6 42 31t8 114v447q0 49 -3 80q-59 5 -160 5q-96 0 -155 -5q-3 -31 -3 -80v-447q0 -89 8 -114t42 -31v-11q-44 2 -117 2t-117 -2v11q34 6 42 31t8 114v473q0 39 -5.5 58t-14.5 24.5t-30 8.5v9q97 -2 342 -2q250 0 347 2v-9
q-21 -3 -30 -8.5t-14.5 -24.5t-5.5 -58v-473q0 -89 8 -114t42 -31z" />
    <glyph glyph-name="minus" unicode="&#x2212;" horiz-adv-x="523" 
d="M462 332v-60q-39 1 -201 1t-200 -1v60q76 -2 200 -2q123 0 201 2z" />
    <glyph glyph-name="integral" unicode="&#x222b;" horiz-adv-x="349" 
d="M-3 -137l78 61q22 -38 39 -56t38 -18q35 0 35 52q0 26 -17 49.5t-34 52t-17 65.5v406q0 96 7 145.5t30 85.5q18 28 49 44.5t64 16.5q70 0 96 -70l-78 -61q-22 38 -39 56t-38 18q-35 0 -35 -52q0 -26 17 -49.5t34 -52t17 -65.5v-406q0 -96 -7 -145.5t-30 -85.5
q-18 -28 -49 -44.5t-64 -16.5q-70 0 -96 70z" />
    <glyph glyph-name="approxequal" unicode="&#x2248;" horiz-adv-x="524" 
d="M463 410v-64q-52 -26 -104 -26q-35 0 -102 16t-97 16q-50 0 -98 -24v66q53 22 102 22q34 0 101.5 -16t99.5 -16q49 0 98 26zM463 282v-64q-52 -26 -104 -26q-35 0 -102 16t-97 16q-50 0 -98 -24v66q53 22 102 22q34 0 101.5 -16t99.5 -16q49 0 98 26z" />
    <glyph glyph-name="notequal" unicode="&#x2260;" horiz-adv-x="513" 
d="M456 266v-60q-39 1 -201 1h-10l-36 -89h-61l36 89q-30 0 -74.5 -0.5t-54.5 -0.5v60q62 -2 153 -2l30 73q-148 0 -183 -1v60q76 -2 200 -2h6l37 89h61l-37 -89q76 0 134 2v-60q-32 1 -157 1l-30 -73q113 0 187 2z" />
    <glyph glyph-name="lessequal" unicode="&#x2264;" horiz-adv-x="472" 
d="M403 80v-60q-39 1 -178 1q-137 0 -175 -1v60q76 -2 175 -2q100 0 178 2zM404 128l-353 209v26l353 209v-52l-277 -170l277 -170v-52z" />
    <glyph glyph-name="greaterequal" unicode="&#x2265;" horiz-adv-x="473" 
d="M423 80v-60q-38 1 -175 1q-139 0 -178 -1v60q78 -2 178 -2q99 0 175 2zM422 337l-353 -209v52l277 170l-277 170v52l353 -209v-26z" />
    <glyph glyph-name="LL" unicode="&#xf6bf;" horiz-adv-x="922" 
d="M627 40q43 -4 116 -4q31 0 50 3.5t41 17t37 44t25 80.5h15q-4 -136 -4 -183q-74 2 -340 2h-407q-73 0 -117 -2v15q34 6 42 30.5t8 110.5v419q0 86 -8 110.5t-42 30.5v15q44 -2 117 -2t117 2v-15q-34 -6 -42 -30.5t-8 -110.5v-533q43 -4 176 -4q62 0 76 22t14 107v408
q0 86 -8 110.5t-42 30.5v15q44 -2 117 -2t117 2v-15q-34 -6 -42 -30.5t-8 -110.5v-533z" />
    <glyph glyph-name="commaaccent" unicode="&#xf6c3;" horiz-adv-x="205" 
d="M82 -232l-7 5q35 27 35 77q0 9 -2 17q-6 -5 -18 -5q-18 0 -29 12.5t-11 31.5q0 21 13.5 35.5t36.5 14.5q22 0 38.5 -14.5t16.5 -43.5q0 -83 -73 -130z" />
    <glyph glyph-name="apple" unicode="&#xf8ff;" horiz-adv-x="1120" 
d="M673 0h-227l-113 566l226 222l227 -222zM389 0h-192l-147 192l96 184l187 -93zM922 0h-192l56 283l187 93l96 -184z" />
    <glyph glyph-name="zero.alt" horiz-adv-x="636" 
d="M318 -10q-68 0 -122 32.5t-86 87t-48.5 118.5t-16.5 133t16.5 133t48.5 118.5t86 87t122 32.5t122 -32.5t86 -87t48.5 -118.5t16.5 -133t-16.5 -133t-48.5 -118.5t-86 -87t-122 -32.5zM318 22q64 0 95 76t31 263t-31 263t-95 76t-95 -76t-31 -263t31 -263t95 -76z
M319 255h-4q-1 48 -24 75t-66 28v4q43 1 66 28t24 75h4q1 -48 24 -75t66 -28v-4q-43 -1 -66 -28t-24 -75z" />
    <glyph glyph-name="A.alt" horiz-adv-x="618" 
d="M393 135l-17 51q-206 0 -243 -1q-27 -72 -27 -115q0 -49 37 -57v-15q-44 2 -102 2q-37 0 -79 -2v15q42 14 71 57.5t71 153.5l202 518h33l197 -610q34 -104 75 -119v-15q-42 2 -109 2q-89 0 -133 -2v15q42 8 42 42q0 24 -18 80zM184 318h149l-69 211zM150 228h212l-15 48
h-179z" />
    <glyph glyph-name="B.alt" horiz-adv-x="616" 
d="M253 388v11q66 0 99.5 47t33.5 121q0 132 -108 132q-27 0 -51 -9v-654q23 -9 66 -9q66 0 107.5 45.5t41.5 128.5q0 91 -50.5 139t-138.5 48zM334 -3q-12 0 -72 1.5t-100 1.5q-75 0 -119 -2v15q34 6 42 30.5t8 110.5v419q0 86 -8 110.5t-42 30.5v15q44 -2 126 -2
q41 0 103 1t68 1q99 0 145 -43.5t46 -113.5q0 -133 -149 -171q205 -28 205 -195q0 -39 -11 -73t-37 -66t-78.5 -51t-126.5 -19z" />
    <glyph glyph-name="C.alt" horiz-adv-x="698" 
d="M429 22q149 0 215 198h15q-12 -94 -12 -189q0 -26 1 -36h-11q-4 26 -12 37q-95 -42 -204 -42q-95 0 -171 32t-123 85t-72 118.5t-25 136.5q0 70 24.5 135t72 118t125 85t174.5 32q101 0 196 -42q8 11 12 37h11q-1 -10 -1 -36q0 -92 12 -185h-15q-64 194 -212 194
q-106 0 -179 -91.5t-73 -247.5t73 -247.5t179 -91.5z" />
    <glyph glyph-name="D.alt" horiz-adv-x="738" 
d="M555 358q0 68 -10 122t-25.5 89t-39 60.5t-44 38.5t-48 20.5t-44.5 9t-39 1.5q-51 0 -78 -9v-654q23 -9 69 -9q134 0 196.5 81t62.5 250zM319 -3q-15 0 -70 1.5t-89 1.5q-73 0 -117 -2v15q34 6 42 30.5t8 110.5v419q0 86 -8 110.5t-42 30.5v15q44 -2 116 -2q26 0 68.5 1
t58.5 1q107 0 187 -26t123 -64t69.5 -90.5t33.5 -93.5t7 -86q0 -165 -99.5 -268.5t-287.5 -103.5z" />
    <glyph glyph-name="E.alt" horiz-adv-x="564" 
d="M227 687v-647q24 -4 68 -4q41 0 65 4t53 19t51 49.5t40 90.5h15q-3 -144 -3 -201q-75 2 -356 2q-73 0 -117 -2v15q34 6 42 30.5t8 110.5v419q0 86 -8 110.5t-42 30.5v15q44 -2 117 -2q285 0 360 2q-2 -50 -2 -111q0 -51 1 -72h-15q-15 43 -32.5 71t-32.5 43t-41.5 22
t-44.5 8t-58 1q-44 0 -68 -4zM363 271h-5q-1 43 -26 72t-65 30v5q39 1 64.5 30.5t26.5 72.5h5q1 -43 26.5 -72.5t64.5 -30.5v-5q-39 -1 -64.5 -30t-26.5 -72z" />
    <glyph glyph-name="F.alt" horiz-adv-x="517" 
d="M227 687v-533q0 -86 8 -110.5t42 -30.5v-15q-44 2 -117 2t-117 -2v15q34 6 42 30.5t8 110.5v419q0 86 -8 110.5t-42 30.5v15q44 -2 117 -2q267 0 342 2q-2 -50 -2 -86q0 -68 1 -89h-15q-18 49 -34.5 76.5t-41 41t-47 16.5t-68.5 3q-44 0 -68 -4zM364 271h-5q-1 43 -26 72
t-65 30v5q39 1 64.5 30.5t26.5 72.5h5q1 -43 26.5 -72.5t64.5 -30.5v-5q-39 -1 -64.5 -30t-26.5 -72z" />
    <glyph glyph-name="G.alt" horiz-adv-x="785" 
d="M426 -10q-180 0 -287.5 109.5t-107.5 265.5q0 71 25 135.5t73.5 117t129.5 83.5t184 31q131 0 225 -47q10 12 14 42h11q-4 -101 12 -227h-15q-62 200 -245 200q-124 0 -195.5 -90t-71.5 -253t70.5 -249t186.5 -86q99 0 151 57v111q0 88 -8.5 115.5t-41.5 33.5v15
q44 -2 117 -2t117 2v-15q-33 -6 -41.5 -33.5t-8.5 -115.5q0 -104 5 -124l-2 -4q-8 4 -23 4q-20 0 -47 -12t-52 -26t-72 -26t-103 -12z" />
    <glyph glyph-name="H.alt" horiz-adv-x="755" 
d="M277 13v-15q-44 2 -117 2t-117 -2v15q34 6 42 30.5t8 110.5v419q0 86 -8 110.5t-42 30.5v15q44 -2 117 -2t117 2v-15q-34 -6 -42 -30.5t-8 -110.5v-132h301v132q0 86 -8 110.5t-42 30.5v15q44 -2 117 -2t117 2v-15q-34 -6 -42 -30.5t-8 -110.5v-419q0 -86 8 -110.5
t42 -30.5v-15q-44 2 -117 2t-117 -2v15q34 6 42 30.5t8 110.5v144q-53 1 -157 1q-97 0 -144 -1v-144q0 -86 8 -110.5t42 -30.5zM528 341v57q-53 1 -157 1q-97 0 -144 -1v-57h301z" />
    <glyph glyph-name="I.alt" horiz-adv-x="320" 
d="M93 154v419q0 89 -8 114t-42 31v11q44 -2 117 -2t117 2v-11q-34 -6 -42 -31t-8 -114v-419q0 -89 8 -114t42 -31v-11q-44 2 -117 2t-117 -2v11q34 6 42 31t8 114zM162 755h-4q-1 53 -23 77t-66 26v4q44 2 66 26t23 77h4q1 -53 23 -77.5t67 -25.5v-4q-45 -1 -67 -25.5
t-23 -77.5z" />
    <glyph glyph-name="J.alt" horiz-adv-x="314" 
d="M90 12v561q0 89 -8 114t-42 31v11q44 -2 117 -2t117 2v-11q-34 -6 -42 -31t-8 -114v-554q0 -83 -38.5 -132.5t-137.5 -85.5l-6 14q34 23 41 54t7 143zM159 755h-4q-1 53 -23 77t-66 26v4q44 2 66 26t23 77h4q1 -53 23 -77.5t67 -25.5v-4q-45 -1 -67 -25.5t-23 -77.5z" />
    <glyph glyph-name="K.alt" horiz-adv-x="633" 
d="M247 367v7q197 257 197 301q0 27 -39 37v15q44 -2 117 -2q65 0 107 2v-15q-65 -13 -128 -73t-154 -191l195 -298q35 -54 63 -85.5t61 -51.5v-15q-42 2 -126 2q-80 0 -124 -2v15q19 6 19 24q0 26 -45 99zM277 13v-15q-44 2 -117 2t-117 -2v15q34 6 42 30.5t8 110.5v419
q0 86 -8 110.5t-42 30.5v15q44 -2 117 -2t117 2v-15q-34 -6 -42 -30.5t-8 -110.5v-419q0 -86 8 -110.5t42 -30.5z" />
    <glyph glyph-name="L.alt" horiz-adv-x="522" 
d="M227 40q43 -4 116 -4q35 0 54.5 3.5t40.5 17t34.5 44t23.5 80.5h15q-4 -136 -4 -229h-15q-3 22 -9.5 30.5t-32 13t-84.5 4.5h-206q-73 0 -117 -2v15q34 6 42 30.5t8 110.5v419q0 86 -8 110.5t-42 30.5v15q44 -2 117 -2t117 2v-15q-34 -6 -42 -30.5t-8 -110.5v-533z" />
    <glyph glyph-name="M.alt" horiz-adv-x="936" 
d="M483 207l146 355q60 143 70 165q36 -2 77 -2q37 0 79 2v-15q-51 -2 -70.5 -17t-19.5 -53q0 -27 12 -97l68 -392q13 -74 25.5 -104t39.5 -36v-15q-42 2 -104 2q-69 0 -113 -2v15q32 8 32 47q0 21 -12 88l-66 342l-194 -482h-21l-223 515l-57 -318q-14 -82 -14 -109
q0 -71 57 -83v-15q-44 2 -99 2q-54 0 -96 -2v15q38 8 62.5 42.5t43.5 132.5l47 250q14 72 14 126q0 137 -99 148v15q42 -2 125 -2q22 0 48.5 1t28.5 1q4 -30 213 -520z" />
    <glyph glyph-name="N.alt" horiz-adv-x="736" 
d="M602 214v210q0 166 -15 222t-60 68v15q44 -2 93 -2q37 0 79 2v-15q-39 -11 -47 -61t-8 -230v-241q0 -121 6 -204h-13q-191 225 -503 567v-242q0 -163 15.5 -220.5t59.5 -69.5v-15q-44 2 -93 2q-37 0 -79 -2v15q38 11 46.5 62.5t8.5 228.5v148q0 132 -17 181.5t-73 84.5
v11h155q80 -91 445 -515z" />
    <glyph glyph-name="O.alt" horiz-adv-x="802" 
d="M771 360q0 -161 -110 -265.5t-260 -104.5t-260 104.5t-110 265.5t110.5 266.5t259.5 105.5t259.5 -105.5t110.5 -266.5zM401 22q115 0 169 82t54 257q0 174 -54 256.5t-169 82.5t-169 -82.5t-54 -256.5q0 -175 54 -257t169 -82zM401 255h-4q-1 48 -24 75t-66 28v4
q43 1 66 28t24 75h4q1 -48 24 -75t66 -28v-4q-43 -1 -66 -28t-24 -75z" />
    <glyph glyph-name="P.alt" horiz-adv-x="562" 
d="M246 310h-19v-156q0 -86 8 -110.5t42 -30.5v-15q-44 2 -117 2t-117 -2v15q34 6 42 30.5t8 110.5v419q0 86 -8 110.5t-42 30.5v15q44 -2 118 -2q31 0 74 1t52 1q128 0 198 -58t70 -147q0 -40 -15.5 -76t-49 -68t-96 -51t-148.5 -19zM276 699q-31 0 -49 -9v-349h20
q163 0 163 183q0 175 -134 175z" />
    <glyph glyph-name="Q.alt" horiz-adv-x="802" 
d="M771 360q0 -119 -63 -209.5t-164 -131.5q43 -4 95.5 -28.5t70.5 -24.5q31 0 55 33l6 -4q-47 -110 -133 -110q-34 0 -93 29t-104 29q-84 0 -205 -83l-6 7q23 24 88.5 67t124.5 59q-21 -3 -44 -3q-148 0 -258 105t-110 265q0 161 110.5 266.5t259.5 105.5q150 0 260 -105.5
t110 -266.5zM401 22q115 0 169 82t54 257q0 174 -54 256.5t-169 82.5t-169 -82.5t-54 -256.5q0 -175 54 -257t169 -82z" />
    <glyph glyph-name="R.alt" horiz-adv-x="609" 
d="M608 13l1 -7q-9 -10 -61 -10q-71 0 -112 35q-22 19 -45.5 56t-86.5 154q-13 24 -22.5 45.5t-13 31t-10 18.5t-17.5 17l8 15q27 -15 50 -15q107 0 107 166q0 180 -130 180q-31 0 -49 -9v-536q0 -86 8 -110.5t42 -30.5v-15q-44 2 -117 2t-117 -2v15q34 6 42 30.5t8 110.5
v419q0 86 -8 110.5t-42 30.5v15q44 -2 118 -2q30 0 72.5 1t53.5 1q131 0 197.5 -53.5t66.5 -144.5q0 -152 -182 -192q34 -16 88 -113q33 -60 54 -95t49 -71.5t48 -46.5z" />
    <glyph glyph-name="S.alt" horiz-adv-x="516" 
d="M36 224h15q22 -95 72 -148.5t121 -53.5q59 0 92.5 35.5t33.5 90.5q0 51 -33 88.5t-80 62.5t-93.5 52t-79.5 72t-33 108q0 91 61 151t158 60q29 0 68 -8t61 -8q30 0 53 11q-4 -58 -4 -108q0 -49 1 -93h-16q-40 174 -162 174q-55 0 -86.5 -30t-31.5 -82q0 -38 18 -66.5
t46 -47.5t62.5 -36t69 -36.5t62.5 -43.5t46 -62.5t18 -88.5q0 -96 -60 -161.5t-174 -65.5q-34 0 -80.5 9t-68.5 9q-30 0 -48 -5v7t0.5 16t0.5 26q0 90 -9 172z" />
    <glyph glyph-name="T.alt" horiz-adv-x="556" 
d="M345 154q0 -86 8 -110.5t42 -30.5v-15q-44 2 -117 2t-117 -2v15q34 6 42 30.5t8 110.5v527h-11q-55 0 -88 -5.5t-50 -21.5t-23 -32t-12 -48h-16q2 48 2 107q0 10 -0.5 28.5t-0.5 26.5q44 -19 268 -19q75 0 116.5 1t103 6.5t103 18.5t67.5 35l11 -9q-19 -17 -50 -38.5
t-44 -34t-25.5 -43.5t-16.5 -79h-16q1 8 1 23q0 53 -35 68.5t-139 15.5h-11v-527z" />
    <glyph glyph-name="U.alt" horiz-adv-x="783" 
d="M556 281v292q0 89 -8 114t-42 31v11q44 -2 117 -2t117 2v-11q-34 -6 -42 -31t-8 -114v-419q0 -89 8 -114t42 -31v-11q-44 2 -117 2q-28 0 -72 -2q4 22 5 86q-28 -47 -86 -72t-125 -25q-35 0 -66.5 5.5t-69 23.5t-63.5 47.5t-44 83.5t-18 125v301q0 86 -8 110.5t-42 30.5
v15q44 -2 117 -2t117 2v-15q-34 -6 -42 -30.5t-8 -110.5v-288q0 -55 3 -91t12 -70t26 -53.5t45.5 -31t69.5 -11.5q102 0 142 64t40 189z" />
    <glyph glyph-name="V.alt" horiz-adv-x="628" 
d="M305 -22l-249 638q-56 142 -93 187t-103 45q-49 0 -90 -26l-5 15q82 71 193 71q83 0 122.5 -43.5t95.5 -190.5l187 -497l121 350q28 81 28 130t-37 57v15q44 -2 102 -2q37 0 79 2v-15q-30 -10 -47.5 -27t-37 -57.5t-50.5 -126.5l-187 -525h-29z" />
    <glyph glyph-name="W.alt" horiz-adv-x="963" 
d="M547 592l150 -417l123 351q28 81 28 131q0 49 -37 57v15q44 -2 102 -2q37 0 79 2v-15q-42 -14 -67.5 -53t-67.5 -158l-188 -525h-29l-156 407l-153 -407h-29l-244 636q-54 142 -91.5 188t-105.5 46q-52 0 -90 -26l-5 15q89 71 193 71q82 0 125 -47t94 -188l183 -503
l100 275l-57 150q-26 68 -40.5 92t-31.5 27v15q42 -2 106 -2q109 0 153 2v-15q-35 -6 -49.5 -17t-14.5 -31q0 -21 20 -74z" />
    <glyph glyph-name="X.alt" horiz-adv-x="691" 
d="M431 113l-116 184l-73 -107q-58 -84 -58 -133q0 -40 45 -44v-15q-44 2 -125 2q-90 0 -132 -2v15q44 6 68.5 17t62.5 51t95 122l93 133l-190 302q-77 123 -123 166.5t-108 43.5q-49 0 -90 -26l-5 15q86 71 193 71q42 0 72 -9.5t60.5 -38t55.5 -63t67 -101.5l155 -245
l58 86q58 84 58 133q0 40 -45 44v15q44 -2 125 -2q90 0 132 2v-15q-44 -6 -68.5 -17t-62.5 -51t-95 -122l-78 -112l184 -290q29 -46 54.5 -70.5t40 -30t37.5 -8.5v-15q-42 2 -139 2q-134 0 -178 -2v15q62 6 62 32q0 18 -32 68z" />
    <glyph glyph-name="Y.alt" horiz-adv-x="621" 
d="M385 239v-85q0 -86 8 -110.5t42 -30.5v-15q-44 2 -117 2t-117 -2v15q34 6 42 30.5t8 110.5v59q0 102 -41 213.5t-106 187t-128 75.5q-15 0 -30 -3l-3 13q79 34 140 34q63 0 111 -50t76.5 -126t50.5 -186q46 186 105.5 274t155.5 88q62 0 115 -44l-4 -13q-33 10 -58 10
q-63 0 -122 -72t-93.5 -176t-34.5 -199z" />
    <glyph glyph-name="Z.alt" horiz-adv-x="633" 
d="M457 0q-344 0 -450 -2v15l455 678h-131q-159 0 -215.5 -26.5t-62.5 -118.5h-15q0 47 21.5 118.5t21.5 110.5h15q3 -22 10.5 -30.5t32.5 -13t83 -4.5q380 0 412 2v-15l-456 -679h186q54 0 82.5 2t56 9.5t41 24t24.5 42t19 68.5h15q-4 -136 -4 -229h-15q-3 22 -9.5 30.5
t-32 13t-84.5 4.5z" />
    <glyph glyph-name="a.alt" 
d="M21 104q0 60 52.5 95t127.5 35q56 0 95 -19v119q0 67 -17.5 93t-50.5 26q-37 0 -52.5 -30t-15.5 -97h-121q8 58 39.5 94t70 48t86.5 12q86 0 135.5 -43t49.5 -129v-204q0 -56 9 -71t34 -20v-15q-44 2 -85 2q-46 0 -86 -2q4 14 4 34q-59 -42 -129 -42q-61 0 -103.5 30.5
t-42.5 83.5zM296 189q-30 14 -67 14q-77 0 -77 -82q0 -44 20.5 -65.5t51.5 -21.5q38 0 72 28v127z" />
    <glyph glyph-name="d.alt" horiz-adv-x="550" 
d="M265 480q56 0 95 -29v175q0 50 -5 67t-26 23v15q88 0 155 31v-658q0 -56 9 -71t34 -20v-15q-44 2 -85 2q-44 0 -84 -2q0 4 0.5 14.5t0.5 16.5q-48 -35 -107 -35q-96 0 -161.5 66.5t-65.5 169.5q0 107 70 178.5t170 71.5zM360 61v348q-24 40 -84 40q-57 0 -85 -48
t-28 -155q0 -214 122 -214q46 0 75 29z" />
    <glyph glyph-name="e.alt" horiz-adv-x="485" 
d="M461 247h-312q6 -87 51.5 -139.5t114.5 -52.5t133 61l9 -13q-73 -113 -192 -113q-98 0 -169 67.5t-71 177.5q0 111 72 178t166 67q78 0 139 -48t61 -145q0 -14 -2 -40zM256 453q-45 0 -75 -51t-32 -123h189q2 18 2 36q0 61 -22.5 99.5t-61.5 38.5z" />
    <glyph glyph-name="f.alt" horiz-adv-x="300" 
d="M243 -212v-15q-44 2 -105 2t-105 -2v15q25 5 34 20t9 71v524h-59v13l59 59q0 96 7 145.5t30 85.5q18 28 49 44.5t64 16.5q70 0 96 -70l-78 -61q-22 38 -39 56t-38 18q-35 0 -35 -52q0 -26 17 -49.5t34 -52t17 -65.5v-16h94v-72h-94v-524q0 -56 9 -71t34 -20z" />
    <glyph glyph-name="g.alt" horiz-adv-x="521" 
d="M456 308q0 -77 -61.5 -120t-149.5 -43q-23 0 -34 1q-35 -11 -35 -55q0 -27 19.5 -41t76.5 -18q29 -2 46.5 -4t47 -6.5t48 -13t37.5 -20.5t28.5 -31.5t9.5 -44.5q0 -61 -59.5 -99t-184.5 -38q-112 0 -178.5 32.5t-66.5 95.5q0 83 120 117q-67 25 -67 72q0 30 24.5 48
t61.5 24q-105 43 -105 144q0 77 62.5 124.5t148.5 47.5q80 0 140 -41q14 11 14 27q0 17 -12 32l90 -4q12 -12 12 -27q0 -29 -85 -44q52 -47 52 -115zM354 -98q0 101 -117 101q-111 0 -111 -96q0 -53 32.5 -80.5t85.5 -27.5q52 0 81 26t29 77zM170 308q0 -72 16.5 -105.5
t58.5 -33.5t58.5 33.5t16.5 105.5q0 74 -17 111t-58 37t-58 -37t-17 -111z" />
    <glyph glyph-name="i.alt" horiz-adv-x="258" 
d="M237 13v-15q-44 2 -105 2t-105 -2v15q25 5 34 20t9 71v240q0 50 -5 67t-26 23v15q88 0 155 31v-376q0 -56 9 -71t34 -20zM130 492h-5q-1 39 -24 65.5t-59 27.5v5q36 1 59 28t24 66h5q1 -39 24 -66t59 -28v-5q-36 -1 -59 -27t-24 -66z" />
    <glyph glyph-name="j.alt" horiz-adv-x="245" 
d="M62 23v321q0 50 -5 67t-26 23v15q88 0 155 31v-517q0 -60 -46 -110t-116 -78l-8 13q33 26 39.5 65.5t6.5 169.5zM122 492h-5q-1 39 -24 65.5t-59 27.5v5q36 1 59 28t24 66h5q1 -39 24 -66t59 -28v-5q-36 -1 -59 -27t-24 -66z" />
    <glyph glyph-name="k.alt" horiz-adv-x="518" 
d="M207 267v5q137 126 137 155t-33 35v15q46 -2 94 -2q41 0 89 2v-16q-41 -12 -81.5 -41t-100.5 -89l87 -135q71 -111 95 -143t42 -40v-15q-52 2 -91 2q-45 0 -99 -2v15q19 3 19 13q0 8 -29 53zM231 13v-15q-44 2 -105 2t-105 -2v15q25 5 34 20t9 71v522q0 50 -5 67t-26 23
v15q88 0 155 31v-658q0 -56 9 -71t34 -20z" />
    <glyph glyph-name="m.alt" horiz-adv-x="845" 
d="M70 104v240q0 50 -5 67t-26 23v15q88 0 155 31v-67q66 67 152 67q94 0 127 -69q74 69 165 69q148 0 148 -163v-213q0 -56 9 -71t34 -20v-15q-44 2 -105 2t-105 -2v15q25 5 34 20t9 71v213q0 61 -17.5 90.5t-60.5 29.5q-54 0 -102 -50q9 -29 9 -70v-213q0 -56 9 -71
t34 -20v-15q-44 2 -105 2t-105 -2v15q25 5 34 20t9 71v213q0 62 -16.5 91t-55.5 29q-58 0 -101 -55v-278q0 -56 9 -71t34 -20v-15q-44 2 -105 2t-105 -2v15q25 5 34 20t9 71z" />
    <glyph glyph-name="n.alt" horiz-adv-x="559" 
d="M70 104v240q0 50 -5 67t-26 23v15q88 0 155 31v-67q66 67 155 67q152 0 152 -163v-213q0 -56 9 -71t34 -20v-15q-44 2 -105 2t-105 -2v15q25 5 34 20t9 71v213q0 61 -17.5 90.5t-61.5 29.5q-61 0 -104 -55v-278q0 -56 9 -71t34 -20v-15q-44 2 -105 2t-105 -2v15
q25 5 34 20t9 71z" />
    <glyph glyph-name="o.alt" horiz-adv-x="552" 
d="M276 -6q-100 0 -176 67.5t-76 172.5q0 109 75.5 177.5t176.5 68.5t176.5 -68.5t75.5 -177.5q0 -105 -76 -172.5t-176 -67.5zM276 21q66 0 90 51.5t24 161.5q0 115 -24 167t-90 52t-90 -52t-24 -167q0 -110 24 -161.5t90 -51.5zM278 145h-5q-1 38 -23 63.5t-57 26.5v5
q35 1 57 27t23 63h5q1 -37 23 -63t57 -27v-5q-35 -1 -57 -26.5t-23 -63.5z" />
    <glyph glyph-name="r.alt" horiz-adv-x="422" 
d="M237 13v-15q-44 2 -105 2t-105 -2v15q25 5 34 20t9 71v240q0 50 -5 67t-26 23v15q88 0 155 31v-95q99 95 161 95q40 0 65.5 -33t25.5 -107h-121q0 58 -43 58q-37 0 -88 -45v-249q0 -56 9 -71t34 -20z" />
    <glyph glyph-name="u.alt" horiz-adv-x="553" 
d="M56 156v188q0 50 -5 67t-26 23v15q88 0 155 31v-333q0 -61 24 -85.5t68 -24.5q47 0 80 35v272q0 50 -5 67t-26 23v15q88 0 155 31v-376q0 -56 9 -71t34 -20v-15q-44 2 -90 2q-39 0 -79 -2q2 22 2 45q-51 -49 -129 -49q-25 0 -45 2.5t-44 12t-40 26t-27 48t-11 73.5z" />
    <glyph glyph-name="w.alt" horiz-adv-x="729" 
d="M490 -16h-21l-116 297l-127 -297h-21l-143 367q-26 66 -38 86t-31 24v15q4 0 30.5 -0.5t47.5 -0.5q22 0 65 0.5t47 0.5v-15q-20 -7 -20 -31q0 -14 25 -81l69 -187q55 130 72 181l-3 8q-26 66 -38 86t-31 24v15q4 0 30.5 -0.5t47.5 -0.5q22 0 75 0.5t57 0.5v-15
q-38 -7 -38 -35q0 -17 23 -77l69 -187q93 208 93 251q0 42 -43 48v15q3 0 28 -0.5t51 -0.5q19 0 51 0.5t37 0.5v-15q-28 -7 -44.5 -31t-48.5 -98z" />
    <glyph glyph-name="y.alt" horiz-adv-x="568" 
d="M174 -212q34 6 42 30.5t8 110.5v110l-138 304q-28 60 -49.5 84.5t-44.5 34.5v15q42 -2 125 -2q80 0 124 2v-15q-50 -10 -50 -38q0 -19 28 -84l100 -237l90 202q36 81 36 106q0 42 -51 51v15q44 -2 102 -2q37 0 79 2v-15q-40 -13 -66 -50t-67 -127l-94 -209v-147
q0 -86 8 -110.5t42 -30.5v-15q-44 2 -112 2t-112 -2v15z" />
    <glyph glyph-name="ampersand.alt" horiz-adv-x="677" 
d="M19 177q0 46 16 84.5t49.5 70.5t61.5 52t76 48q-28 61 -28 108q0 70 73.5 122.5t153.5 52.5q44 0 68 -17.5t24 -47.5q0 -16 -4.5 -31t-16.5 -30t-21 -25.5t-31 -26.5t-32 -23.5t-38.5 -26.5l-37.5 -25q14 -32 46.5 -87.5t51 -96.5t18.5 -72q0 -75 -114 -114l-5 4
q14 29 14 70q0 26 -13 58.5t-46 91t-42 75.5q-88 -83 -88 -184q0 -87 47.5 -131t121.5 -44q61 0 107 18.5t71.5 49.5t38 65.5t12.5 71.5q0 94 -91 104q45 39 98 39q45 0 74 -28t29 -85q0 -107 -110.5 -195t-273.5 -88q-118 0 -188.5 49.5t-70.5 143.5zM305 570q0 -34 15 -77
q91 67 91 144q0 40 -41 40q-28 0 -46.5 -29t-18.5 -78z" />
    <glyph glyph-name="numbersign.alt" horiz-adv-x="1166" 
d="M1087 125h-310v30h310v-30zM934 221q-78 0 -136.5 52.5t-58.5 134.5q0 84 58.5 137t136.5 53q79 0 137.5 -53t58.5 -137q0 -82 -59 -134.5t-137 -52.5zM934 242q51 0 70 40t19 126q0 89 -19 129t-70 40t-69.5 -40t-18.5 -129q0 -86 18.5 -126t69.5 -40zM619 214v210
q0 166 -15 222t-60 68v15q44 -2 93 -2q37 0 79 2v-15q-39 -11 -47 -61t-8 -230v-241q0 -121 6 -204h-13q-292 324 -503 528v-203q0 -163 15.5 -220.5t59.5 -69.5v-15q-44 2 -93 2q-37 0 -79 -2v15q38 11 46.5 62.5t8.5 228.5q0 341 -4 438h17q248 -276 497 -528zM938 334h-4
q0 31 -18.5 51.5t-46.5 21.5v4q28 1 46.5 22.5t18.5 51.5h4q1 -31 19 -52t47 -22v-4q-29 0 -47 -21t-19 -52z" />
    <glyph glyph-name="zero.osf.alt" horiz-adv-x="668" 
d="M334 -13q-125 0 -204.5 74.5t-79.5 205.5q0 130 79.5 204t204.5 74t204.5 -74t79.5 -204q0 -131 -79.5 -205.5t-204.5 -74.5zM334 19q137 0 137 250q0 244 -137 244t-137 -244q0 -250 137 -250zM338 158h-6q-2 45 -27.5 74.5t-66.5 31.5v6q40 1 66 31t28 74h6
q1 -44 27 -74t66 -31v-6q-41 -1 -66.5 -31t-26.5 -75z" />
    <glyph glyph-name="one.osf.alt" horiz-adv-x="334" 
d="M100 154v222q0 86 -8 110.5t-42 30.5v15q44 -2 117 -2t117 2v-15q-34 -6 -42 -30.5t-8 -110.5v-222q0 -86 8 -110.5t42 -30.5v-15q-44 2 -117 2t-117 -2v15q34 6 42 30.5t8 110.5z" />
    <glyph glyph-name="zero.osf" horiz-adv-x="668" 
d="M334 -13q-125 0 -204.5 74.5t-79.5 205.5q0 130 79.5 204t204.5 74t204.5 -74t79.5 -204q0 -131 -79.5 -205.5t-204.5 -74.5zM334 19q137 0 137 250q0 244 -137 244t-137 -244q0 -250 137 -250z" />
    <glyph glyph-name="one.osf" horiz-adv-x="357" 
d="M118 408l-79 -55l-9 21q173 115 207 176h15v-396q0 -86 8 -110.5t42 -30.5v-15q-44 2 -117 2t-117 -2v15q34 6 42 30.5t8 110.5v254z" />
    <glyph glyph-name="two.osf" horiz-adv-x="589" 
d="M529 170h15q0 -23 -13.5 -79.5t-14.5 -96.5q-126 6 -319 6q-50 0 -116.5 -0.5t-67.5 -0.5v15q46 24 90.5 52t93.5 67t85.5 78t60.5 85.5t24 90.5q0 50 -30 80t-89 30q-63 0 -104 -34t-41 -85q0 -34 19.5 -58t56.5 -31q-26 -11 -60 -42q-62 51 -62 125t57 122.5t161 48.5
q99 0 167 -43.5t68 -121.5q0 -70 -66 -127.5t-238 -151.5q56 -1 125 -3.5t88 -2.5q53 0 77 15t33 62z" />
    <glyph glyph-name="three.osf" horiz-adv-x="557" 
d="M121 9l4 -3q-7 -20 -7 -40q0 -61 33.5 -96.5t86.5 -35.5q56 0 89.5 40.5t33.5 123.5q0 166 -150 166v17q72 0 111 48.5t39 123.5t-33.5 110t-89.5 35q-57 0 -95 -33.5t-38 -89.5q0 -57 51 -90q-42 -17 -61 -35q-38 45 -38 107q0 83 60.5 135t156.5 52t158 -51.5
t62 -139.5q0 -103 -119 -151q49 -20 79 -54t40 -65t10 -65q0 -92 -72 -154t-184 -62q-84 0 -138.5 43.5t-69.5 105.5q20 8 49.5 32t31.5 26z" />
    <glyph glyph-name="four.osf" horiz-adv-x="590" 
d="M14 0l-5 24l439 525h15v-460q47 0 63 5t24 29h5q0 -19 -15 -66t-17 -62q-14 5 -60 5v-39q0 -86 8 -110.5t42 -30.5v-15q-44 2 -117 2t-117 -2v15q34 6 42 30.5t8 110.5v39h-315zM329 352l-216 -263h216v263z" />
    <glyph glyph-name="five.osf" horiz-adv-x="579" 
d="M109 6l3 -2q-2 -18 -2 -35q0 -65 41 -106t102 -41q70 0 108.5 55.5t38.5 130.5q0 70 -41 118.5t-121 48.5q-91 0 -140 -56h-15q9 64 16 199.5t7 215.5q135 -9 317 -9q39 0 54.5 3t23.5 14h6q-22 -66 -36 -117l-322 9q-1 -84 -6 -162q65 24 128 24q128 0 200 -73t72 -179
q0 -103 -76 -178.5t-214 -75.5q-79 0 -140.5 40t-85.5 109q10 5 19.5 11t19.5 15l15 13.5t16 15.5z" />
    <glyph glyph-name="six.osf" horiz-adv-x="596" 
d="M483 714q-127 -6 -195.5 -90t-87.5 -224q56 85 160 85q96 0 150 -69t54 -165q0 -107 -66 -184t-179 -77q-117 0 -194.5 85t-77.5 229q0 180 120 304.5t316 124.5v-19zM314 439q-74 0 -119 -91q-1 -19 -1 -59q0 -48 5 -89.5t17 -84.5t37 -68t62 -25q106 0 106 209
q0 208 -107 208z" />
    <glyph glyph-name="seven.osf" horiz-adv-x="525" 
d="M426 409h-244q-82 0 -108 -17.5t-30 -70.5h-15q0 24 3.5 82.5t3.5 86.5q0 43 -2 55h5q20 -15 127 -15h365v-15q-94 -171 -195.5 -394t-118.5 -313q-19 3 -93 3q82 136 302 598z" />
    <glyph glyph-name="eight.osf" horiz-adv-x="555" 
d="M356 391q70 -46 108 -90.5t38 -107.5q0 -99 -66 -151t-158 -52q-97 0 -161 43.5t-64 119.5q0 108 147 189q-66 46 -102.5 89t-36.5 101q0 82 62.5 141t158.5 59q94 0 151 -45.5t57 -111.5q0 -95 -134 -184zM232 321q-88 -60 -88 -168q0 -58 34.5 -94.5t103.5 -36.5
q57 0 86 32t29 82q0 28 -12.5 53t-35.5 46.5t-49 40t-58 39.5q-7 4 -10 6zM326 410q38 27 60.5 72.5t22.5 92.5q0 57 -31.5 91t-95.5 34q-52 0 -85.5 -25.5t-33.5 -75.5q0 -31 12 -57.5t40.5 -51.5t48.5 -39t62 -41z" />
    <glyph glyph-name="nine.osf" horiz-adv-x="597" 
d="M364 129l10 -11q-51 -68 -137 -68q-96 0 -150 69t-54 165q0 107 66 184t179 77q117 0 194.5 -85t77.5 -229q0 -180 -120 -304.5t-316 -124.5v19q78 3 135.5 38t90 94.5t48 132t15.5 160.5q0 48 -5 89.5t-17 84.5t-37 68t-62 25q-106 0 -106 -210q0 -207 109 -207
q43 0 79 33z" />
    <glyph glyph-name="dollar.alt" horiz-adv-x="402" 
d="M219 0h-30v124h-3q-90 0 -156 39q3 14 5 60.5t7 68.5h11q-1 -6 -1 -19q0 -50 33 -86t90 -36q37 0 55 19.5t18 48.5q0 31 -22.5 55.5t-54 42t-63.5 36.5t-54.5 49t-22.5 70q0 60 41.5 95.5t116.5 43.5v114h30v-112q78 -1 143 -22q-3 -15 -3 -39q0 -5 2 -69h-11
q-14 49 -50 77.5t-82 28.5q-62 0 -62 -70q0 -31 22.5 -56t55 -43t65 -38.5t55 -53.5t22.5 -76q0 -59 -44.5 -90t-112.5 -37v-125z" />
    <glyph glyph-name="cent.alt" horiz-adv-x="590" 
d="M351 0h-30v91q-123 4 -206.5 78.5t-83.5 198.5t82.5 198t207.5 79v80h30v-79q42 -1 112 -14.5t84 -15.5q-3 -48 -3 -94q0 -19 2 -73h-10q-22 85 -73.5 124t-111.5 43v-496q26 2 51.5 10.5t53 27t50 53.5t34.5 83h10q-4 -68 -4 -114q0 -34 1 -53q-21 -3 -87 -18.5
t-109 -17.5v-91zM173 368q0 -110 37 -175.5t111 -72.5v496q-74 -7 -111 -72.5t-37 -175.5z" />
    <glyph glyph-name="yen.alt" horiz-adv-x="621" 
d="M616 217v-50q-27 1 -231 1v-14q0 -86 8 -110.5t42 -30.5v-15q-44 2 -117 2t-117 -2v15q34 6 42 30.5t8 110.5v14q-208 0 -234 -1v50q50 -2 234 -2q0 44 -9 92q-200 0 -225 -1v50q46 -2 215 -2q-34 133 -108 234t-148 101q-15 0 -30 -3l-3 13q79 34 140 34q63 0 111 -50
t76.5 -126t50.5 -186q46 186 105.5 274t155.5 88q62 0 115 -44l-4 -13q-33 10 -58 10q-76 0 -143.5 -100.5t-94.5 -231.5q169 0 219 2v-50q-26 1 -227 1q-4 -31 -4 -68v-24q179 0 231 2z" />
    <glyph glyph-name="Euro.alt" horiz-adv-x="773" 
d="M483 22q152 0 218 198h15q-12 -94 -12 -189q0 -26 1 -36h-11q-4 26 -12 37q-93 -42 -199 -42q-159 0 -258 79t-128 200q-15 0 -36.5 -0.5t-23.5 -0.5v50q8 -1 52 -1q-2 28 -2 44q0 23 3 47q-13 0 -32 -0.5t-21 -0.5v50q9 -1 61 -1q30 120 128.5 198t256.5 78
q101 0 196 -42q8 11 12 37h11q-1 -10 -1 -36q0 -92 12 -185h-15q-65 194 -215 194q-86 0 -153.5 -65.5t-87.5 -179.5h94q203 0 269 2v-50q-33 1 -269 1h-100q-2 -15 -2 -47q0 -17 2 -45h100q203 0 269 2v-50q-33 1 -269 1h-94q20 -115 87 -181t154 -66z" />
    <glyph glyph-name="exclam.alt" horiz-adv-x="240" 
d="M132 163h-27q0 31 -28 225.5t-28 256.5q0 34 17 57t54 23q38 0 55 -23t17 -57q0 -62 -30 -256.5t-30 -225.5zM120 -12h-5q-1 23 -19.5 43.5t-39.5 22.5v5q20 1 39 21.5t20 43.5h5q0 -23 18.5 -43.5t39.5 -21.5v-5q-21 -2 -39 -22.5t-19 -43.5z" />
    <glyph glyph-name="exclamdown.alt" horiz-adv-x="229" 
d="M102 363h27q0 -31 28 -225.5t28 -256.5q0 -34 -17 -57t-54 -23q-38 0 -55 23t-17 57q0 62 30 256.5t30 225.5zM114 538h5q1 -23 19.5 -43.5t39.5 -22.5v-5q-20 -1 -39 -21.5t-20 -43.5h-5q0 23 -18.5 43.5t-39.5 21.5v5q21 2 39 22.5t19 43.5z" />
    <glyph glyph-name="question.alt" horiz-adv-x="500" 
d="M247 153h-27q0 50 13 91.5t32 70.5t38 57t32 65t13 80q0 72 -36 107.5t-97 35.5q-65 0 -98.5 -33t-33.5 -78q0 -39 27.5 -67t75.5 -28q22 0 42 4q-26 -31 -30 -71q-81 15 -122 61t-41 108q0 74 53 125t143 51q98 0 165 -51t67 -139q0 -45 -16 -82.5t-40 -62.5t-52 -52.5
t-52 -51.5t-40 -60.5t-16 -79.5zM235 -12h-5q-1 23 -19.5 43.5t-39.5 22.5v5q20 1 39 21.5t20 43.5h5q0 -23 18.5 -43.5t39.5 -21.5v-5q-21 -2 -39 -22.5t-19 -43.5z" />
    <glyph glyph-name="questiondown.alt" horiz-adv-x="491" 
d="M251 352h27q0 -50 -13 -91.5t-32 -70.5t-38 -57t-32 -65t-13 -80q0 -72 36 -107.5t97 -35.5q65 0 98.5 33t33.5 78q0 39 -27.5 67t-75.5 28q-22 0 -42 -4q26 31 30 71q81 -15 122 -61t41 -108q0 -74 -53 -125t-143 -51q-98 0 -165 51t-67 139q0 45 16 82.5t40 62.5
t52 52.5t52 51.5t40 60.5t16 79.5zM263 517h5q1 -23 19.5 -43.5t39.5 -22.5v-5q-20 -1 -39 -21.5t-20 -43.5h-5q0 23 -18.5 43.5t-39.5 21.5v5q21 2 39 22.5t19 43.5z" />
    <glyph glyph-name="asterisk.alt" horiz-adv-x="714" 
d="M365 0h-16q-3 184 -78.5 267.5t-230.5 88.5v16q155 5 230.5 88.5t78.5 267.5h16q3 -185 78.5 -269t230.5 -87v-16q-155 -3 -230.5 -87t-78.5 -269z" />
    <glyph glyph-name="plus.alt" horiz-adv-x="725" 
d="M193 427h102v146q0 89 -8 114t-42 31v11q44 -2 117 -2t117 2v-11q-34 -6 -42 -31t-8 -114v-146h103q89 0 114 8t31 42h11q-2 -44 -2 -114t2 -114h-11q-6 34 -31 42t-114 8h-103v-145q0 -89 8 -114t42 -31v-11q-44 2 -117 2t-117 -2v11q34 6 42 31t8 114v145h-102
q-89 0 -114 -8t-31 -42h-11q2 44 2 114t-2 114h11q6 -34 31 -42t114 -8z" />
    <glyph glyph-name="dieresis.alt" horiz-adv-x="332" 
d="M104 506h-5q-2 19 -17 36t-32 19v5q17 2 32 18.5t17 35.5h5q2 -20 16.5 -36.5t31.5 -17.5v-5q-17 -2 -32 -19t-16 -36zM234 506h-5q-2 19 -17 36t-32 19v5q17 2 32 18.5t17 35.5h5q2 -20 16.5 -36.5t31.5 -17.5v-5q-17 -2 -32 -19t-16 -36z" />
    <glyph glyph-name="dotaccent.alt" horiz-adv-x="218" 
d="M112 499h-5q-3 22 -20.5 41.5t-36.5 22.5v5q19 2 36.5 21.5t20.5 41.5h5q2 -23 19 -42t37 -21v-5q-20 -3 -37 -22t-19 -42z" />
    <glyph glyph-name="bullet.alt" horiz-adv-x="398" 
d="M203 195h-8q-3 163 -145 167v8q142 4 145 167h8q2 -164 145 -167v-8q-143 -3 -145 -167z" />
    <glyph glyph-name="periodcentered.alt" horiz-adv-x="218" 
d="M112 267h-5q-1 39 -24 65.5t-59 27.5v5q36 1 59 28t24 66h5q1 -39 24 -66t59 -28v-5q-36 -1 -59 -27t-24 -66z" />
    <glyph glyph-name="period.alt" horiz-adv-x="218" 
d="M112 -39h-5q-1 39 -24 65.5t-59 27.5v5q36 1 59 28t24 66h5q1 -39 24 -66t59 -28v-5q-36 -1 -59 -27t-24 -66z" />
    <glyph glyph-name="colon.alt" horiz-adv-x="218" 
d="M112 -39h-5q-1 39 -24 65.5t-59 27.5v5q36 1 59 28t24 66h5q1 -39 24 -66t59 -28v-5q-36 -1 -59 -27t-24 -66zM112 267h-5q-1 39 -24 65.5t-59 27.5v5q36 1 59 28t24 66h5q1 -39 24 -66t59 -28v-5q-36 -1 -59 -27t-24 -66z" />
    <glyph glyph-name="semicolon.alt" horiz-adv-x="218" 
d="M90 -98l-7 5q35 27 35 77q0 9 -2 17q-6 -5 -18 -5q-18 0 -29 12.5t-11 31.5q0 21 13.5 35.5t36.5 14.5q22 0 38.5 -14.5t16.5 -43.5q0 -83 -73 -130zM112 267h-5q-1 39 -24 65.5t-59 27.5v5q36 1 59 28t24 66h5q1 -39 24 -66t59 -28v-5q-36 -1 -59 -27t-24 -66z" />
    <glyph glyph-name="ellipsis.alt" horiz-adv-x="654" 
d="M112 -39h-5q-1 39 -24 65.5t-59 27.5v5q36 1 59 28t24 66h5q1 -39 24 -66t59 -28v-5q-36 -1 -59 -27t-24 -66zM330 -39h-5q-1 39 -24 65.5t-59 27.5v5q36 1 59 28t24 66h5q1 -39 24 -66t59 -28v-5q-36 -1 -59 -27t-24 -66zM548 -39h-5q-1 39 -24 65.5t-59 27.5v5
q36 1 59 28t24 66h5q1 -39 24 -66t59 -28v-5q-36 -1 -59 -27t-24 -66z" />
    <glyph glyph-name="divide.alt" horiz-adv-x="523" 
d="M462 332v-60q-39 1 -201 1t-200 -1v60q76 -2 200 -2q123 0 201 2zM263 95h-5q-3 22 -20.5 41.5t-36.5 22.5v5q19 2 36.5 21.5t20.5 41.5h5q2 -23 19 -42t37 -21v-5q-20 -3 -37 -22t-19 -42zM263 375h-5q-3 22 -20.5 41.5t-36.5 22.5v5q19 2 36.5 21.5t20.5 41.5h5
q2 -23 19 -42t37 -21v-5q-20 -3 -37 -22t-19 -42z" />
    <glyph glyph-name="ordfeminine.alt" horiz-adv-x="428" 
d="M47 408q0 44 41 71.5t98 27.5q43 0 73 -15v92q0 52 -13 71.5t-40 19.5q-28 0 -39.5 -23.5t-11.5 -74.5h-94q8 62 49.5 90.5t95.5 28.5q149 0 149 -132v-158q0 -42 7 -54t26 -16v-12q-34 2 -69 2q-31 0 -63 -2q3 9 3 27q-44 -33 -99 -33q-47 0 -80 23.5t-33 66.5zM259 472
q-22 11 -51 11q-60 0 -60 -64q0 -34 16 -50.5t41 -16.5q29 0 54 22v98zM387 254v-52q-39 1 -167 1q-115 0 -153 -1v52q76 -2 153 -2q89 0 167 2z" />
    <glyph glyph-name="ordmasculine.alt" horiz-adv-x="470" 
d="M237 436h-4q-1 30 -18 49.5t-44 20.5v4q27 1 44 21t18 49h4q1 -29 18 -49t44 -21v-4q-27 0 -44 -20t-18 -50zM392 203h-320v50h320v-50zM431 506q0 -82 -59 -134.5t-137 -52.5t-136.5 52.5t-58.5 134.5q0 84 58.5 137t136.5 53q79 0 137.5 -53t58.5 -137zM235 340
q51 0 70 40t19 126q0 89 -19 129t-70 40t-69.5 -40t-18.5 -129q0 -86 18.5 -126t69.5 -40z" />
    <glyph glyph-name="Agrave.alt" horiz-adv-x="618" 
d="M365 810l-21 -19l-165 121l52 53zM393 135l-17 51q-206 0 -243 -1q-27 -72 -27 -115q0 -49 37 -57v-15q-44 2 -102 2q-37 0 -79 -2v15q42 14 71 57.5t71 153.5l202 518h33l197 -610q34 -104 75 -119v-15q-42 2 -109 2q-89 0 -133 -2v15q42 8 42 42q0 24 -18 80zM184 318
h149l-69 211zM150 228h212l-15 48h-179z" />
    <glyph glyph-name="agrave.alt" 
d="M323 540l-21 -19l-165 121l52 53zM21 104q0 60 52.5 95t127.5 35q56 0 95 -19v119q0 67 -17.5 93t-50.5 26q-37 0 -52.5 -30t-15.5 -97h-121q8 58 39.5 94t70 48t86.5 12q86 0 135.5 -43t49.5 -129v-204q0 -56 9 -71t34 -20v-15q-44 2 -85 2q-46 0 -86 -2q4 14 4 34
q-59 -42 -129 -42q-61 0 -103.5 30.5t-42.5 83.5zM296 189q-30 14 -67 14q-77 0 -77 -82q0 -44 20.5 -65.5t51.5 -21.5q38 0 72 28v127z" />
    <glyph glyph-name="Aacute.alt" horiz-adv-x="618" 
d="M270 791l-21 19l134 155l52 -53zM393 135l-17 51q-206 0 -243 -1q-27 -72 -27 -115q0 -49 37 -57v-15q-44 2 -102 2q-37 0 -79 -2v15q42 14 71 57.5t71 153.5l202 518h33l197 -610q34 -104 75 -119v-15q-42 2 -109 2q-89 0 -133 -2v15q42 8 42 42q0 24 -18 80zM184 318
h149l-69 211zM150 228h212l-15 48h-179z" />
    <glyph glyph-name="aacute.alt" 
d="M21 106q0 58 53 93t127 35q56 0 95 -19v119q0 67 -17.5 93t-51.5 26q-37 0 -52 -30.5t-15 -96.5h-121q10 80 64.5 117t123.5 37q193 0 193 -172v-204q0 -56 9 -71t34 -20v-15q-44 2 -90 2q-41 0 -81 -2q4 14 4 34q-59 -42 -129 -42q-61 0 -103.5 30.5t-42.5 85.5z
M296 189q-30 14 -67 14q-77 0 -77 -82q0 -45 20 -66t53 -21q37 0 71 28v127zM200 521l-21 19l134 155l52 -53z" />
    <glyph glyph-name="Acircumflex.alt" horiz-adv-x="618" 
d="M437 769l-124 115l-124 -115h-37l138 177h46l138 -177h-37zM393 135l-17 51q-206 0 -243 -1q-27 -72 -27 -115q0 -49 37 -57v-15q-44 2 -102 2q-37 0 -79 -2v15q42 14 71 57.5t71 153.5l202 518h33l197 -610q34 -104 75 -119v-15q-42 2 -109 2q-89 0 -133 -2v15
q42 8 42 42q0 24 -18 80zM184 318h149l-69 211zM150 228h212l-15 48h-179z" />
    <glyph glyph-name="acircumflex.alt" 
d="M21 106q0 58 53 93t127 35q56 0 95 -19v119q0 67 -17.5 93t-51.5 26q-37 0 -52 -30.5t-15 -96.5h-121q10 80 64.5 117t123.5 37q193 0 193 -172v-204q0 -56 9 -71t34 -20v-15q-44 2 -90 2q-41 0 -81 -2q4 14 4 34q-59 -42 -129 -42q-61 0 -103.5 30.5t-42.5 85.5z
M296 189q-30 14 -67 14q-77 0 -77 -82q0 -45 20 -66t53 -21q37 0 71 28v127zM355 530l-124 115l-124 -115h-37l138 177h46l138 -177h-37z" />
    <glyph glyph-name="Atilde.alt" horiz-adv-x="618" 
d="M467 918h13q-8 -42 -36.5 -74.5t-66.5 -32.5q-25 0 -75.5 23t-73.5 23q-43 0 -55 -46h-14q14 50 43 76.5t62 26.5q24 0 72 -23t72 -23q41 0 59 50zM393 135l-17 51q-206 0 -243 -1q-27 -72 -27 -115q0 -49 37 -57v-15q-44 2 -102 2q-37 0 -79 -2v15q42 14 71 57.5
t71 153.5l202 518h33l197 -610q34 -104 75 -119v-15q-42 2 -109 2q-89 0 -133 -2v15q42 8 42 42q0 24 -18 80zM184 318h149l-69 211zM150 228h212l-15 48h-179z" />
    <glyph glyph-name="atilde.alt" 
d="M21 106q0 58 53 93t127 35q56 0 95 -19v119q0 67 -17.5 93t-51.5 26q-37 0 -52 -30.5t-15 -96.5h-121q10 80 64.5 117t123.5 37q193 0 193 -172v-204q0 -56 9 -71t34 -20v-15q-44 2 -90 2q-41 0 -81 -2q4 14 4 34q-59 -42 -129 -42q-61 0 -103.5 30.5t-42.5 85.5z
M296 189q-30 14 -67 14q-77 0 -77 -82q0 -45 20 -66t53 -21q37 0 71 28v127zM385 628h13q-8 -42 -36.5 -74.5t-66.5 -32.5q-25 0 -75.5 23t-73.5 23q-43 0 -55 -46h-14q14 50 43 76.5t62 26.5q24 0 72 -23t72 -23q41 0 59 50z" />
    <glyph glyph-name="Adieresis.alt" horiz-adv-x="618" 
d="M180 606h-5q-2 19 -17 36t-32 19v5q17 2 32 18.5t17 35.5h5q2 -20 16.5 -36.5t31.5 -17.5v-5q-17 -2 -32 -19t-16 -36zM461 606h-5q-2 19 -17 36t-32 19v5q17 2 32 18.5t17 35.5h5q2 -20 16.5 -36.5t31.5 -17.5v-5q-17 -2 -32 -19t-16 -36zM393 135l-17 51
q-206 0 -243 -1q-27 -72 -27 -115q0 -49 37 -57v-15q-44 2 -102 2q-37 0 -79 -2v15q42 14 71 57.5t71 153.5l202 518h33l197 -610q34 -104 75 -119v-15q-42 2 -109 2q-89 0 -133 -2v15q42 8 42 42q0 24 -18 80zM184 318h149l-69 211zM150 228h212l-15 48h-179z" />
    <glyph glyph-name="adieresis.alt" 
d="M21 106q0 58 53 93t127 35q56 0 95 -19v119q0 67 -17.5 93t-51.5 26q-37 0 -52 -30.5t-15 -96.5h-121q10 80 64.5 117t123.5 37q193 0 193 -172v-204q0 -56 9 -71t34 -20v-15q-44 2 -90 2q-41 0 -81 -2q4 14 4 34q-59 -42 -129 -42q-61 0 -103.5 30.5t-42.5 85.5z
M296 189q-30 14 -67 14q-77 0 -77 -82q0 -45 20 -66t53 -21q37 0 71 28v127zM170 516h-5q-2 19 -17 36t-32 19v5q17 2 32 18.5t17 35.5h5q2 -20 16.5 -36.5t31.5 -17.5v-5q-17 -2 -32 -19t-16 -36zM300 516h-5q-2 19 -17 36t-32 19v5q17 2 32 18.5t17 35.5h5
q2 -20 16.5 -36.5t31.5 -17.5v-5q-17 -2 -32 -19t-16 -36z" />
    <glyph glyph-name="Aring.alt" horiz-adv-x="618" 
d="M411 867q0 -36 -26.5 -60.5t-64.5 -24.5t-64 24.5t-26 60.5t26 60.5t65 24.5q38 0 64 -24.5t26 -60.5zM320 811q26 0 40 17t14 39q0 23 -13.5 39.5t-39.5 16.5t-39.5 -17t-13.5 -39q0 -23 13 -39.5t39 -16.5zM393 135l-17 51q-206 0 -243 -1q-27 -72 -27 -115
q0 -49 37 -57v-15q-44 2 -102 2q-37 0 -79 -2v15q42 14 71 57.5t71 153.5l202 518h33l197 -610q34 -104 75 -119v-15q-42 2 -109 2q-89 0 -133 -2v15q42 8 42 42q0 24 -18 80zM184 318h149l-69 211zM150 228h212l-15 48h-179z" />
    <glyph glyph-name="aring.alt" 
d="M21 106q0 58 53 93t127 35q56 0 95 -19v119q0 67 -17.5 93t-51.5 26q-37 0 -52 -30.5t-15 -96.5h-121q10 80 64.5 117t123.5 37q193 0 193 -172v-204q0 -56 9 -71t34 -20v-15q-44 2 -90 2q-41 0 -81 -2q4 14 4 34q-59 -42 -129 -42q-61 0 -103.5 30.5t-42.5 85.5z
M296 189q-30 14 -67 14q-77 0 -77 -82q0 -45 20 -66t53 -21q37 0 71 28v127zM324 597q0 -36 -26.5 -60.5t-64.5 -24.5t-64 24.5t-26 60.5t26 60.5t65 24.5q38 0 64 -24.5t26 -60.5zM233 541q26 0 40 17t14 39q0 23 -13.5 39.5t-39.5 16.5t-39.5 -17t-13.5 -39
q0 -23 13 -39.5t39 -16.5z" />
    <glyph glyph-name="Amacron.alt" horiz-adv-x="618" 
d="M466 870v-60q-46 1 -152 1t-151 -1v60q90 -2 151 -2q60 0 152 2zM393 135l-17 51q-206 0 -243 -1q-27 -72 -27 -115q0 -49 37 -57v-15q-44 2 -102 2q-37 0 -79 -2v15q42 14 71 57.5t71 153.5l202 518h33l197 -610q34 -104 75 -119v-15q-42 2 -109 2q-89 0 -133 -2v15
q42 8 42 42q0 24 -18 80zM184 318h149l-69 211zM150 228h212l-15 48h-179z" />
    <glyph glyph-name="amacron.alt" 
d="M21 106q0 58 53 93t127 35q56 0 95 -19v119q0 67 -17.5 93t-51.5 26q-37 0 -52 -30.5t-15 -96.5h-121q10 80 64.5 117t123.5 37q193 0 193 -172v-204q0 -56 9 -71t34 -20v-15q-44 2 -90 2q-41 0 -81 -2q4 14 4 34q-59 -42 -129 -42q-61 0 -103.5 30.5t-42.5 85.5z
M296 189q-30 14 -67 14q-77 0 -77 -82q0 -45 20 -66t53 -21q37 0 71 28v127zM389 610v-60q-46 1 -152 1t-151 -1v60q90 -2 151 -2q60 0 152 2z" />
    <glyph glyph-name="Abreve.alt" horiz-adv-x="618" 
d="M421 931h32q-1 -55 -35.5 -98t-101.5 -43t-101.5 43t-35.5 98h32q16 -90 105 -90t105 90zM393 135l-17 51q-206 0 -243 -1q-27 -72 -27 -115q0 -49 37 -57v-15q-44 2 -102 2q-37 0 -79 -2v15q42 14 71 57.5t71 153.5l202 518h33l197 -610q34 -104 75 -119v-15
q-42 2 -109 2q-89 0 -133 -2v15q42 8 42 42q0 24 -18 80zM184 318h149l-69 211zM150 228h212l-15 48h-179z" />
    <glyph glyph-name="abreve.alt" 
d="M21 106q0 58 53 93t127 35q56 0 95 -19v119q0 67 -17.5 93t-51.5 26q-37 0 -52 -30.5t-15 -96.5h-121q10 80 64.5 117t123.5 37q193 0 193 -172v-204q0 -56 9 -71t34 -20v-15q-44 2 -90 2q-41 0 -81 -2q4 14 4 34q-59 -42 -129 -42q-61 0 -103.5 30.5t-42.5 85.5z
M296 189q-30 14 -67 14q-77 0 -77 -82q0 -45 20 -66t53 -21q37 0 71 28v127zM337 671h32q-1 -55 -35.5 -98t-101.5 -43t-101.5 43t-35.5 98h32q16 -90 105 -90t105 90z" />
    <glyph glyph-name="Aogonek.alt" horiz-adv-x="618" 
d="M393 135l-17 51q-206 0 -243 -1q-27 -72 -27 -115q0 -49 37 -57v-15q-44 2 -102 2q-37 0 -79 -2v15q42 14 71 57.5t71 153.5l202 518h33l197 -610q34 -104 75 -119v-15q-34 2 -85 2q-86 -65 -86 -134q0 -47 49 -47q25 0 54 11l1 -19q-37 -21 -83 -21q-35 0 -58.5 16
t-23.5 48q0 66 116 146q-84 0 -126 -2v15q42 8 42 42q0 24 -18 80zM184 318h149l-69 211zM150 228h212l-15 48h-179z" />
    <glyph glyph-name="aogonek.alt" 
d="M430 -172l1 -19q-37 -21 -83 -21q-35 0 -58.5 16t-23.5 48q0 66 119 148h-12q-41 0 -81 -2q4 14 4 34q-59 -42 -129 -42q-61 0 -103.5 30.5t-42.5 85.5q0 58 53 93t127 35q56 0 95 -19v119q0 67 -17.5 93t-51.5 26q-37 0 -52 -30.5t-15 -96.5h-121q10 80 64.5 117
t123.5 37q193 0 193 -172v-204q0 -56 9 -71t34 -20v-15q-26 2 -48 2q-88 -67 -88 -136q0 -47 49 -47q25 0 54 11zM296 189q-30 14 -67 14q-77 0 -77 -82q0 -45 20 -66t53 -21q37 0 71 28v127z" />
    <glyph glyph-name="AE.alt" horiz-adv-x="942" 
d="M605 687v-647q24 -4 68 -4q41 0 65 4t53 19t51 49.5t40 90.5h15q-3 -144 -3 -201q-75 2 -356 2q-73 0 -117 -2v15q34 6 42 30.5t8 110.5v26h-111q-99 0 -161 -1q-64 -96 -64 -131q0 -27 31 -35v-15q-44 2 -122 2q-37 0 -79 -2v15q45 15 94 62t119 149l291 421
q-2 37 -12.5 50.5t-35.5 18.5v15q44 -2 117 -2q285 0 360 2q-2 -50 -2 -111q0 -51 1 -72h-15q-15 43 -32.5 71t-32.5 43t-41.5 22t-44.5 8t-58 1q-44 0 -68 -4zM288 313h183v273zM228 222h243v49h-99q-78 0 -112 -1zM741 271h-5q-1 43 -26 72t-65 30v5q39 1 64.5 30.5
t26.5 72.5h5q1 -43 26.5 -72.5t64.5 -30.5v-5q-39 -1 -64.5 -30t-26.5 -72z" />
    <glyph glyph-name="ae.alt" horiz-adv-x="757" 
d="M206 -10q-90 0 -137.5 39.5t-47.5 98.5q0 63 45.5 104t134.5 41q54 0 95 -18v79q0 67 -17.5 93t-51.5 26q-37 0 -52 -30.5t-15 -96.5h-121q10 80 64.5 117t123.5 37q101 0 143 -72q76 72 163 72q81 0 141.5 -48t60.5 -147q0 -12 -2 -38h-312q6 -87 51.5 -139.5
t114.5 -52.5t133 61l9 -13q-73 -113 -189 -113q-110 0 -179 74q-62 -74 -155 -74zM245 34q59 0 98 51q-45 60 -46 143q-28 14 -68 14q-39 0 -58 -29.5t-19 -74.5q0 -47 23 -75.5t70 -28.5zM530 453q-48 0 -77.5 -51.5t-31.5 -122.5h189q2 18 2 34q0 62 -22.5 101t-59.5 39z
" />
    <glyph glyph-name="AEacute.alt" horiz-adv-x="942" 
d="M641 781l-21 19l134 155l52 -53zM605 687v-647q24 -4 68 -4q41 0 65 4t53 19t51 49.5t40 90.5h15q-3 -144 -3 -201q-75 2 -356 2q-73 0 -117 -2v15q34 6 42 30.5t8 110.5v26h-111q-99 0 -161 -1q-64 -96 -64 -131q0 -27 31 -35v-15q-44 2 -122 2q-37 0 -79 -2v15
q45 15 94 62t119 149l291 421q-2 37 -12.5 50.5t-35.5 18.5v15q44 -2 117 -2q285 0 360 2q-2 -50 -2 -111q0 -51 1 -72h-15q-15 43 -32.5 71t-32.5 43t-41.5 22t-44.5 8t-58 1q-44 0 -68 -4zM288 313h183v273zM228 222h243v49h-99q-78 0 -112 -1zM741 271h-5q-1 43 -26 72
t-65 30v5q39 1 64.5 30.5t26.5 72.5h5q1 -43 26.5 -72.5t64.5 -30.5v-5q-39 -1 -64.5 -30t-26.5 -72z" />
    <glyph glyph-name="aeacute.alt" horiz-adv-x="757" 
d="M206 -10q-90 0 -137.5 39.5t-47.5 98.5q0 63 45.5 104t134.5 41q54 0 95 -18v79q0 67 -17.5 93t-51.5 26q-37 0 -52 -30.5t-15 -96.5h-121q10 80 64.5 117t123.5 37q101 0 143 -72q76 72 163 72q81 0 141.5 -48t60.5 -147q0 -12 -2 -38h-312q6 -87 51.5 -139.5
t114.5 -52.5t133 61l9 -13q-73 -113 -189 -113q-110 0 -179 74q-62 -74 -155 -74zM245 34q59 0 98 51q-45 60 -46 143q-28 14 -68 14q-39 0 -58 -29.5t-19 -74.5q0 -47 23 -75.5t70 -28.5zM530 453q-48 0 -77.5 -51.5t-31.5 -122.5h189q2 18 2 34q0 62 -22.5 101t-59.5 39z
M362 521l-21 19l134 155l52 -53z" />
    <glyph glyph-name="uni1E02.alt" horiz-adv-x="616" 
d="M282 779h-5q-3 22 -20.5 41.5t-36.5 22.5v5q19 2 36.5 21.5t20.5 41.5h5q2 -23 19 -42t37 -21v-5q-20 -3 -37 -22t-19 -42zM253 388v11q66 0 99.5 47t33.5 121q0 132 -108 132q-27 0 -51 -9v-654q23 -9 66 -9q66 0 107.5 45.5t41.5 128.5q0 91 -50.5 139t-138.5 48z
M334 -3q-12 0 -72 1.5t-100 1.5q-75 0 -119 -2v15q34 6 42 30.5t8 110.5v419q0 86 -8 110.5t-42 30.5v15q44 -2 126 -2q41 0 103 1t68 1q99 0 145 -43.5t46 -113.5q0 -133 -149 -171q205 -28 205 -195q0 -39 -11 -73t-37 -66t-78.5 -51t-126.5 -19z" />
    <glyph glyph-name="uni1E03.alt" horiz-adv-x="553" 
d="M48 17l-7 9q15 15 17.5 35.5t2.5 105.5v459q0 50 -5 67t-26 23v15q88 0 155 31v-314q51 32 113 32q99 0 164.5 -65t65.5 -173q0 -101 -72 -174.5t-181 -73.5q-43 0 -94.5 17t-80.5 17q-26 0 -52 -11zM185 419v-268q0 -74 19 -102t71 -28q64 0 89.5 57t25.5 164
q0 205 -125 205q-41 0 -80 -28zM348 557h-5q-3 22 -20.5 41.5t-36.5 22.5v5q19 2 36.5 21.5t20.5 41.5h5q2 -23 19 -42t37 -21v-5q-20 -3 -37 -22t-19 -42z" />
    <glyph glyph-name="Ccedilla.alt" horiz-adv-x="698" 
d="M306 -135h16q15 -30 52 -30q48 0 48 42q0 43 -39 43q-26 0 -42 -19h-15l43 92q-110 11 -189 68t-114.5 134t-35.5 166q0 71 24.5 136t72 118t125 85t174.5 32q101 0 196 -42q8 11 12 37h11q-1 -10 -1 -36q0 -92 12 -185h-15q-65 194 -215 194q-104 0 -176.5 -92
t-72.5 -247t72.5 -247t176.5 -92q152 0 218 198h15q-12 -94 -12 -189q0 -26 1 -36h-11q-4 26 -12 37q-93 -42 -199 -42q-5 0 -15 0.5t-15 0.5l-16 -43q16 4 27 4q32 0 53.5 -17t21.5 -52q0 -38 -27 -58t-60 -20q-34 0 -58 15.5t-31 44.5z" />
    <glyph glyph-name="Cacute.alt" horiz-adv-x="698" 
d="M382 771l-21 19l134 155l52 -53zM426 22q152 0 218 198h15q-12 -94 -12 -189q0 -26 1 -36h-11q-4 26 -12 37q-93 -42 -199 -42q-97 0 -174.5 32t-125 85t-72 118t-24.5 136t24.5 136t72 118t125 85t174.5 32q101 0 196 -42q8 11 12 37h11q-1 -10 -1 -36q0 -92 12 -185
h-15q-65 194 -215 194q-104 0 -176.5 -92t-72.5 -247t72.5 -247t176.5 -92z" />
    <glyph glyph-name="Ccircumflex.alt" horiz-adv-x="698" 
d="M542 772l-124 115l-124 -115h-37l138 177h46l138 -177h-37zM426 22q152 0 218 198h15q-12 -94 -12 -189q0 -26 1 -36h-11q-4 26 -12 37q-93 -42 -199 -42q-97 0 -174.5 32t-125 85t-72 118t-24.5 136t24.5 136t72 118t125 85t174.5 32q101 0 196 -42q8 11 12 37h11
q-1 -10 -1 -36q0 -92 12 -185h-15q-65 194 -215 194q-104 0 -176.5 -92t-72.5 -247t72.5 -247t176.5 -92z" />
    <glyph glyph-name="Ccaron.alt" horiz-adv-x="698" 
d="M426 22q152 0 218 198h15q-12 -94 -12 -189q0 -26 1 -36h-11q-4 26 -12 37q-93 -42 -199 -42q-97 0 -174.5 32t-125 85t-72 118t-24.5 136t24.5 136t72 118t125 85t174.5 32q101 0 196 -42q8 11 12 37h11q-1 -10 -1 -36q0 -92 12 -185h-15q-65 194 -215 194
q-104 0 -176.5 -92t-72.5 -247t72.5 -247t176.5 -92zM411 842l124 115h37l-138 -177h-46l-138 177h37z" />
    <glyph glyph-name="Cdotaccent.alt" horiz-adv-x="698" 
d="M426 22q152 0 218 198h15q-12 -94 -12 -189q0 -26 1 -36h-11q-4 26 -12 37q-93 -42 -199 -42q-97 0 -174.5 32t-125 85t-72 118t-24.5 136t24.5 136t72 118t125 85t174.5 32q101 0 196 -42q8 11 12 37h11q-1 -10 -1 -36q0 -92 12 -185h-15q-65 194 -215 194
q-104 0 -176.5 -92t-72.5 -247t72.5 -247t176.5 -92zM469 823q0 -17 -13 -29.5t-30 -12.5t-29.5 12.5t-12.5 29.5q0 16 12.5 29t29.5 13t30 -13t13 -29z" />
    <glyph glyph-name="cdotaccent.alt" horiz-adv-x="473" 
d="M263 519h-5q-3 22 -20.5 41.5t-36.5 22.5v5q19 2 36.5 21.5t20.5 41.5h5q2 -23 19 -42t37 -21v-5q-20 -3 -37 -22t-19 -42zM437 105l10 -11q-68 -104 -178 -104q-103 0 -173.5 67.5t-70.5 175.5q0 115 73.5 181t166.5 66q79 0 129 -33t62 -100h-121q-1 57 -16 81.5
t-54 24.5q-56 0 -86 -51t-30 -141q0 -96 46.5 -151t119.5 -55q76 0 122 50z" />
    <glyph glyph-name="Dcaron.alt" horiz-adv-x="738" 
d="M555 363q0 67 -10 120.5t-25.5 88t-39.5 59.5t-45.5 37.5t-50.5 20t-48 9t-44 1.5q-41 0 -65 -9v-654q23 -9 74 -9q131 0 192.5 82t61.5 254zM323 -3q-20 0 -74.5 1.5t-88.5 1.5q-73 0 -117 -2v15q34 6 42 30.5t8 110.5v419q0 86 -8 110.5t-42 30.5v15q44 -2 117 -2
q25 0 66 1t68 1q105 0 183.5 -26.5t120.5 -65t68 -91.5t33 -95t7 -88q0 -158 -99.5 -262t-283.5 -104zM317 842l124 115h37l-138 -177h-46l-138 177h37z" />
    <glyph glyph-name="dcaron.alt" horiz-adv-x="550" 
d="M588 538l-7 5q35 27 35 77q0 9 -2 17q-6 -5 -18 -5q-18 0 -29 12.5t-11 31.5q0 21 13.5 35.5t36.5 14.5q22 0 38.5 -14.5t16.5 -43.5q0 -83 -73 -130zM265 480q56 0 95 -29v175q0 50 -5 67t-26 23v15q88 0 155 31v-658q0 -56 9 -71t34 -20v-15q-44 2 -85 2q-44 0 -84 -2
q0 4 0.5 14.5t0.5 16.5q-48 -35 -107 -35q-96 0 -161.5 66.5t-65.5 169.5q0 107 70 178.5t170 71.5zM360 61v348q-24 40 -84 40q-57 0 -85 -48t-28 -155q0 -214 122 -214q46 0 75 29z" />
    <glyph glyph-name="Dcroat.alt" horiz-adv-x="738" 
d="M319 -3q-15 0 -70 1.5t-89 1.5q-73 0 -117 -2v15q34 6 42 30.5t8 110.5v179q-10 0 -25 -0.5t-20 -0.5v60q11 -1 45 -1v182q0 86 -8 110.5t-42 30.5v15q44 -2 116 -2q26 0 68.5 1t58.5 1q107 0 187 -26t123 -64t69.5 -90.5t33.5 -93.5t7 -86q0 -165 -99.5 -268.5
t-287.5 -103.5zM555 358q0 68 -10 122t-25.5 89t-39 60.5t-44 38.5t-48 20.5t-44.5 9t-39 1.5q-51 0 -78 -9v-300q121 0 187 2v-60q-33 1 -187 1v-297q23 -9 69 -9q134 0 196.5 81t62.5 250z" />
    <glyph glyph-name="dcroat.alt" horiz-adv-x="550" 
d="M265 480q56 0 95 -29v100q-160 0 -185 -1v60q46 -2 185 -2v18q0 50 -5 67t-26 23v15q88 0 155 31v-154l52 2v-60q-7 0 -24.5 0.5t-27.5 0.5v-447q0 -56 9 -71t34 -20v-15q-44 2 -85 2q-44 0 -84 -2q0 4 0.5 14.5t0.5 16.5q-48 -35 -107 -35q-96 0 -161.5 66.5
t-65.5 169.5q0 107 70 178.5t170 71.5zM360 61v348q-24 40 -84 40q-57 0 -85 -48t-28 -155q0 -214 122 -214q46 0 75 29z" />
    <glyph glyph-name="Eth.alt" horiz-adv-x="738" 
d="M319 -3q-15 0 -70 1.5t-89 1.5q-73 0 -117 -2v15q34 6 42 30.5t8 110.5v179q-10 0 -25 -0.5t-20 -0.5v60q11 -1 45 -1v182q0 86 -8 110.5t-42 30.5v15q44 -2 116 -2q26 0 68.5 1t58.5 1q107 0 187 -26t123 -64t69.5 -90.5t33.5 -93.5t7 -86q0 -165 -99.5 -268.5
t-287.5 -103.5zM555 358q0 68 -10 122t-25.5 89t-39 60.5t-44 38.5t-48 20.5t-44.5 9t-39 1.5q-51 0 -78 -9v-300q121 0 187 2v-60q-33 1 -187 1v-297q23 -9 69 -9q134 0 196.5 81t62.5 250z" />
    <glyph glyph-name="eth.alt" horiz-adv-x="592" 
d="M402 446q-27 124 -75 181l-57 -48l-18 20l57 48q-63 61 -184 67v19q125 0 222 -54l70 58l17 -20l-63 -53q93 -61 141.5 -163t48.5 -218q0 -56 -15 -106t-46 -92t-84 -66.5t-122 -24.5q-118 0 -193.5 64.5t-75.5 175.5q0 109 71 177.5t190 68.5q72 0 116 -34zM420 251
q0 37 -2 61.5t-9.5 52t-21.5 44t-39.5 27t-61.5 10.5q-60 0 -89.5 -48t-29.5 -173q0 -43 5 -75t17.5 -62t38 -46t62.5 -16q34 0 58 13t38 33t21.5 51.5t10 60t2.5 67.5z" />
    <glyph glyph-name="uni1E0A.alt" horiz-adv-x="738" 
d="M555 363q0 67 -10 120.5t-25.5 88t-39.5 59.5t-45.5 37.5t-50.5 20t-48 9t-44 1.5q-41 0 -65 -9v-654q23 -9 74 -9q131 0 192.5 82t61.5 254zM323 -3q-20 0 -74.5 1.5t-88.5 1.5q-73 0 -117 -2v15q34 6 42 30.5t8 110.5v419q0 86 -8 110.5t-42 30.5v15q44 -2 117 -2
q25 0 66 1t68 1q105 0 183.5 -26.5t120.5 -65t68 -91.5t33 -95t7 -88q0 -158 -99.5 -262t-283.5 -104zM383 824q0 -17 -13 -29.5t-30 -12.5t-29.5 12.5t-12.5 29.5q0 16 12.5 29t29.5 13t30 -13t13 -29z" />
    <glyph glyph-name="uni1E0B.alt" horiz-adv-x="550" 
d="M284 611q0 -17 -13 -29.5t-30 -12.5t-29.5 12.5t-12.5 29.5q0 16 12.5 29t29.5 13t30 -13t13 -29zM265 480q56 0 95 -29v175q0 50 -5 67t-26 23v15q88 0 155 31v-658q0 -56 9 -71t34 -20v-15q-44 2 -85 2q-44 0 -84 -2q0 4 0.5 14.5t0.5 16.5q-48 -35 -107 -35
q-96 0 -161.5 66.5t-65.5 169.5q0 107 70 178.5t170 71.5zM360 61v348q-24 40 -84 40q-57 0 -85 -48t-28 -155q0 -214 122 -214q46 0 75 29z" />
    <glyph glyph-name="Egrave.alt" horiz-adv-x="564" 
d="M227 687v-647q24 -4 68 -4q41 0 65 4t53 19t51 49.5t40 90.5h15q-3 -144 -3 -201q-75 2 -356 2q-73 0 -117 -2v15q34 6 42 30.5t8 110.5v419q0 86 -8 110.5t-42 30.5v15q44 -2 117 -2q285 0 360 2q-2 -50 -2 -111q0 -51 1 -72h-15q-15 43 -32.5 71t-32.5 43t-41.5 22
t-44.5 8t-58 1q-44 0 -68 -4zM363 271h-5q-1 43 -26 72t-65 30v5q39 1 64.5 30.5t26.5 72.5h5q1 -43 26.5 -72.5t64.5 -30.5v-5q-39 -1 -64.5 -30t-26.5 -72zM345 792l-21 -19l-165 121l52 53z" />
    <glyph glyph-name="egrave.alt" horiz-adv-x="485" 
d="M461 247h-312q6 -87 51.5 -139.5t114.5 -52.5t133 61l9 -13q-73 -113 -189 -113q-100 0 -171.5 67t-71.5 177q0 111 71.5 178.5t164.5 67.5q81 0 141.5 -48t60.5 -147q0 -12 -2 -38zM258 453q-48 0 -77.5 -51.5t-31.5 -122.5h189q2 18 2 34q0 62 -22.5 101t-59.5 39z
M326 540l-21 -19l-165 121l52 53z" />
    <glyph glyph-name="Eacute.alt" horiz-adv-x="564" 
d="M227 687v-647q24 -4 68 -4q41 0 65 4t53 19t51 49.5t40 90.5h15q-3 -144 -3 -201q-75 2 -356 2q-73 0 -117 -2v15q34 6 42 30.5t8 110.5v419q0 86 -8 110.5t-42 30.5v15q44 -2 117 -2q285 0 360 2q-2 -50 -2 -111q0 -51 1 -72h-15q-15 43 -32.5 71t-32.5 43t-41.5 22
t-44.5 8t-58 1q-44 0 -68 -4zM363 271h-5q-1 43 -26 72t-65 30v5q39 1 64.5 30.5t26.5 72.5h5q1 -43 26.5 -72.5t64.5 -30.5v-5q-39 -1 -64.5 -30t-26.5 -72zM257 773l-21 19l134 155l52 -53z" />
    <glyph glyph-name="eacute.alt" horiz-adv-x="485" 
d="M461 247h-312q6 -87 51.5 -139.5t114.5 -52.5t133 61l9 -13q-73 -113 -189 -113q-100 0 -171.5 67t-71.5 177q0 111 71.5 178.5t164.5 67.5q81 0 141.5 -48t60.5 -147q0 -12 -2 -38zM258 453q-48 0 -77.5 -51.5t-31.5 -122.5h189q2 18 2 34q0 62 -22.5 101t-59.5 39z
M201 521l-21 19l134 155l52 -53z" />
    </font>
</defs>
</svg>
